SplineFontDB: 3.0
FontName: Cimatics_Trash
FullName: Cimatics Trash
FamilyName: Cimatics
Weight: Demi
Copyright: Cimatics was designed by Ludi and Ivan -OSP, July 2009 (http://ospublish.constantvzw.org)\nIt is based on URW Gothic L.\nCopyright (URW)++, Copyright 1999 by (URW)++ Design & Development; Cyrillic glyphs added by Valek Filippov (C) 2001-2005
Version: 1
ItalicAngle: 0
UnderlinePosition: -183
UnderlineWidth: 90
Ascent: 800
Descent: 200
LayerCount: 2
Layer: 0 1 "Back" 
Layer: 1 1 "Fore" 
XUID: [1021 179 886990652 4741209]
FSType: 0
OS2Version: 3
OS2_WeightWidthSlopeOnly: 0
OS2_UseTypoMetrics: 1
CreationTime: 1254929815
ModificationTime: 1255337544
PfmFamily: 17
TTFWeight: 600
TTFWidth: 5
LineGap: 90
VLineGap: 0
Panose: 2 11 7 4 1 1 7 2 2 3
OS2TypoAscent: 0
OS2TypoAOffset: 1
OS2TypoDescent: 0
OS2TypoDOffset: 1
OS2TypoLinegap: 90
OS2WinAscent: 0
OS2WinAOffset: 1
OS2WinDescent: 1
OS2WinDOffset: 1
HheadAscent: -981
HheadAOffset: 1
HheadDescent: 1504
HheadDOffset: 1
OS2SubXSize: 32528
OS2SubYSize: 32767
OS2SubXOff: 0
OS2SubYOff: 0
OS2SupXSize: 32464
OS2SupYSize: 32767
OS2SupXOff: 32544
OS2SupYOff: 32767
OS2StrikeYSize: 0
OS2StrikeYPos: 32767
OS2Vendor: 'PfEd'
OS2CodePages: 60000097.0fd60000
OS2UnicodeRanges: 810002af.5000f04a.00000000.00000000
Lookup: 4 0 1 "'liga' Standard Ligatures in Latin lookup 0"  {"'liga' Standard Ligatures in Latin lookup 0 subtable"  } ['liga' ('latn' <'dflt' > ) ]
Lookup: 258 0 0 "'kern' Horizontal Kerning in Latin lookup 0"  {"'kern' Horizontal Kerning in Latin lookup 0 subtable"  } ['kern' ('latn' <'dflt' > ) ]
DEI: 0
TtTable: prep
PUSHW_1
 1
CALL
EndTTInstrs
TtTable: fpgm
PUSHW_1
 1
FDEF
MPPEM
PUSHW_1
 8
LT
IF
PUSHB_2
 1
 1
INSTCTRL
EIF
PUSHW_1
 511
SCANCTRL
PUSHW_1
 68
SCVTCI
PUSHW_2
 8
 3
SDS
SDB
ENDF
PUSHW_1
 2
FDEF
DUP
DUP
RCVT
ROUND[Black]
WCVTP
PUSHB_1
 1
ADD
ENDF
PUSHW_1
 3
FDEF
PUSHW_1
 2
LOOPCALL
POP
ENDF
PUSHW_1
 4
FDEF
DUP
GC[cur]
PUSHB_1
 3
CINDEX
GC[cur]
GT
IF
SWAP
EIF
DUP
ROLL
DUP
ROLL
MD[grid]
ABS
ROLL
DUP
GC[cur]
DUP

StartChar: .notdef
Encoding: 65536 -1 0
Width: 364
Flags: W
LayerCount: 2
Fore
SplineSet
33 0 m 1,0,-1
 33 666 l 1,1,-1
 298 666 l 1,2,-1
 298 0 l 1,3,-1
 33 0 l 1,0,-1
66 33 m 1,4,-1
 265 33 l 1,5,-1
 265 633 l 1,6,-1
 66 633 l 1,7,-1
 66 33 l 1,4,-1
EndSplineSet
EndChar

StartChar: space
Encoding: 32 32 3
Width: 280
Flags: W
LayerCount: 2
Fore
SplineSet
533 1020 m 1,0,1
 528 980 528 980 510 980 c 2,2,-1
 508 980 l 1,3,4
 497 982 497 982 497 989 c 0,5,6
 497 1000 497 1000 533 1020 c 1,0,1
614 1070 m 1,7,8
 608 1029 608 1029 590 1029 c 2,9,-1
 589 1029 l 1,10,11
 578 1031 578 1031 578 1038 c 0,12,13
 578 1049 578 1049 614 1070 c 1,7,8
684 1093 m 1,14,15
 679 1053 679 1053 661 1053 c 2,16,-1
 660 1053 l 2,17,18
 648 1054 648 1054 648 1061 c 2,19,-1
 648 1062 l 2,20,21
 648 1072 648 1072 684 1093 c 1,14,15
696 1036 m 1,22,-1
 697 1036 l 1,23,24
 691 996 691 996 673 996 c 2,25,-1
 672 996 l 1,26,27
 661 998 661 998 661 1004 c 2,28,-1
 661 1005 l 2,29,30
 661 1016 661 1016 696 1036 c 1,22,-1
767 1077 m 1,31,32
 762 1037 762 1037 744 1037 c 2,33,-1
 742 1037 l 2,34,35
 731 1038 731 1038 731 1046 c 0,36,37
 731 1057 731 1057 767 1077 c 1,31,32
788 1036 m 1,38,-1
 789 1036 l 1,39,40
 783 996 783 996 765 996 c 2,41,-1
 764 996 l 2,42,43
 753 997 753 997 753 1004 c 2,44,-1
 753 1005 l 2,45,46
 753 1016 753 1016 788 1036 c 1,38,-1
770 970 m 1,47,-1
 771 970 l 1,48,49
 765 929 765 929 747 929 c 2,50,-1
 746 929 l 1,51,52
 735 931 735 931 735 938 c 0,53,54
 735 949 735 949 770 970 c 1,47,-1
618 980 m 1,55,-1
 630 980 l 1,56,-1
 630 978 l 1,57,-1
 630 957 l 1,58,-1
 631 957 l 2,59,60
 717 957 717 957 772 872 c 0,61,62
 780 857 780 857 780 855 c 2,63,-1
 780 854 l 1,64,65
 775 856 775 856 772 864 c 1,66,67
 765 868 765 868 754 868 c 2,68,-1
 745 868 l 2,69,70
 716 868 716 868 694 851 c 1,71,-1
 694 842 l 2,72,73
 694 840 694 840 692 839 c 1,74,-1
 686 850 l 1,75,76
 656 861 656 861 630 861 c 1,77,-1
 630 742 l 2,78,79
 630 724 630 724 609 720 c 1,80,-1
 603 720 l 2,81,82
 586 720 586 720 578 737 c 1,83,-1
 578 742 l 1,84,-1
 578 746 l 1,85,-1
 579 747 l 1,86,-1
 588 747 l 1,87,-1
 588 746 l 1,88,-1
 588 744 l 2,89,90
 590 726 590 726 603 726 c 2,91,-1
 605 726 l 2,92,93
 615 726 615 726 619 736 c 1,94,-1
 620 744 l 1,95,-1
 620 861 l 1,96,97
 579 861 579 861 562 850 c 1,98,99
 559 841 559 841 556 841 c 1,100,-1
 555 842 l 1,101,-1
 555 844 l 1,102,-1
 556 853 l 1,103,104
 542 864 542 864 504 868 c 2,105,-1
 491 868 l 2,106,107
 472 868 472 868 465 858 c 1,108,-1
 461 855 l 1,109,-1
 460 855 l 1,110,111
 472 880 472 880 509 918 c 0,112,113
 556 957 556 957 617 957 c 1,114,-1
 617 978 l 1,115,-1
 618 980 l 1,55,-1
2732 -447 m 128,-1,117
 2716 -447 2716 -447 2705.5 -457.5 c 128,-1,118
 2695 -468 2695 -468 2695 -484 c 128,-1,119
 2695 -500 2695 -500 2705.5 -510.5 c 128,-1,120
 2716 -521 2716 -521 2732 -521 c 128,-1,121
 2748 -521 2748 -521 2758.5 -510.5 c 128,-1,122
 2769 -500 2769 -500 2769 -484.5 c 128,-1,123
 2769 -469 2769 -469 2758.5 -458 c 128,-1,116
 2748 -447 2748 -447 2732 -447 c 128,-1,117
2732 -422 m 0,124,125
 2745 -422 2745 -422 2756.5 -426.5 c 128,-1,126
 2768 -431 2768 -431 2776 -440 c 0,127,128
 2785 -449 2785 -449 2789.5 -460 c 128,-1,129
 2794 -471 2794 -471 2794 -484 c 0,130,131
 2794 -510 2794 -510 2776 -528 c 128,-1,132
 2758 -546 2758 -546 2731.5 -546 c 128,-1,133
 2705 -546 2705 -546 2687.5 -528 c 128,-1,134
 2670 -510 2670 -510 2670 -484 c 256,135,136
 2670 -458 2670 -458 2688 -440 c 128,-1,137
 2706 -422 2706 -422 2732 -422 c 0,124,125
2732 -382 m 128,-1,139
 2711 -382 2711 -382 2693 -389 c 0,140,141
 2675 -397 2675 -397 2660 -412 c 256,142,143
 2645 -427 2645 -427 2637.5 -445 c 128,-1,144
 2630 -463 2630 -463 2630 -484 c 256,145,146
 2630 -505 2630 -505 2637.5 -523 c 128,-1,147
 2645 -541 2645 -541 2660 -556 c 256,148,149
 2675 -571 2675 -571 2693 -578.5 c 128,-1,150
 2711 -586 2711 -586 2732 -586 c 128,-1,151
 2753 -586 2753 -586 2771 -578.5 c 128,-1,152
 2789 -571 2789 -571 2804 -556 c 256,153,154
 2819 -541 2819 -541 2826.5 -523 c 128,-1,155
 2834 -505 2834 -505 2834 -484 c 256,156,157
 2834 -463 2834 -463 2826.5 -445 c 128,-1,158
 2819 -427 2819 -427 2804 -412 c 256,159,160
 2789 -397 2789 -397 2771 -389 c 0,161,138
 2753 -382 2753 -382 2732 -382 c 128,-1,139
2732 -352 m 128,-1,163
 2759 -352 2759 -352 2782.5 -362 c 128,-1,164
 2806 -372 2806 -372 2825 -391 c 128,-1,165
 2844 -410 2844 -410 2853.5 -433.5 c 128,-1,166
 2863 -457 2863 -457 2863 -484 c 256,167,168
 2863 -511 2863 -511 2853.5 -534 c 128,-1,169
 2844 -557 2844 -557 2825 -576.5 c 128,-1,170
 2806 -596 2806 -596 2782.5 -605.5 c 128,-1,171
 2759 -615 2759 -615 2732 -615 c 128,-1,172
 2705 -615 2705 -615 2682 -605.5 c 128,-1,173
 2659 -596 2659 -596 2639.5 -576.5 c 128,-1,174
 2620 -557 2620 -557 2610.5 -534 c 128,-1,175
 2601 -511 2601 -511 2601 -484 c 256,176,177
 2601 -457 2601 -457 2610.5 -433.5 c 128,-1,178
 2620 -410 2620 -410 2639.5 -391 c 128,-1,179
 2659 -372 2659 -372 2682 -362 c 128,-1,162
 2705 -352 2705 -352 2732 -352 c 128,-1,163
EndSplineSet
EndChar

StartChar: exclam
Encoding: 33 33 4
Width: 280
Flags: W
LayerCount: 2
Fore
SplineSet
72 188 m 1,0,-1
 72 739 l 1,1,-1
 205 739 l 1,2,-1
 205 188 l 1,3,-1
 72 188 l 1,0,-1
72 0 m 1,4,-1
 72 128 l 1,5,-1
 205 128 l 1,6,-1
 205 0 l 1,7,-1
 72 0 l 1,4,-1
EndSplineSet
EndChar

StartChar: quotedbl
Encoding: 34 34 5
Width: 360
Flags: W
LayerCount: 2
Fore
SplineSet
283 513 m 1,0,-1
 207 513 l 1,1,-1
 207 739 l 1,2,-1
 283 739 l 1,3,-1
 283 513 l 1,0,-1
150 513 m 1,4,-1
 74 513 l 1,5,-1
 74 739 l 1,6,-1
 150 739 l 1,7,-1
 150 513 l 1,4,-1
EndSplineSet
EndChar

StartChar: numbersign
Encoding: 35 35 6
Width: 560
Flags: W
LayerCount: 2
Fore
SplineSet
199 739 m 1,0,-1
 289 739 l 1,1,-1
 260 521 l 1,2,-1
 347 521 l 1,3,-1
 376 739 l 1,4,-1
 466 739 l 1,5,-1
 437 521 l 1,6,-1
 526 521 l 1,7,-1
 526 422 l 1,8,-1
 423 422 l 1,9,-1
 411 333 l 1,10,-1
 500 333 l 1,11,-1
 500 233 l 1,12,-1
 398 233 l 1,13,-1
 366 0 l 1,14,-1
 276 0 l 1,15,-1
 308 233 l 1,16,-1
 221 233 l 1,17,-1
 190 0 l 1,18,-1
 99 0 l 1,19,-1
 131 233 l 1,20,-1
 34 233 l 1,21,-1
 34 333 l 1,22,-1
 144 333 l 1,23,-1
 156 422 l 1,24,-1
 60 422 l 1,25,-1
 60 521 l 1,26,-1
 170 521 l 1,27,-1
 199 739 l 1,0,-1
247 422 m 1,28,-1
 234 333 l 1,29,-1
 321 333 l 1,30,-1
 333 422 l 1,31,-1
 247 422 l 1,28,-1
EndSplineSet
EndChar

StartChar: dollar
Encoding: 36 36 7
Width: 560
Flags: W
LayerCount: 2
Fore
SplineSet
59 249 m 1,0,-1
 193 249 l 1,1,2
 195 210 195 210 218 186.5 c 128,-1,3
 241 163 241 163 277 163 c 128,-1,4
 313 163 313 163 337 187 c 128,-1,5
 361 211 361 211 361 246 c 0,6,7
 361 291 361 291 322 316 c 0,8,9
 304 328 304 328 217 361 c 0,10,11
 88 408 88 408 88 541 c 0,12,13
 88 629 88 629 144 685 c 0,14,15
 172 712 172 712 220 723 c 1,16,-1
 220 856 l 1,17,-1
 347 856 l 1,18,-1
 347 723 l 1,19,20
 398 713 398 713 433.5 664 c 128,-1,21
 469 615 469 615 471 551 c 1,22,-1
 345 551 l 1,23,24
 333 613 333 613 280 613 c 0,25,26
 254 613 254 613 237.5 595 c 128,-1,27
 221 577 221 577 221 549 c 0,28,29
 221 510 221 510 250 489 c 0,30,31
 269 474 269 474 335 449 c 0,32,33
 408 424 408 424 439 397 c 0,34,35
 494 348 494 348 494 251 c 0,36,37
 494 174 494 174 455.5 119.5 c 128,-1,38
 417 65 417 65 347 46 c 1,39,-1
 347 -86 l 1,40,-1
 220 -86 l 1,41,-1
 220 46 l 1,42,43
 168 61 168 61 134 88 c 0,44,45
 99 116 99 116 79 155.5 c 128,-1,46
 59 195 59 195 59 236 c 2,47,-1
 59 249 l 1,0,-1
EndSplineSet
EndChar

StartChar: percent
Encoding: 37 37 8
Width: 860
Flags: W
LayerCount: 2
Fore
SplineSet
528 739 m 1,0,-1
 631 739 l 1,1,-1
 325 0 l 1,2,-1
 223 0 l 1,3,-1
 528 739 l 1,0,-1
655 348 m 0,4,5
 728 348 728 348 781.5 295 c 128,-1,6
 835 242 835 242 835 168 c 0,7,8
 835 93 835 93 782 40 c 128,-1,9
 729 -13 729 -13 654 -13 c 128,-1,10
 579 -13 579 -13 526 40 c 128,-1,11
 473 93 473 93 473 167 c 0,12,13
 473 243 473 243 526 295.5 c 128,-1,14
 579 348 579 348 655 348 c 0,4,5
654 242 m 128,-1,16
 624 242 624 242 602.5 220.5 c 128,-1,17
 581 199 581 199 581 168 c 128,-1,18
 581 137 581 137 602.5 115.5 c 128,-1,19
 624 94 624 94 654 94 c 128,-1,20
 684 94 684 94 706 116 c 128,-1,21
 728 138 728 138 728 168 c 128,-1,22
 728 198 728 198 706 220 c 128,-1,15
 684 242 684 242 654 242 c 128,-1,16
203 752 m 0,23,24
 276 752 276 752 329.5 699 c 128,-1,25
 383 646 383 646 383 572 c 0,26,27
 383 497 383 497 330 444 c 128,-1,28
 277 391 277 391 202 391 c 128,-1,29
 127 391 127 391 74 444 c 128,-1,30
 21 497 21 497 21 571 c 0,31,32
 21 647 21 647 74 699.5 c 128,-1,33
 127 752 127 752 203 752 c 0,23,24
202 646 m 128,-1,35
 172 646 172 646 150.5 624.5 c 128,-1,36
 129 603 129 603 129 572 c 128,-1,37
 129 541 129 541 150.5 519.5 c 128,-1,38
 172 498 172 498 202 498 c 128,-1,39
 232 498 232 498 254 520 c 128,-1,40
 276 542 276 542 276 572 c 128,-1,41
 276 602 276 602 254 624 c 128,-1,34
 232 646 232 646 202 646 c 128,-1,35
EndSplineSet
EndChar

StartChar: ampersand
Encoding: 38 38 9
Width: 680
Flags: W
LayerCount: 2
Fore
SplineSet
511 433 m 1,0,-1
 660 433 l 1,1,-1
 532 214 l 1,2,-1
 664 73 l 1,3,-1
 569 -13 l 1,4,-1
 464 98 l 1,5,6
 417 35 417 35 376 11 c 128,-1,7
 335 -13 335 -13 276 -13 c 0,8,9
 175 -13 175 -13 105 55.5 c 128,-1,10
 35 124 35 124 35 223 c 0,11,12
 35 290 35 290 68 340 c 128,-1,13
 101 390 101 390 173 433 c 1,14,15
 137 474 137 474 124 502 c 128,-1,16
 111 530 111 530 111 569 c 0,17,18
 111 646 111 646 165 699 c 128,-1,19
 219 752 219 752 298 752 c 0,20,21
 379 752 379 752 433.5 700 c 128,-1,22
 488 648 488 648 488 570 c 0,23,24
 488 495 488 495 443 444 c 0,25,26
 423 422 423 422 372 389 c 1,27,-1
 439 314 l 1,28,-1
 511 433 l 1,0,-1
289 481 m 1,29,30
 331 504 331 504 346 521 c 128,-1,31
 361 538 361 538 361 566 c 0,32,33
 361 593 361 593 344 610 c 128,-1,34
 327 627 327 627 300 627 c 0,35,36
 274 627 274 627 256 609.5 c 128,-1,37
 238 592 238 592 238 567 c 0,38,39
 238 547 238 547 249 528 c 128,-1,40
 260 509 260 509 289 481 c 1,29,30
372 198 m 1,41,-1
 257 322 l 1,42,43
 168 282 168 282 168 215 c 0,44,45
 168 174 168 174 196.5 146.5 c 128,-1,46
 225 119 225 119 268 119 c 0,47,48
 301 119 301 119 324 136 c 128,-1,49
 347 153 347 153 372 198 c 1,41,-1
EndSplineSet
EndChar

StartChar: quotesingle
Encoding: 39 39 10
Width: 220
Flags: W
LayerCount: 2
Fore
SplineSet
150 513 m 1,0,-1
 74 513 l 1,1,-1
 74 739 l 1,2,-1
 150 739 l 1,3,-1
 150 513 l 1,0,-1
EndSplineSet
EndChar

StartChar: parenleft
Encoding: 40 40 11
Width: 380
Flags: W
LayerCount: 2
Fore
SplineSet
349 8 m 1,0,-1
 349 -137 l 1,1,2
 304 -121 304 -121 271 -99 c 128,-1,3
 238 -77 238 -77 202 -38 c 0,4,5
 141 30 141 30 107.5 118.5 c 128,-1,6
 74 207 74 207 74 300 c 0,7,8
 74 406 74 406 115 502.5 c 128,-1,9
 156 599 156 599 228 664 c 0,10,11
 279 710 279 710 349 739 c 1,12,-1
 349 595 l 1,13,14
 209 487 209 487 209 300 c 0,15,16
 209 212 209 212 248.5 130 c 128,-1,17
 288 48 288 48 349 8 c 1,0,-1
EndSplineSet
EndChar

StartChar: parenright
Encoding: 41 41 12
Width: 380
Flags: W
LayerCount: 2
Fore
SplineSet
37 594 m 1,0,-1
 37 739 l 1,1,2
 82 723 82 723 115 701 c 128,-1,3
 148 679 148 679 184 640 c 0,4,5
 245 572 245 572 278.5 483.5 c 128,-1,6
 312 395 312 395 312 302 c 0,7,8
 312 196 312 196 271 99.5 c 128,-1,9
 230 3 230 3 158 -62 c 0,10,11
 107 -108 107 -108 37 -137 c 1,12,-1
 37 7 l 1,13,14
 177 115 177 115 177 302 c 0,15,16
 177 390 177 390 137.5 472 c 128,-1,17
 98 554 98 554 37 594 c 1,0,-1
EndSplineSet
EndChar

StartChar: asterisk
Encoding: 42 42 13
Width: 440
Flags: W
LayerCount: 2
Fore
SplineSet
116 706 m 1,0,-1
 179 738 l 1,1,-1
 223 652 l 1,2,-1
 269 739 l 1,3,-1
 328 703 l 1,4,-1
 274 620 l 1,5,-1
 371 626 l 1,6,-1
 371 554 l 1,7,-1
 274 559 l 1,8,-1
 327 479 l 1,9,-1
 270 441 l 1,10,-1
 223 529 l 1,11,-1
 180 441 l 1,12,-1
 116 472 l 1,13,-1
 168 561 l 1,14,-1
 70 554 l 1,15,-1
 70 625 l 1,16,-1
 169 620 l 1,17,-1
 116 706 l 1,0,-1
EndSplineSet
EndChar

StartChar: plus
Encoding: 43 43 14
Width: 600
Flags: W
LayerCount: 2
Fore
SplineSet
243 430 m 1,0,-1
 243 625 l 1,1,-1
 363 625 l 1,2,-1
 363 430 l 1,3,-1
 555 430 l 1,4,-1
 555 312 l 1,5,-1
 363 312 l 1,6,-1
 363 117 l 1,7,-1
 243 117 l 1,8,-1
 243 312 l 1,9,-1
 51 312 l 1,10,-1
 51 430 l 1,11,-1
 243 430 l 1,0,-1
EndSplineSet
EndChar

StartChar: comma
Encoding: 44 44 15
Width: 280
Flags: W
LayerCount: 2
Fore
SplineSet
72 0 m 1,0,-1
 72 128 l 1,1,-1
 205 128 l 1,2,-1
 205 -7 l 2,3,4
 205 -89 205 -89 141 -124 c 0,5,6
 114 -140 114 -140 72 -140 c 1,7,-1
 72 -73 l 1,8,9
 104 -67 104 -67 117.5 -54 c 128,-1,10
 131 -41 131 -41 131 -17 c 0,11,12
 131 -6 131 -6 130 0 c 1,13,-1
 72 0 l 1,0,-1
EndSplineSet
EndChar

StartChar: hyphen
Encoding: 45 45 16
Width: 420
Flags: W
LayerCount: 2
Fore
SplineSet
74 229 m 1,0,-1
 74 347 l 1,1,-1
 351 347 l 1,2,-1
 351 229 l 1,3,-1
 74 229 l 1,0,-1
EndSplineSet
EndChar

StartChar: period
Encoding: 46 46 17
Width: 280
Flags: W
LayerCount: 2
Fore
SplineSet
72 0 m 1,0,-1
 72 128 l 1,1,-1
 205 128 l 1,2,-1
 205 0 l 1,3,-1
 72 0 l 1,0,-1
EndSplineSet
EndChar

StartChar: slash
Encoding: 47 47 18
Width: 460
Flags: W
LayerCount: 2
Fore
SplineSet
26 -128 m 1,0,-1
 349 739 l 1,1,-1
 443 739 l 1,2,-1
 120 -128 l 1,3,-1
 26 -128 l 1,0,-1
EndSplineSet
EndChar

StartChar: zero
Encoding: 48 48 19
Width: 560
Flags: W
LayerCount: 2
Fore
SplineSet
448 -270 m 2,0,1
 448 -326 448 -326 429.5 -344 c 128,-1,2
 411 -362 411 -362 356 -362 c 2,3,-1
 231 -362 l 2,4,5
 176 -362 176 -362 158 -344 c 128,-1,6
 140 -326 140 -326 140 -270 c 2,7,-1
 140 -245 l 2,8,9
 140 -192 140 -192 155.5 -173.5 c 128,-1,10
 171 -155 171 -155 216 -154 c 1,11,-1
 216 -131 l 1,12,-1
 288 -59 l 1,13,-1
 371 -59 l 1,14,-1
 371 -154 l 1,15,16
 416 -155 416 -155 432 -173.5 c 128,-1,17
 448 -192 448 -192 448 -245 c 2,18,-1
 448 -270 l 2,0,1
286 -128 m 1,19,-1
 286 -84 l 1,20,-1
 241 -128 l 1,21,-1
 286 -128 l 1,19,-1
355 -274 m 1,22,-1
 355 -75 l 1,23,-1
 302 -75 l 1,24,-1
 302 -144 l 1,25,-1
 232 -144 l 1,26,-1
 232 -274 l 1,27,-1
 355 -274 l 1,22,-1
432 -270 m 2,28,-1
 432 -245 l 2,29,30
 432 -199 432 -199 420 -185 c 128,-1,31
 408 -171 408 -171 371 -170 c 1,32,-1
 371 -290 l 1,33,-1
 216 -290 l 1,34,-1
 216 -170 l 1,35,36
 178 -171 178 -171 167 -185 c 128,-1,37
 156 -199 156 -199 156 -245 c 2,38,-1
 156 -270 l 2,39,40
 156 -319 156 -319 169.5 -332.5 c 128,-1,41
 183 -346 183 -346 231 -346 c 2,42,-1
 356 -346 l 2,43,44
 404 -346 404 -346 418 -332 c 128,-1,45
 432 -318 432 -318 432 -270 c 2,28,-1
525 505 m 2,46,-1
 525 247 l 2,47,48
 525 144 525 144 478 78 c 0,49,50
 413 -13 413 -13 284 -13 c 0,51,52
 148 -13 148 -13 77 81 c 0,53,54
 30 145 30 145 30 247 c 2,55,-1
 30 498 l 2,56,57
 30 615 30 615 97 683.5 c 128,-1,58
 164 752 164 752 278 752 c 0,59,60
 390 752 390 752 457.5 685 c 128,-1,61
 525 618 525 618 525 505 c 2,46,-1
163 498 m 2,62,-1
 163 251 l 2,63,64
 163 182 163 182 193 145.5 c 128,-1,65
 223 109 223 109 280 109 c 0,66,67
 340 109 340 109 368 150 c 0,68,69
 392 182 392 182 392 248 c 2,70,-1
 392 498 l 2,71,72
 392 562 392 562 362.5 596 c 128,-1,73
 333 630 333 630 279 630 c 128,-1,74
 225 630 225 630 194 594.5 c 128,-1,75
 163 559 163 559 163 498 c 2,62,-1
EndSplineSet
EndChar

StartChar: one
Encoding: 49 49 20
Width: 560
Flags: W
LayerCount: 2
Fore
SplineSet
246 0 m 1,0,-1
 246 614 l 1,1,-1
 153 614 l 1,2,-1
 153 739 l 1,3,-1
 379 739 l 1,4,-1
 379 0 l 1,5,-1
 246 0 l 1,0,-1
EndSplineSet
EndChar

StartChar: two
Encoding: 50 50 21
Width: 560
Flags: W
LayerCount: 2
Fore
SplineSet
39 0 m 1,0,-1
 39 117 l 1,1,-1
 302 366 l 2,2,3
 387 447 387 447 387 514 c 0,4,5
 387 564 387 564 356.5 597 c 128,-1,6
 326 630 326 630 280 630 c 0,7,8
 228 630 228 630 196.5 590 c 128,-1,9
 165 550 165 550 165 484 c 1,10,-1
 34 484 l 1,11,12
 34 582 34 582 73 643 c 0,13,14
 104 694 104 694 159 723 c 128,-1,15
 214 752 214 752 279 752 c 0,16,17
 382 752 382 752 451 683 c 128,-1,18
 520 614 520 614 520 512 c 0,19,20
 520 434 520 434 476 370 c 0,21,22
 448 326 448 326 377 262 c 2,23,-1
 226 125 l 1,24,-1
 517 125 l 1,25,-1
 517 0 l 1,26,-1
 39 0 l 1,0,-1
EndSplineSet
EndChar

StartChar: three
Encoding: 51 51 22
Width: 560
Flags: W
LayerCount: 2
Fore
SplineSet
218 356 m 1,0,-1
 218 484 l 1,1,2
 268 485 268 485 289 494 c 0,3,4
 332 512 332 512 332 560 c 0,5,6
 332 591 332 591 314 610.5 c 128,-1,7
 296 630 296 630 267 630 c 0,8,9
 214 630 214 630 205 563 c 1,10,-1
 70 563 l 1,11,12
 74 608 74 608 84.5 636 c 128,-1,13
 95 664 95 664 118 689 c 0,14,15
 176 752 176 752 266 752 c 0,16,17
 352 752 352 752 408.5 695 c 128,-1,18
 465 638 465 638 465 553 c 0,19,20
 465 471 465 471 403 426 c 1,21,22
 518 375 518 375 518 235 c 0,23,24
 518 128 518 128 447.5 57.5 c 128,-1,25
 377 -13 377 -13 270 -13 c 0,26,27
 164 -13 164 -13 92.5 53.5 c 128,-1,28
 21 120 21 120 15 224 c 1,29,-1
 149 224 l 1,30,31
 156 172 156 172 188.5 140.5 c 128,-1,32
 221 109 221 109 269 109 c 0,33,34
 319 109 319 109 352 144 c 128,-1,35
 385 179 385 179 385 232 c 0,36,37
 385 288 385 288 345.5 322 c 128,-1,38
 306 356 306 356 240 356 c 2,39,-1
 218 356 l 1,0,-1
EndSplineSet
EndChar

StartChar: four
Encoding: 52 52 23
Width: 560
Flags: W
LayerCount: 2
Fore
SplineSet
0 219 m 1,0,-1
 340 739 l 1,1,-1
 452 739 l 1,2,-1
 452 230 l 1,3,-1
 530 230 l 1,4,-1
 530 111 l 1,5,-1
 452 111 l 1,6,-1
 452 0 l 1,7,-1
 319 0 l 1,8,-1
 319 111 l 1,9,-1
 0 111 l 1,10,-1
 0 219 l 1,0,-1
319 230 m 1,11,-1
 319 515 l 1,12,-1
 135 230 l 1,13,-1
 319 230 l 1,11,-1
EndSplineSet
EndChar

StartChar: five
Encoding: 53 53 24
Width: 560
Flags: W
LayerCount: 2
Fore
SplineSet
46 353 m 1,0,-1
 115 739 l 1,1,-1
 449 739 l 1,2,-1
 449 614 l 1,3,-1
 215 614 l 1,4,-1
 191 478 l 1,5,6
 241 499 241 499 286 499 c 0,7,8
 387 499 387 499 453.5 427.5 c 128,-1,9
 520 356 520 356 520 247 c 0,10,11
 520 136 520 136 448 61.5 c 128,-1,12
 376 -13 376 -13 269 -13 c 0,13,14
 144 -13 144 -13 66 82 c 0,15,16
 16 143 16 143 12 221 c 1,17,-1
 145 221 l 1,18,19
 155 167 155 167 186 138 c 128,-1,20
 217 109 217 109 265 109 c 0,21,22
 319 109 319 109 353 147 c 128,-1,23
 387 185 387 185 387 245 c 0,24,25
 387 301 387 301 352.5 339 c 128,-1,26
 318 377 318 377 267 377 c 0,27,28
 209 377 209 377 164 321 c 1,29,-1
 46 353 l 1,0,-1
EndSplineSet
EndChar

StartChar: six
Encoding: 54 54 25
Width: 560
Flags: W
LayerCount: 2
Fore
SplineSet
287 739 m 1,0,-1
 446 739 l 1,1,-1
 269 476 l 1,2,3
 299 486 299 486 329 486 c 0,4,5
 417 486 417 486 475 419.5 c 128,-1,6
 533 353 533 353 533 252 c 0,7,8
 533 137 533 137 461.5 62 c 128,-1,9
 390 -13 390 -13 280 -13 c 0,10,11
 168 -13 168 -13 94.5 59.5 c 128,-1,12
 21 132 21 132 21 242 c 0,13,14
 21 295 21 295 37.5 342 c 128,-1,15
 54 389 54 389 94 449 c 2,16,-1
 287 739 l 1,0,-1
278 370 m 0,17,18
 223 370 223 370 188.5 334 c 128,-1,19
 154 298 154 298 154 239 c 0,20,21
 154 182 154 182 189.5 145.5 c 128,-1,22
 225 109 225 109 280 109 c 0,23,24
 333 109 333 109 366.5 145 c 128,-1,25
 400 181 400 181 400 239 c 0,26,27
 400 296 400 296 365.5 333 c 128,-1,28
 331 370 331 370 278 370 c 0,17,18
EndSplineSet
EndChar

StartChar: seven
Encoding: 55 55 26
Width: 560
Flags: W
LayerCount: 2
Fore
SplineSet
80 0 m 1,0,-1
 360 614 l 1,1,-1
 65 614 l 1,2,-1
 65 739 l 1,3,-1
 500 739 l 1,4,-1
 500 614 l 1,5,-1
 230 0 l 1,6,-1
 80 0 l 1,0,-1
EndSplineSet
EndChar

StartChar: eight
Encoding: 56 56 27
Width: 560
Flags: W
LayerCount: 2
Fore
SplineSet
137 411 m 1,0,1
 103 448 103 448 89.5 478 c 128,-1,2
 76 508 76 508 76 549 c 0,3,4
 76 634 76 634 135 693 c 128,-1,5
 194 752 194 752 279 752 c 0,6,7
 366 752 366 752 423.5 694.5 c 128,-1,8
 481 637 481 637 481 551 c 0,9,10
 481 461 481 461 419 411 c 1,11,12
 460 386 460 386 478 366 c 0,13,14
 523 313 523 313 523 232 c 0,15,16
 523 127 523 127 453 57 c 128,-1,17
 383 -13 383 -13 278 -13 c 0,18,19
 174 -13 174 -13 102.5 57.5 c 128,-1,20
 31 128 31 128 31 231 c 0,21,22
 31 309 31 309 73 360 c 0,23,24
 93 386 93 386 137 411 c 1,0,1
280 630 m 0,25,26
 247 630 247 630 225 607 c 128,-1,27
 203 584 203 584 203 549 c 0,28,29
 203 516 203 516 225.5 492.5 c 128,-1,30
 248 469 248 469 279 469 c 128,-1,31
 310 469 310 469 332 492.5 c 128,-1,32
 354 516 354 516 354 550 c 128,-1,33
 354 584 354 584 332.5 607 c 128,-1,34
 311 630 311 630 280 630 c 0,25,26
279 341 m 0,35,36
 231 341 231 341 197.5 308 c 128,-1,37
 164 275 164 275 164 226 c 0,38,39
 164 176 164 176 197 142.5 c 128,-1,40
 230 109 230 109 279 109 c 0,41,42
 326 109 326 109 358 142.5 c 128,-1,43
 390 176 390 176 390 225 c 0,44,45
 390 273 390 273 357.5 307 c 128,-1,46
 325 341 325 341 279 341 c 0,35,36
EndSplineSet
EndChar

StartChar: nine
Encoding: 57 57 28
Width: 560
Flags: W
LayerCount: 2
Fore
SplineSet
6912 -1536 m 128,-1,1
 6896 -1536 6896 -1536 6885.5 -1547 c 128,-1,2
 6875 -1558 6875 -1558 6875 -1573.5 c 128,-1,3
 6875 -1589 6875 -1589 6885.5 -1599.5 c 128,-1,4
 6896 -1610 6896 -1610 6912 -1610 c 128,-1,5
 6928 -1610 6928 -1610 6938.5 -1599.5 c 128,-1,6
 6949 -1589 6949 -1589 6949 -1573.5 c 128,-1,7
 6949 -1558 6949 -1558 6938.5 -1547 c 128,-1,0
 6928 -1536 6928 -1536 6912 -1536 c 128,-1,1
6912 -1511 m 0,8,9
 6925 -1511 6925 -1511 6936.5 -1515.5 c 128,-1,10
 6948 -1520 6948 -1520 6956 -1529 c 0,11,12
 6965 -1538 6965 -1538 6969.5 -1549 c 128,-1,13
 6974 -1560 6974 -1560 6974 -1573 c 0,14,15
 6974 -1599 6974 -1599 6956 -1617 c 128,-1,16
 6938 -1635 6938 -1635 6911.5 -1635 c 128,-1,17
 6885 -1635 6885 -1635 6867.5 -1617.5 c 128,-1,18
 6850 -1600 6850 -1600 6850 -1573 c 0,19,20
 6850 -1547 6850 -1547 6868 -1529 c 128,-1,21
 6886 -1511 6886 -1511 6912 -1511 c 0,8,9
6912 -1471 m 128,-1,23
 6891 -1471 6891 -1471 6873 -1478 c 0,24,25
 6855 -1486 6855 -1486 6840 -1501 c 256,26,27
 6825 -1516 6825 -1516 6817.5 -1534 c 128,-1,28
 6810 -1552 6810 -1552 6810 -1573 c 256,29,30
 6810 -1594 6810 -1594 6817.5 -1612 c 128,-1,31
 6825 -1630 6825 -1630 6840 -1645 c 256,32,33
 6855 -1660 6855 -1660 6873 -1667.5 c 128,-1,34
 6891 -1675 6891 -1675 6912 -1675 c 128,-1,35
 6933 -1675 6933 -1675 6951 -1667.5 c 128,-1,36
 6969 -1660 6969 -1660 6984 -1645 c 256,37,38
 6999 -1630 6999 -1630 7006.5 -1612 c 128,-1,39
 7014 -1594 7014 -1594 7014 -1573 c 256,40,41
 7014 -1552 7014 -1552 7006.5 -1534 c 128,-1,42
 6999 -1516 6999 -1516 6984 -1501 c 256,43,44
 6969 -1486 6969 -1486 6951 -1478 c 0,45,22
 6933 -1471 6933 -1471 6912 -1471 c 128,-1,23
6912 -1442 m 128,-1,47
 6939 -1442 6939 -1442 6962.5 -1451.5 c 128,-1,48
 6986 -1461 6986 -1461 7005 -1480.5 c 128,-1,49
 7024 -1500 7024 -1500 7033.5 -1523 c 128,-1,50
 7043 -1546 7043 -1546 7043 -1573 c 256,51,52
 7043 -1600 7043 -1600 7033.5 -1623 c 128,-1,53
 7024 -1646 7024 -1646 7005 -1665.5 c 128,-1,54
 6986 -1685 6986 -1685 6962.5 -1694.5 c 128,-1,55
 6939 -1704 6939 -1704 6912 -1704 c 128,-1,56
 6885 -1704 6885 -1704 6862 -1694.5 c 128,-1,57
 6839 -1685 6839 -1685 6819.5 -1665.5 c 128,-1,58
 6800 -1646 6800 -1646 6790.5 -1623 c 128,-1,59
 6781 -1600 6781 -1600 6781 -1573 c 256,60,61
 6781 -1546 6781 -1546 6790.5 -1523 c 128,-1,62
 6800 -1500 6800 -1500 6819.5 -1480.5 c 128,-1,63
 6839 -1461 6839 -1461 6862 -1451.5 c 128,-1,46
 6885 -1442 6885 -1442 6912 -1442 c 128,-1,47
2932.5 1125 m 128,-1,65
 2917 1125 2917 1125 2906.5 1114.5 c 128,-1,66
 2896 1104 2896 1104 2896 1088 c 128,-1,67
 2896 1072 2896 1072 2906.5 1061.5 c 128,-1,68
 2917 1051 2917 1051 2932.5 1051 c 128,-1,69
 2948 1051 2948 1051 2959 1061.5 c 128,-1,70
 2970 1072 2970 1072 2970 1087.5 c 128,-1,71
 2970 1103 2970 1103 2959 1114 c 128,-1,64
 2948 1125 2948 1125 2932.5 1125 c 128,-1,65
2933 1150 m 0,72,73
 2946 1150 2946 1150 2957 1145.5 c 128,-1,74
 2968 1141 2968 1141 2977 1132 c 256,75,76
 2986 1123 2986 1123 2990.5 1112 c 128,-1,77
 2995 1101 2995 1101 2995 1088 c 0,78,79
 2995 1062 2995 1062 2977 1044 c 128,-1,80
 2959 1026 2959 1026 2932.5 1026 c 128,-1,81
 2906 1026 2906 1026 2888.5 1044 c 128,-1,82
 2871 1062 2871 1062 2871 1088 c 256,83,84
 2871 1114 2871 1114 2889 1132 c 128,-1,85
 2907 1150 2907 1150 2933 1150 c 0,72,73
2933 1190 m 128,-1,87
 2912 1190 2912 1190 2894 1183 c 0,88,89
 2876 1175 2876 1175 2861 1160 c 256,90,91
 2846 1145 2846 1145 2838.5 1127 c 128,-1,92
 2831 1109 2831 1109 2831 1088 c 256,93,94
 2831 1067 2831 1067 2838.5 1049 c 128,-1,95
 2846 1031 2846 1031 2861 1016 c 256,96,97
 2876 1001 2876 1001 2894 993.5 c 128,-1,98
 2912 986 2912 986 2933 986 c 128,-1,99
 2954 986 2954 986 2972 993.5 c 128,-1,100
 2990 1001 2990 1001 3005 1016 c 256,101,102
 3020 1031 3020 1031 3027.5 1049 c 128,-1,103
 3035 1067 3035 1067 3035 1088 c 256,104,105
 3035 1109 3035 1109 3027.5 1127 c 128,-1,106
 3020 1145 3020 1145 3005 1160 c 256,107,108
 2990 1175 2990 1175 2972 1183 c 0,109,86
 2954 1190 2954 1190 2933 1190 c 128,-1,87
2933 1220 m 128,-1,111
 2960 1220 2960 1220 2983 1210 c 128,-1,112
 3006 1200 3006 1200 3025.5 1181 c 128,-1,113
 3045 1162 3045 1162 3054.5 1138.5 c 128,-1,114
 3064 1115 3064 1115 3064 1088 c 256,115,116
 3064 1061 3064 1061 3054.5 1038 c 128,-1,117
 3045 1015 3045 1015 3025.5 995.5 c 128,-1,118
 3006 976 3006 976 2983 966.5 c 128,-1,119
 2960 957 2960 957 2933 957 c 128,-1,120
 2906 957 2906 957 2883 966.5 c 128,-1,121
 2860 976 2860 976 2840.5 995.5 c 128,-1,122
 2821 1015 2821 1015 2811.5 1038 c 128,-1,123
 2802 1061 2802 1061 2802 1088 c 256,124,125
 2802 1115 2802 1115 2811.5 1138.5 c 128,-1,126
 2821 1162 2821 1162 2840.5 1181 c 128,-1,127
 2860 1200 2860 1200 2883 1210 c 128,-1,110
 2906 1220 2906 1220 2933 1220 c 128,-1,111
1492 -150 m 1,128,-1
 1188 -150 l 1,129,-1
 1188 0 l 1,130,-1
 1492 0 l 1,131,-1
 1492 -150 l 1,128,-1
1188 -150 m 1,132,-1
 884 -150 l 1,133,-1
 884 -100 l 1,134,-1
 1188 -100 l 1,135,-1
 1188 -150 l 1,132,-1
266 0 m 1,136,-1
 107 0 l 1,137,-1
 285 263 l 1,138,139
 253 251 253 251 225 251 c 0,140,141
 139 251 139 251 80.5 319 c 128,-1,142
 22 387 22 387 22 487 c 0,143,144
 22 603 22 603 93 677.5 c 128,-1,145
 164 752 164 752 273 752 c 0,146,147
 385 752 385 752 458.5 679 c 128,-1,148
 532 606 532 606 532 496 c 0,149,150
 532 399 532 399 459 290 c 2,151,-1
 266 0 l 1,136,-1
273 630 m 0,152,153
 221 630 221 630 188 593.5 c 128,-1,154
 155 557 155 557 155 500 c 128,-1,155
 155 443 155 443 189 406 c 128,-1,156
 223 369 223 369 276 369 c 0,157,158
 331 369 331 369 365 405.5 c 128,-1,159
 399 442 399 442 399 500 c 0,160,161
 399 557 399 557 363.5 593.5 c 128,-1,162
 328 630 328 630 273 630 c 0,152,153
EndSplineSet
EndChar

StartChar: colon
Encoding: 58 58 29
Width: 280
Flags: W
LayerCount: 2
Fore
SplineSet
72 0 m 1,0,-1
 72 128 l 1,1,-1
 205 128 l 1,2,-1
 205 0 l 1,3,-1
 72 0 l 1,0,-1
72 369 m 1,4,-1
 72 502 l 1,5,-1
 205 502 l 1,6,-1
 205 369 l 1,7,-1
 72 369 l 1,4,-1
EndSplineSet
EndChar

StartChar: semicolon
Encoding: 59 59 30
Width: 280
Flags: W
LayerCount: 2
Fore
SplineSet
72 0 m 1,0,-1
 72 128 l 1,1,-1
 205 128 l 1,2,-1
 205 -7 l 2,3,4
 205 -74 205 -74 162 -110 c 0,5,6
 128 -140 128 -140 72 -140 c 1,7,-1
 72 -73 l 1,8,9
 104 -67 104 -67 117.5 -54 c 128,-1,10
 131 -41 131 -41 131 -17 c 2,11,-1
 131 0 l 1,12,-1
 72 0 l 1,0,-1
72 369 m 1,13,-1
 72 502 l 1,14,-1
 205 502 l 1,15,-1
 205 369 l 1,16,-1
 72 369 l 1,13,-1
EndSplineSet
EndChar

StartChar: less
Encoding: 60 60 31
Width: 600
Flags: W
LayerCount: 2
Fore
SplineSet
558 582 m 1,0,-1
 558 465 l 1,1,-1
 217 308 l 1,2,-1
 558 149 l 1,3,-1
 558 33 l 1,4,-1
 49 258 l 1,5,-1
 49 356 l 1,6,-1
 558 582 l 1,0,-1
EndSplineSet
EndChar

StartChar: equal
Encoding: 61 61 32
Width: 600
Flags: W
LayerCount: 2
Fore
SplineSet
555 523 m 1,0,-1
 555 405 l 1,1,-1
 51 405 l 1,2,-1
 51 523 l 1,3,-1
 555 523 l 1,0,-1
555 328 m 1,4,-1
 555 210 l 1,5,-1
 51 210 l 1,6,-1
 51 328 l 1,7,-1
 555 328 l 1,4,-1
EndSplineSet
EndChar

StartChar: greater
Encoding: 62 62 33
Width: 600
Flags: W
LayerCount: 2
Fore
SplineSet
48 33 m 1,0,-1
 48 149 l 1,1,-1
 390 306 l 1,2,-1
 48 465 l 1,3,-1
 48 582 l 1,4,-1
 557 356 l 1,5,-1
 557 258 l 1,6,-1
 48 33 l 1,0,-1
EndSplineSet
EndChar

StartChar: question
Encoding: 63 63 34
Width: 560
Flags: W
LayerCount: 2
Fore
SplineSet
318 187 m 1,0,-1
 185 187 l 1,1,2
 184 280 184 280 208.5 330.5 c 128,-1,3
 233 381 233 381 307 442 c 0,4,5
 352 481 352 481 352 527 c 0,6,7
 352 567 352 567 325 593.5 c 128,-1,8
 298 620 298 620 257 620 c 0,9,10
 178 620 178 620 165 520 c 1,11,-1
 32 520 l 1,12,13
 39 613 39 613 80 665 c 0,14,15
 111 706 111 706 159 729 c 128,-1,16
 207 752 207 752 260 752 c 0,17,18
 356 752 356 752 420.5 686.5 c 128,-1,19
 485 621 485 621 485 523 c 0,20,21
 485 473 485 473 463 434 c 128,-1,22
 441 395 441 395 383 344 c 0,23,24
 342 309 342 309 330.5 281 c 128,-1,25
 319 253 319 253 318 187 c 1,0,-1
185 0 m 1,26,-1
 185 128 l 1,27,-1
 318 128 l 1,28,-1
 318 0 l 1,29,-1
 185 0 l 1,26,-1
EndSplineSet
EndChar

StartChar: at
Encoding: 64 64 35
Width: 740
Flags: W
LayerCount: 2
Fore
SplineSet
580 573 m 1,0,-1
 547 278 l 2,1,2
 546 273 546 273 546 263 c 0,3,4
 546 237 546 237 573 237 c 0,5,6
 613 237 613 237 642.5 289.5 c 128,-1,7
 672 342 672 342 672 413 c 0,8,9
 672 538 672 538 594 616 c 128,-1,10
 516 694 516 694 390 694 c 0,11,12
 254 694 254 694 164 603 c 128,-1,13
 74 512 74 512 74 374 c 0,14,15
 74 307 74 307 100.5 245 c 128,-1,16
 127 183 127 183 175 139 c 0,17,18
 262 60 262 60 401 60 c 0,19,20
 487 60 487 60 550 107 c 1,21,-1
 596 47 l 1,22,23
 519 -13 519 -13 399 -13 c 0,24,25
 207 -13 207 -13 96 119 c 0,26,27
 3 226 3 226 3 377 c 0,28,29
 3 543 3 543 113.5 654.5 c 128,-1,30
 224 766 224 766 388 766 c 0,31,32
 494 766 494 766 580 716 c 128,-1,33
 666 666 666 666 708 581 c 0,34,35
 745 505 745 505 745 397 c 0,36,37
 745 282 745 282 679 213 c 0,38,39
 618 154 618 154 534 154 c 0,40,41
 454 154 454 154 435 208 c 1,42,43
 399 154 399 154 322 154 c 0,44,45
 247 154 247 154 202 205.5 c 128,-1,46
 157 257 157 257 157 345 c 0,47,48
 157 444 157 444 215 510.5 c 128,-1,49
 273 577 273 577 359 577 c 0,50,51
 400 577 400 577 426 564 c 128,-1,52
 452 551 452 551 477 519 c 1,53,-1
 484 573 l 1,54,-1
 580 573 l 1,0,-1
379 465 m 0,55,56
 337 465 337 465 307 433 c 128,-1,57
 277 401 277 401 277 355 c 0,58,59
 277 311 277 311 298 285.5 c 128,-1,60
 319 260 319 260 355 260 c 0,61,62
 399 260 399 260 427 292 c 128,-1,63
 455 324 455 324 455 374 c 0,64,65
 455 416 455 416 434.5 440.5 c 128,-1,66
 414 465 414 465 379 465 c 0,55,56
EndSplineSet
EndChar

StartChar: A
Encoding: 65 65 36
Width: 740
Flags: W
LayerCount: 2
Fore
SplineSet
2196 1154 m 1,0,-1
 1964 1154 l 1,1,-1
 1964 1230 l 1,2,-1
 2196 1230 l 1,3,-1
 2196 1154 l 1,0,-1
2196 1271 m 1,4,-1
 1964 1271 l 1,5,-1
 2080 1400 l 1,6,-1
 2196 1271 l 1,4,-1
3564 -307 m 0,7,8
 3558 -307 3558 -307 3553.5 -314.5 c 128,-1,9
 3549 -322 3549 -322 3549 -330 c 256,10,11
 3549 -338 3549 -338 3556 -338 c 2,12,-1
 3557 -338 l 2,13,14
 3562 -338 3562 -338 3566.5 -331 c 128,-1,15
 3571 -324 3571 -324 3571 -316 c 0,16,17
 3571 -307 3571 -307 3564 -307 c 0,7,8
3552 -400 m 0,18,19
 3571 -400 3571 -400 3586 -390.5 c 128,-1,20
 3601 -381 3601 -381 3614.5 -362 c 128,-1,21
 3628 -343 3628 -343 3644 -315 c 2,22,-1
 3680 -250 l 1,23,-1
 3684 -250 l 1,24,-1
 3680 -350 l 1,25,-1
 3720 -266 l 1,26,-1
 3723 -266 l 1,27,-1
 3722 -346 l 1,28,-1
 3761 -275 l 1,29,-1
 3762 -339 l 1,30,-1
 3791 -289 l 1,31,-1
 3798 -323 l 2,32,33
 3802 -341 3802 -341 3812 -341 c 0,34,35
 3818 -341 3818 -341 3824 -336 c 2,36,-1
 3840 -323 l 1,37,-1
 3849 -329 l 1,38,39
 3845 -332 3845 -332 3838 -338 c 128,-1,40
 3831 -344 3831 -344 3828.5 -346 c 128,-1,41
 3826 -348 3826 -348 3820 -350 c 128,-1,42
 3814 -352 3814 -352 3807 -353 c 1,43,44
 3797 -353 3797 -353 3793.5 -346.5 c 128,-1,45
 3790 -340 3790 -340 3785 -319 c 1,46,-1
 3754 -373 l 1,47,-1
 3752 -311 l 1,48,-1
 3712 -386 l 1,49,-1
 3712 -306 l 1,50,-1
 3671 -393 l 1,51,-1
 3668 -393 l 1,52,-1
 3671 -289 l 1,53,-1
 3646 -333 l 1,54,-1
 3625 -367 l 1,55,-1
 3602 -393 l 1,56,-1
 3578 -407 l 1,57,-1
 3548 -412 l 1,58,59
 3520 -412 3520 -412 3507.5 -394 c 128,-1,60
 3495 -376 3495 -376 3495 -352.5 c 128,-1,61
 3495 -329 3495 -329 3506.5 -302 c 128,-1,62
 3518 -275 3518 -275 3540 -254.5 c 128,-1,63
 3562 -234 3562 -234 3588 -234 c 0,64,65
 3608 -234 3608 -234 3619 -245 c 128,-1,66
 3630 -256 3630 -256 3630 -276 c 0,67,68
 3630 -304 3630 -304 3610.5 -333 c 128,-1,69
 3591 -362 3591 -362 3564 -363 c 0,70,71
 3550 -363 3550 -363 3544 -353 c 128,-1,72
 3538 -343 3538 -343 3538 -332 c 0,73,74
 3538 -317 3538 -317 3548 -306.5 c 128,-1,75
 3558 -296 3558 -296 3568 -296 c 0,76,77
 3582 -296 3582 -296 3582 -315 c 0,78,79
 3582 -327 3582 -327 3573 -337 c 128,-1,80
 3564 -347 3564 -347 3556 -347 c 2,81,-1
 3555 -347 l 1,82,83
 3560 -351 3560 -351 3568 -351 c 0,84,85
 3586 -351 3586 -351 3602 -326.5 c 128,-1,86
 3618 -302 3618 -302 3618 -280 c 0,87,88
 3618 -264 3618 -264 3609.5 -255 c 128,-1,89
 3601 -246 3601 -246 3585 -246 c 0,90,91
 3556 -246 3556 -246 3532 -280 c 128,-1,92
 3508 -314 3508 -314 3508 -348 c 0,93,94
 3508 -360 3508 -360 3511 -371 c 128,-1,95
 3514 -382 3514 -382 3525 -391 c 128,-1,96
 3536 -400 3536 -400 3552 -400 c 0,18,19
3152 -112 m 1,97,-1
 3124 -112 l 1,98,-1
 3000 184 l 1,99,-1
 3028 184 l 1,100,-1
 3152 -112 l 1,97,-1
924 -146 m 1,101,-1
 896 -146 l 1,102,-1
 772 150 l 1,103,-1
 800 150 l 1,104,-1
 924 -146 l 1,101,-1
740 -580 m 1,105,-1
 712 -580 l 1,106,-1
 588 -284 l 1,107,-1
 616 -284 l 1,108,-1
 740 -580 l 1,105,-1
8320 630 m 1,109,-1
 8292 630 l 1,110,-1
 8168 926 l 1,111,-1
 8196 926 l 1,112,-1
 8320 630 l 1,109,-1
290 322 m 1,113,-1
 448 322 l 1,114,-1
 369 546 l 1,115,-1
 290 322 l 1,113,-1
126 286 m 1,116,-1
 315 739 l 1,117,-1
 423 739 l 1,118,-1
 733 0 l 1,119,-1
 582 0 l 1,120,-1
 503 191 l 1,121,-1
 240 191 l 1,122,-1
 158 0 l 1,123,-1
 7 0 l 1,124,-1
 112 252 l 1,125,-1
 0 520 l 1,126,-1
 28 520 l 1,127,-1
 126 286 l 1,116,-1
EndSplineSet
EndChar

StartChar: B
Encoding: 66 66 37
Width: 580
Flags: W
LayerCount: 2
Fore
SplineSet
68 0 m 1,0,-1
 68 739 l 1,1,-1
 220 739 l 2,2,3
 303 739 303 739 345 731.5 c 128,-1,4
 387 724 387 724 420 703 c 0,5,6
 504 649 504 649 504 542 c 0,7,8
 504 490 504 490 485 458 c 128,-1,9
 466 426 466 426 422 403 c 1,10,11
 485 377 485 377 512 341 c 0,12,13
 548 294 548 294 548 220 c 0,14,15
 548 163 548 163 523 116 c 128,-1,16
 498 69 498 69 452 41 c 0,17,18
 386 0 386 0 265 0 c 2,19,-1
 68 0 l 1,0,-1
205 131 m 1,20,-1
 273 131 l 2,21,22
 345 131 345 131 377.5 153 c 128,-1,23
 410 175 410 175 410 223 c 0,24,25
 410 320 410 320 270 320 c 2,26,-1
 205 320 l 1,27,-1
 205 131 l 1,20,-1
205 454 m 1,28,-1
 249 454 l 2,29,30
 311 454 311 454 339 472 c 128,-1,31
 367 490 367 490 367 530 c 0,32,33
 367 605 367 605 261 605 c 2,34,-1
 205 605 l 1,35,-1
 205 454 l 1,28,-1
EndSplineSet
EndChar

StartChar: C
Encoding: 67 67 38
Width: 780
Flags: W
LayerCount: 2
Fore
SplineSet
8118 -891 m 1,0,-1
 8093 -891 l 1,1,-1
 8093 -916 l 1,2,-1
 8043 -916 l 1,3,-1
 8043 -891 l 1,4,-1
 8093 -891 l 1,5,-1
 8093 -866 l 1,6,-1
 8118 -866 l 1,7,-1
 8118 -891 l 1,0,-1
8043 -841 m 1,8,-1
 8018 -841 l 1,9,-1
 8018 -816 l 1,10,-1
 8043 -816 l 1,11,-1
 8043 -841 l 1,8,-1
8118 -841 m 1,12,-1
 8093 -841 l 1,13,-1
 8093 -816 l 1,14,-1
 8118 -816 l 1,15,-1
 8118 -841 l 1,12,-1
8018 -941 m 1,16,-1
 8118 -941 l 1,17,-1
 8118 -966 l 1,18,-1
 8018 -966 l 1,19,-1
 8018 -941 l 1,16,-1
8018 -941 m 1,20,-1
 7993 -941 l 1,21,-1
 7993 -916 l 1,22,-1
 8018 -916 l 1,23,-1
 8018 -941 l 1,20,-1
8118 -941 m 1,24,-1
 8118 -916 l 1,25,-1
 8143 -916 l 1,26,-1
 8143 -941 l 1,27,-1
 8118 -941 l 1,24,-1
7993 -916 m 1,28,-1
 7968 -916 l 1,29,-1
 7968 -891 l 1,30,-1
 7968 -866 l 1,31,-1
 7968 -841 l 1,32,-1
 7968 -816 l 1,33,-1
 7968 -791 l 1,34,-1
 7993 -791 l 1,35,-1
 7993 -816 l 1,36,-1
 7993 -841 l 1,37,-1
 7993 -866 l 1,38,-1
 7993 -891 l 1,39,-1
 7993 -916 l 1,28,-1
8143 -916 m 1,40,-1
 8143 -891 l 1,41,-1
 8143 -866 l 1,42,-1
 8143 -841 l 1,43,-1
 8143 -816 l 1,44,-1
 8143 -791 l 1,45,-1
 8168 -791 l 1,46,-1
 8168 -816 l 1,47,-1
 8168 -841 l 1,48,-1
 8168 -866 l 1,49,-1
 8168 -891 l 1,50,-1
 8168 -916 l 1,51,-1
 8143 -916 l 1,40,-1
8043 -891 m 1,52,-1
 8018 -891 l 1,53,-1
 8018 -866 l 1,54,-1
 8043 -866 l 1,55,-1
 8043 -891 l 1,52,-1
7993 -791 m 1,56,-1
 7993 -766 l 1,57,-1
 8018 -766 l 1,58,-1
 8018 -791 l 1,59,-1
 7993 -791 l 1,56,-1
8143 -791 m 1,60,-1
 8118 -791 l 1,61,-1
 8118 -766 l 1,62,-1
 8143 -766 l 1,63,-1
 8143 -791 l 1,60,-1
8018 -766 m 1,64,-1
 8018 -741 l 1,65,-1
 8118 -741 l 1,66,-1
 8118 -766 l 1,67,-1
 8018 -766 l 1,64,-1
1804 753 m 1,68,-1
 1779 753 l 1,69,-1
 1779 728 l 1,70,-1
 1729 728 l 1,71,-1
 1729 753 l 1,72,-1
 1779 753 l 1,73,-1
 1779 778 l 1,74,-1
 1804 778 l 1,75,-1
 1804 753 l 1,68,-1
1729 803 m 1,76,-1
 1704 803 l 1,77,-1
 1704 828 l 1,78,-1
 1729 828 l 1,79,-1
 1729 803 l 1,76,-1
1804 803 m 1,80,-1
 1779 803 l 1,81,-1
 1779 828 l 1,82,-1
 1804 828 l 1,83,-1
 1804 803 l 1,80,-1
1704 703 m 1,84,-1
 1804 703 l 1,85,-1
 1804 678 l 1,86,-1
 1704 678 l 1,87,-1
 1704 703 l 1,84,-1
1704 703 m 1,88,-1
 1679 703 l 1,89,-1
 1679 728 l 1,90,-1
 1704 728 l 1,91,-1
 1704 703 l 1,88,-1
1804 703 m 1,92,-1
 1804 728 l 1,93,-1
 1829 728 l 1,94,-1
 1829 703 l 1,95,-1
 1804 703 l 1,92,-1
1679 728 m 1,96,-1
 1654 728 l 1,97,-1
 1654 753 l 1,98,-1
 1654 778 l 1,99,-1
 1654 803 l 1,100,-1
 1654 828 l 1,101,-1
 1654 853 l 1,102,-1
 1679 853 l 1,103,-1
 1679 828 l 1,104,-1
 1679 803 l 1,105,-1
 1679 778 l 1,106,-1
 1679 753 l 1,107,-1
 1679 728 l 1,96,-1
1829 728 m 1,108,-1
 1829 753 l 1,109,-1
 1829 778 l 1,110,-1
 1829 803 l 1,111,-1
 1829 828 l 1,112,-1
 1829 853 l 1,113,-1
 1854 853 l 1,114,-1
 1854 828 l 1,115,-1
 1854 803 l 1,116,-1
 1854 778 l 1,117,-1
 1854 753 l 1,118,-1
 1854 728 l 1,119,-1
 1829 728 l 1,108,-1
1729 753 m 1,120,-1
 1704 753 l 1,121,-1
 1704 778 l 1,122,-1
 1729 778 l 1,123,-1
 1729 753 l 1,120,-1
1679 853 m 1,124,-1
 1679 878 l 1,125,-1
 1704 878 l 1,126,-1
 1704 853 l 1,127,-1
 1679 853 l 1,124,-1
1829 853 m 1,128,-1
 1804 853 l 1,129,-1
 1804 878 l 1,130,-1
 1829 878 l 1,131,-1
 1829 853 l 1,128,-1
1704 878 m 1,132,-1
 1704 903 l 1,133,-1
 1804 903 l 1,134,-1
 1804 878 l 1,135,-1
 1704 878 l 1,132,-1
4528 162 m 1,136,-1
 4508 92 l 1,137,-1
 4578 110 l 1,138,-1
 4528 58 l 1,139,-1
 4597 38 l 1,140,-1
 4528 16 l 1,141,-1
 4578 -36 l 1,142,-1
 4508 -18 l 1,143,-1
 4528 -88 l 1,144,-1
 4472 -36 l 1,145,-1
 4452 -107 l 1,146,-1
 4434 -36 l 1,147,-1
 4381 -88 l 1,148,-1
 4399 -18 l 1,149,-1
 4329 -36 l 1,150,-1
 4381 16 l 1,151,-1
 4308 38 l 1,152,-1
 4381 58 l 1,153,-1
 4329 110 l 1,154,-1
 4399 92 l 1,155,-1
 4381 162 l 1,156,-1
 4434 110 l 1,157,-1
 4452 181 l 1,158,-1
 4472 110 l 1,159,-1
 4528 162 l 1,136,-1
599 206 m 1,160,-1
 760 206 l 1,161,162
 717 105 717 105 624.5 46 c 128,-1,163
 532 -13 532 -13 419 -13 c 0,164,165
 257 -13 257 -13 143.5 99.5 c 128,-1,166
 30 212 30 212 30 372 c 0,167,168
 30 452 30 452 62 523.5 c 128,-1,169
 94 595 94 595 150 649 c 1,170,-1
 57 771 l 2,171,172
 46 786 46 786 41.5 801.5 c 128,-1,173
 37 817 37 817 38 830.5 c 128,-1,174
 39 844 39 844 44.5 856 c 128,-1,175
 50 868 50 868 59 876.5 c 128,-1,176
 68 885 68 885 80 890 c 128,-1,177
 92 895 92 895 106 895 c 0,178,179
 122 895 122 895 135.5 890 c 128,-1,180
 149 885 149 885 156.5 876.5 c 128,-1,181
 164 868 164 868 170 858 c 128,-1,182
 176 848 176 848 178 838 c 128,-1,183
 180 828 180 828 181 820 c 128,-1,184
 182 812 182 812 182 806 c 2,185,-1
 182 802 l 1,186,-1
 182 676 l 1,187,188
 190 682 190 682 198 687 c 1,189,-1
 198 802 l 1,190,-1
 198 806 l 2,191,192
 198 812 198 812 199.5 820 c 128,-1,193
 201 828 201 828 203 838 c 128,-1,194
 205 848 205 848 210.5 858 c 128,-1,195
 216 868 216 868 224 876.5 c 128,-1,196
 232 885 232 885 245 890 c 128,-1,197
 258 895 258 895 274 895 c 0,198,199
 288 895 288 895 300.5 890 c 128,-1,200
 313 885 313 885 322 876.5 c 128,-1,201
 331 868 331 868 336.5 856 c 128,-1,202
 342 844 342 844 343 830.5 c 128,-1,203
 344 817 344 817 339 801.5 c 128,-1,204
 334 786 334 786 323 771 c 2,205,-1
 295 734 l 1,206,207
 351 752 351 752 410 752 c 0,208,209
 550 752 550 752 655 667 c 0,210,211
 692 636 692 636 715 605.5 c 128,-1,212
 738 575 738 575 760 527 c 1,213,-1
 607 527 l 1,214,215
 569 576 569 576 523 598 c 128,-1,216
 477 620 477 620 413 620 c 0,217,218
 298 620 298 620 229 539 c 0,219,220
 168 468 168 468 168 371 c 0,221,222
 168 267 168 267 241 193 c 128,-1,223
 314 119 314 119 416 119 c 0,224,225
 470 119 470 119 512 139 c 128,-1,226
 554 159 554 159 599 206 c 1,160,-1
EndSplineSet
EndChar

StartChar: D
Encoding: 68 68 39
Width: 700
Flags: W
LayerCount: 2
Fore
SplineSet
68 0 m 1,0,-1
 68 739 l 1,1,-1
 237 739 l 2,2,3
 411 739 411 739 499 686 c 0,4,5
 576 640 576 640 618 556.5 c 128,-1,6
 660 473 660 473 660 368 c 0,7,8
 660 256 660 256 612 169.5 c 128,-1,9
 564 83 564 83 479 41 c 0,10,11
 397 0 397 0 240 0 c 2,12,-1
 68 0 l 1,0,-1
205 131 m 1,13,-1
 235 131 l 2,14,15
 356 131 356 131 415 164 c 0,16,17
 464 191 464 191 493 246 c 128,-1,18
 522 301 522 301 522 368 c 0,19,20
 522 439 522 439 492 495 c 128,-1,21
 462 551 462 551 409 578 c 0,22,23
 350 608 350 608 232 608 c 2,24,-1
 205 608 l 1,25,-1
 205 131 l 1,13,-1
EndSplineSet
EndChar

StartChar: E
Encoding: 69 69 40
Width: 520
Flags: W
LayerCount: 2
Fore
SplineSet
68 0 m 1,0,-1
 68 739 l 1,1,-1
 465 739 l 1,2,-1
 465 608 l 1,3,-1
 205 608 l 1,4,-1
 205 434 l 1,5,-1
 454 434 l 1,6,-1
 454 303 l 1,7,-1
 205 303 l 1,8,-1
 205 131 l 1,9,-1
 465 131 l 1,10,-1
 465 0 l 1,11,-1
 68 0 l 1,0,-1
EndSplineSet
EndChar

StartChar: F
Encoding: 70 70 41
Width: 480
Flags: W
LayerCount: 2
Fore
SplineSet
68 0 m 1,0,-1
 68 739 l 1,1,-1
 444 739 l 1,2,-1
 444 608 l 1,3,-1
 205 608 l 1,4,-1
 205 434 l 1,5,-1
 433 434 l 1,6,-1
 433 303 l 1,7,-1
 205 303 l 1,8,-1
 205 0 l 1,9,-1
 68 0 l 1,0,-1
EndSplineSet
EndChar

StartChar: G
Encoding: 71 71 42
Width: 840
Flags: W
LayerCount: 2
Fore
SplineSet
335 249 m 1,0,-1
 335 377 l 1,1,-1
 818 377 l 1,2,-1
 818 359 l 2,3,4
 818 212 818 212 712 101 c 0,5,6
 601 -13 601 -13 432 -13 c 0,7,8
 262 -13 262 -13 146 98 c 128,-1,9
 30 209 30 209 30 371 c 0,10,11
 30 530 30 530 143.5 641 c 128,-1,12
 257 752 257 752 419 752 c 0,13,14
 540 752 540 752 642 687 c 128,-1,15
 744 622 744 622 780 522 c 1,16,-1
 619 522 l 1,17,18
 549 620 549 620 416 620 c 0,19,20
 304 620 304 620 237 547 c 0,21,22
 206 514 206 514 187 465.5 c 128,-1,23
 168 417 168 417 168 369 c 0,24,25
 168 263 168 263 241.5 191 c 128,-1,26
 315 119 315 119 424 119 c 0,27,28
 497 119 497 119 554 153 c 128,-1,29
 611 187 611 187 641 249 c 1,30,-1
 335 249 l 1,0,-1
EndSplineSet
EndChar

StartChar: H
Encoding: 72 72 43
Width: 680
Flags: W
LayerCount: 2
Fore
SplineSet
68 0 m 1,0,-1
 68 739 l 1,1,-1
 205 739 l 1,2,-1
 205 441 l 1,3,-1
 469 441 l 1,4,-1
 469 739 l 1,5,-1
 606 739 l 1,6,-1
 606 0 l 1,7,-1
 469 0 l 1,8,-1
 469 310 l 1,9,-1
 205 310 l 1,10,-1
 205 0 l 1,11,-1
 68 0 l 1,0,-1
EndSplineSet
EndChar

StartChar: I
Encoding: 73 73 44
Width: 280
Flags: W
LayerCount: 2
Fore
SplineSet
4254 -891 m 1,0,-1
 4254 -692 l 1,1,-1
 4452 -791 l 1,2,-1
 4254 -891 l 1,0,-1
4056 -791 m 1,3,-1
 4056 -592 l 1,4,-1
 4254 -692 l 1,5,-1
 4056 -791 l 1,3,-1
1782 813 m 1,6,-1
 1782 1012 l 1,7,-1
 1980 912 l 1,8,-1
 1782 813 l 1,6,-1
1584 713 m 1,9,-1
 1584 912 l 1,10,-1
 1782 813 l 1,11,-1
 1584 713 l 1,9,-1
15 486 m 0,12,13
 19 486 19 486 23 484 c 1,14,15
 21 482 21 482 22 478 c 1,16,17
 25 479 25 479 31 477.5 c 128,-1,18
 37 476 37 476 41 472 c 1,19,20
 40 472 l 2,21,22
 38 472 38 472 37 472 c 0,23,24
 35 472 35 472 34 472 c 1,25,-1
 33 471 l 1,26,-1
 38 465 l 1,27,-1
 31 460 l 1,28,-1
 30 455 l 1,29,30
 29 454 29 454 26 452.5 c 128,-1,31
 23 451 23 451 21 450.5 c 128,-1,32
 19 450 19 450 16 450 c 1,33,34
 20 447 20 447 20 443 c 1,35,36
 19 443 19 443 16.5 441 c 128,-1,37
 14 439 14 439 13 439 c 1,38,39
 24 444 24 444 33 447 c 0,40,41
 51 453 51 453 68 456 c 1,42,-1
 68 739 l 1,43,-1
 205 739 l 1,44,-1
 205 201 l 1,45,46
 233 175 233 175 252 148 c 0,47,48
 268 127 268 127 281 114 c 1,49,-1
 246 114 l 1,50,51
 229 149 229 149 205 176 c 1,52,-1
 205 0 l 1,53,-1
 68 0 l 1,54,-1
 68 298 l 1,55,56
 62 304 62 304 59 307 c 0,57,58
 38 328 38 328 21 353 c 0,59,60
 20 354 20 354 19 356 c 1,61,62
 19 355 19 355 18 355 c 1,63,-1
 20 350 l 1,64,-1
 20 349 l 1,65,66
 30 326 30 326 36 319 c 1,67,-1
 17 342 l 1,68,-1
 17 340 l 1,69,70
 23 324 23 324 26 299 c 1,71,72
 24 296 24 296 22 294 c 1,73,74
 22 291 22 291 22 289 c 1,75,76
 21 288 21 288 19.5 287 c 128,-1,77
 18 286 18 286 17 286 c 1,78,79
 19 284 19 284 20 278 c 1,80,81
 16 277 16 277 14 274 c 0,82,83
 13 272 13 272 9 268 c 1,84,85
 9 271 9 271 6 275 c 1,86,87
 4 273 4 273 2 273 c 1,88,89
 1 275 1 275 -0.5 278.5 c 128,-1,90
 -2 281 -2 281 -2 282 c 1,91,92
 -4 282 -4 282 -7 284 c 1,93,94
 -7 291 -7 291 -8 295 c 1,95,96
 -10 296 -10 296 -14 295 c 1,97,98
 -12 301 -12 301 -10 304 c 1,99,-1
 -16 305 l 1,100,101
 -16 311 l 130,-1,102
 -16 317 -16 317 -15 317 c 1,103,104
 -16 318 -16 318 -18 319 c 128,-1,105
 -20 320 -20 320 -21 321 c 1,106,107
 -19 324 -19 324 -18 327 c 1,108,-1
 -25 337 l 1,109,110
 -21 342 -21 342 -21 353 c 1,111,112
 -18 360 -18 360 -16 362 c 1,113,114
 -16 363 -16 363 -20 373 c 1,115,116
 -19 377 -19 377 -19 384 c 1,117,-1
 -25 387 l 1,118,119
 -23 380 -23 380 -21 377 c 1,120,121
 -26 383 -26 383 -29 389 c 1,122,123
 -24 374 -24 374 -24 373 c 1,124,125
 -26 376 -26 376 -27 378 c 1,126,127
 -26 374 -26 374 -27 369 c 1,128,129
 -30 368 -30 368 -31 367 c 1,130,131
 -31 366 l 1,132,-1
 -31 366 l 1,133,134
 -31 366 l 1,135,136
 -34 363 -34 363 -35 363 c 1,137,138
 -35 360 -35 360 -32 353 c 128,-1,139
 -29 346 -29 346 -29 343 c 1,140,141
 -31 341 l 130,-1,142
 -33 339 -33 339 -35 338 c 1,143,144
 -35 336 -35 336 -35 334.5 c 128,-1,145
 -35 333 -35 333 -34.5 331 c 128,-1,146
 -34 329 -34 329 -33 327 c 1,147,148
 -36 326 l 130,-1,149
 -39 325 -39 325 -41 325 c 256,150,151
 -43 325 -43 325 -45 322 c 2,152,153
 -46 321 l 1,154,155
 -45 318 -45 318 -44.5 315.5 c 128,-1,156
 -44 313 -44 313 -44 309 c 128,-1,157
 -44 305 -44 305 -43 304 c 1,158,-1
 -47 306 l 1,159,160
 -48 304 -48 304 -47.5 299 c 128,-1,161
 -47 294 -47 294 -48 292 c 1,162,-1
 -53 296 l 1,163,-1
 -50 290 l 1,164,-1
 -53 288 l 1,165,166
 -56 282 l 1,167,168
 -57 282 -57 282 -58 282.5 c 128,-1,169
 -59 283 -59 283 -60 283 c 1,170,171
 -60 281 l 130,-1,172
 -60 279 -60 279 -60 278 c 1,173,174
 -63 278 -63 278 -65 278 c 1,175,176
 -66 284 -66 284 -69 290 c 1,177,178
 -69.5 286.5 l 130,-1,179
 -70 283 -70 283 -70 281 c 1,180,181
 -71 282 -71 282 -71.5 284 c 128,-1,182
 -72 286 -72 286 -73 287 c 1,183,184
 -76 284 -76 284 -76 281 c 1,185,186
 -77 283 -77 283 -78 287 c 128,-1,187
 -79 291 -79 291 -80 292 c 1,188,-1
 -83 287 l 1,189,190
 -84 291 -84 291 -83 298.5 c 128,-1,191
 -82 306 -82 306 -82 308 c 1,192,193
 -83 309 l 130,-1,194
 -85 311 l 1,195,196
 -83 319 -83 319 -78 327 c 1,197,198
 -79 329 -79 329 -81 330 c 1,199,200
 -82 332 -82 332 -83 333 c 1,201,202
 -81 327 -81 327 -81 326 c 1,203,-1
 -85 332 l 1,204,205
 -85 331 l 2,206,207
 -85 328 -85 328 -85 326 c 2,208,-1
 -86 320 l 1,209,210
 -88 324 -88 324 -90 327 c 1,211,212
 -89 322 -89 322 -87 318 c 1,213,214
 -90 320.5 l 130,-1,215
 -93 323 -93 323 -94 325 c 1,216,-1
 -91 314 l 1,217,-1
 -94 318 l 1,218,219
 -92 313 -92 313 -92 310 c 1,220,221
 -94 314 -94 314 -98 318 c 1,222,223
 -98 314 -98 314 -97 310 c 1,224,-1
 -102 316 l 1,225,-1
 -98 306 l 1,226,-1
 -104 312 l 1,227,228
 -105 307 -105 307 -103 302 c 1,229,230
 -104 303 -104 303 -106 304.5 c 128,-1,231
 -108 306 -108 306 -109 308 c 1,232,233
 -109 303 -109 303 -111 300 c 1,234,-1
 -114 306 l 1,235,236
 -114 304 -114 304 -113.5 298.5 c 128,-1,237
 -113 293 -113 293 -114 291 c 1,238,-1
 -116 294 l 1,239,-1
 -117 289 l 1,240,241
 -119 294 -119 294 -120 298 c 1,242,243
 -118 314 -118 314 -109 332 c 0,244,245
 -106 338 -106 338 -96.5 350.5 c 128,-1,246
 -87 363 -87 363 -82 369 c 0,247,248
 -73 378 -73 378 -62 388 c 1,249,250
 -60 391 -60 391 -59 394 c 1,251,252
 -61 396 l 1,253,254
 -62 396 -62 396 -63 395 c 1,255,256
 -61 397 l 1,257,258
 -62 398 -62 398 -62 400 c 1,259,-1
 -63 399 l 2,260,261
 -64 398 -64 398 -66 395.5 c 128,-1,262
 -68 393 -68 393 -69 391 c 1,263,-1
 -69 394 l 1,264,-1
 -69 398 l 1,265,266
 -74 391 -74 391 -76 383 c 1,267,268
 -77 388.5 l 130,-1,269
 -78 394 -78 394 -78 396 c 1,270,271
 -78 394 -78 394 -80.5 390 c 128,-1,272
 -83 386 -83 386 -84 384 c 1,273,274
 -84 388 -84 388 -82 395 c 1,275,-1
 -89 381 l 1,276,-1
 -89 387 l 1,277,-1
 -89 393 l 1,278,279
 -94 385 -94 385 -96 379 c 1,280,281
 -97 386 -97 386 -96 388 c 1,282,283
 -103 381 -103 381 -105 375 c 1,284,-1
 -107 384 l 1,285,286
 -113 378 -113 378 -116 374 c 1,287,288
 -117 377 -117 377 -116 384 c 1,289,290
 -117 382 -117 382 -118.5 377.5 c 128,-1,291
 -120 373 -120 373 -122 371 c 1,292,293
 -122 376 -122 376 -121 381 c 1,294,-1
 -126 368 l 1,295,296
 -127 372 -127 372 -126 378 c 1,297,298
 -130 372 -130 372 -132 368 c 1,299,-1
 -133 378 l 1,300,301
 -134 376 -134 376 -134 373.5 c 128,-1,302
 -134 371 -134 371 -134.5 368 c 128,-1,303
 -135 365 -135 365 -135 363 c 1,304,305
 -137 367 -137 367 -138 370 c 1,306,307
 -140 367 -140 367 -140 362 c 1,308,309
 -142 369 -142 369 -141 374 c 1,310,311
 -146 357 l 1,312,313
 -147 369 -147 369 -148 372 c 1,314,315
 -149 370 -149 370 -150 365 c 128,-1,316
 -151 360 -151 360 -151 359 c 1,317,318
 -151 360 -151 360 -151 363.5 c 128,-1,319
 -151 367 -151 367 -151 368 c 1,320,321
 -156 358 -156 358 -156 357 c 1,322,-1
 -155 365 l 1,323,324
 -156 364 -156 364 -156.5 362 c 128,-1,325
 -157 360 -157 360 -157.5 357.5 c 128,-1,326
 -158 355 -158 355 -159 353 c 1,327,328
 -158 356 -158 356 -158.5 360 c 128,-1,329
 -159 364 -159 364 -159 367 c 1,330,331
 -158 369 -158 369 -149 378 c 128,-1,332
 -140 387 -140 387 -133 392 c 0,333,334
 -116 405 -116 405 -86 411 c 1,335,336
 -87 413 -87 413 -88 415.5 c 128,-1,337
 -89 418 -89 418 -89 419 c 1,338,339
 -90 419 -90 419 -92 416.5 c 128,-1,340
 -94 414 -94 414 -95 413 c 1,341,342
 -95 414 -95 414 -96 415 c 1,343,344
 -102 410 -102 410 -110 406 c 1,345,-1
 -104 413 l 1,346,-1
 -113 410 l 1,347,-1
 -109 419 l 1,348,-1
 -118 414 l 1,349,-1
 -113 420 l 1,350,351
 -115 419 -115 419 -120 416 c 128,-1,352
 -125 413 -125 413 -128 412 c 1,353,-1
 -124 416 l 1,354,-1
 -131 414 l 1,355,356
 -132 415 -132 415 -134.5 417.5 c 128,-1,357
 -137 420 -137 420 -139 422 c 1,358,359
 -130 426 -130 426 -111 432 c 1,360,361
 -109 435 -109 435 -106 438 c 1,362,363
 -112 439 -112 439 -116 439 c 1,364,365
 -111 443 -111 443 -97.5 446 c 128,-1,366
 -84 449 -84 449 -71 449 c 0,367,368
 -67 449 l 1,369,370
 -68 450 -68 450 -70 451 c 1,371,372
 -65 456 -65 456 -64 457 c 1,373,374
 -65 456 -65 456 -68 454.5 c 128,-1,375
 -71 453 -71 453 -74 453 c 1,376,377
 -75 457 -75 457 -77 463 c 1,378,379
 -80 463 -80 463 -85 463 c 1,380,381
 -87 471 l 1,382,383
 -88 472 -88 472 -91 471.5 c 128,-1,384
 -94 471 -94 471 -95 471 c 1,385,386
 -95 475 -95 475 -94 477 c 1,387,388
 -91 479 -91 479 -86 480 c 1,389,390
 -86 482 -86 482 -85 484 c 1,391,392
 -73.5 481 l 130,-1,393
 -62 478 -62 478 -57 475 c 1,394,395
 -57 470 -57 470 -56 467 c 1,396,397
 -56 468 -56 468 -55.5 470 c 130,-1,398
 -55 472 l 1,399,400
 -54 472 -54 472 -50.5 470.5 c 128,-1,401
 -47 469 -47 469 -46 469 c 1,402,403
 -47 466 -47 466 -48 464 c 1,404,405
 -46 467 -46 467 -45 467 c 1,406,407
 -42 465 -42 465 -33 456.5 c 128,-1,408
 -24 448 -24 448 -22 445 c 1,409,-1
 -21 445 l 1,410,411
 -20 444 l 1,412,-1
 -21 453 l 1,413,414
 -20 455 -20 455 -16 455 c 0,415,416
 -14 455 l 1,417,418
 -14 466 -14 466 -15 469 c 1,419,420
 -12 471 -12 471 -9.5 471 c 128,-1,421
 -7 471 -7 471 -5 470 c 1,422,423
 -3 473 -3 473 1 477.5 c 128,-1,424
 5 482 5 482 6 484 c 1,425,426
 12 486 12 486 15 486 c 0,12,13
68 316 m 1,427,-1
 68 348 l 1,428,429
 66 352 66 352 66 362 c 1,430,431
 64 358 64 358 64 354 c 1,432,-1
 63 355 l 1,433,434
 65 344 65 344 64 335 c 1,435,436
 63 335 63 335 62.5 338 c 128,-1,437
 62 341 62 341 61 343 c 1,438,439
 60 338 60 338 57 336 c 1,440,441
 50 349 50 349 47 362 c 1,442,443
 47 365 47 365 46.5 367 c 128,-1,444
 46 369 46 369 45 371 c 128,-1,445
 44 373 44 373 43 374 c 1,446,447
 40 374 l 1,448,449
 40 375 l 1,450,-1
 39 375 l 1,451,452
 38.5 372.5 l 130,-1,453
 38 370 38 370 37 369 c 1,454,455
 36 374 36 374 36 379 c 1,456,-1
 35 380 l 1,457,458
 33 378 33 378 31 375 c 1,459,460
 33 365 33 365 38 358 c 0,461,462
 43 349 43 349 48.5 340.5 c 128,-1,463
 54 332 54 332 63 321 c 2,464,-1
 68 316 l 1,427,-1
EndSplineSet
EndChar

StartChar: J
Encoding: 74 74 45
Width: 480
Flags: W
LayerCount: 2
Fore
SplineSet
277 739 m 1,0,-1
 414 739 l 1,1,-1
 414 212 l 2,2,3
 414 108 414 108 360.5 47.5 c 128,-1,4
 307 -13 307 -13 214 -13 c 0,5,6
 117 -13 117 -13 56 54 c 0,7,8
 34 79 34 79 24 105 c 128,-1,9
 14 131 14 131 9 175 c 1,10,-1
 146 175 l 1,11,12
 160 119 160 119 211 119 c 0,13,14
 277 119 277 119 277 216 c 2,15,-1
 277 739 l 1,0,-1
EndSplineSet
EndChar

StartChar: K
Encoding: 75 75 46
Width: 620
Flags: W
LayerCount: 2
Fore
SplineSet
68 0 m 1,0,-1
 68 739 l 1,1,-1
 205 739 l 1,2,-1
 205 420 l 1,3,-1
 434 739 l 1,4,-1
 599 739 l 1,5,-1
 321 376 l 1,6,-1
 599 0 l 1,7,-1
 434 0 l 1,8,-1
 205 325 l 1,9,-1
 205 0 l 1,10,-1
 68 0 l 1,0,-1
EndSplineSet
EndChar

StartChar: L
Encoding: 76 76 47
Width: 440
Flags: W
LayerCount: 2
Fore
SplineSet
68 0 m 1,0,-1
 68 739 l 1,1,-1
 205 739 l 1,2,-1
 205 131 l 1,3,-1
 431 131 l 1,4,-1
 431 0 l 1,5,-1
 68 0 l 1,0,-1
EndSplineSet
EndChar

StartChar: M
Encoding: 77 77 48
Width: 900
Flags: W
LayerCount: 2
Fore
SplineSet
3728 -308 m 1,0,-1
 3728 -504 l 1,1,-1
 3603 -339 l 2,2,3
 3592 -324 3592 -324 3587.5 -308.5 c 128,-1,4
 3583 -293 3583 -293 3584 -279.5 c 128,-1,5
 3585 -266 3585 -266 3590.5 -254 c 128,-1,6
 3596 -242 3596 -242 3605 -233.5 c 128,-1,7
 3614 -225 3614 -225 3626 -220 c 128,-1,8
 3638 -215 3638 -215 3652 -215 c 0,9,10
 3668 -215 3668 -215 3681.5 -220 c 128,-1,11
 3695 -225 3695 -225 3702.5 -233.5 c 128,-1,12
 3710 -242 3710 -242 3716 -252 c 128,-1,13
 3722 -262 3722 -262 3724 -272 c 128,-1,14
 3726 -282 3726 -282 3727 -290 c 128,-1,15
 3728 -298 3728 -298 3728 -304 c 2,16,-1
 3728 -308 l 1,0,-1
3744 -308 m 1,17,-1
 3744 -304 l 2,18,19
 3744 -298 3744 -298 3745 -290 c 0,20,21
 3747 -282 3747 -282 3749 -272 c 256,22,23
 3751 -262 3751 -262 3756.5 -252 c 128,-1,24
 3762 -242 3762 -242 3770 -233.5 c 128,-1,25
 3778 -225 3778 -225 3791 -220 c 128,-1,26
 3804 -215 3804 -215 3820 -215 c 0,27,28
 3834 -215 3834 -215 3846.5 -220 c 128,-1,29
 3859 -225 3859 -225 3868 -233.5 c 128,-1,30
 3877 -242 3877 -242 3882.5 -254 c 128,-1,31
 3888 -266 3888 -266 3889 -279.5 c 128,-1,32
 3890 -293 3890 -293 3885 -308.5 c 128,-1,33
 3880 -324 3880 -324 3869 -339 c 2,34,-1
 3744 -504 l 1,35,-1
 3744 -308 l 1,17,-1
1483 892 m 1,36,37
 1482 900 1482 900 1477 904 c 256,38,39
 1472 908 1472 908 1463 908 c 256,40,41
 1454 908 1454 908 1449 904 c 128,-1,42
 1444 900 1444 900 1442 892 c 1,43,-1
 1430 892 l 1,44,45
 1431 908 1431 908 1439.5 915 c 128,-1,46
 1448 922 1448 922 1463 922 c 128,-1,47
 1478 922 1478 922 1486 915 c 128,-1,48
 1494 908 1494 908 1496 892 c 1,49,-1
 1483 892 l 1,36,37
1363 996 m 1,50,51
 1362 1003 1362 1003 1357 1007 c 256,52,53
 1352 1011 1352 1011 1342 1011 c 0,54,55
 1334 1011 1334 1011 1329 1007.5 c 128,-1,56
 1324 1004 1324 1004 1322 996 c 1,57,-1
 1310 996 l 1,58,59
 1311 1010 1311 1010 1319 1018 c 128,-1,60
 1327 1026 1327 1026 1342.5 1026 c 128,-1,61
 1358 1026 1358 1026 1366 1018 c 128,-1,62
 1374 1010 1374 1010 1375 996 c 1,63,-1
 1363 996 l 1,50,51
1604 996 m 1,64,65
 1602 1003 1602 1003 1597 1007 c 256,66,67
 1592 1011 1592 1011 1583 1011 c 256,68,69
 1574 1011 1574 1011 1569 1007.5 c 128,-1,70
 1564 1004 1564 1004 1563 996 c 1,71,-1
 1550 996 l 1,72,73
 1552 1010 1552 1010 1560 1018 c 128,-1,74
 1568 1026 1568 1026 1583 1026 c 128,-1,75
 1598 1026 1598 1026 1606.5 1018 c 128,-1,76
 1615 1010 1615 1010 1616 996 c 1,77,-1
 1604 996 l 1,64,65
1398 923 m 1,78,79
 1397 930 1397 930 1392 934 c 128,-1,80
 1387 938 1387 938 1378 938 c 256,81,82
 1369 938 1369 938 1364 934.5 c 128,-1,83
 1359 931 1359 931 1358 923 c 1,84,-1
 1345 923 l 1,85,86
 1346 938 1346 938 1354.5 945.5 c 128,-1,87
 1363 953 1363 953 1378 953 c 128,-1,88
 1393 953 1393 953 1401.5 945.5 c 128,-1,89
 1410 938 1410 938 1410 923 c 1,90,-1
 1398 923 l 1,78,79
1568 923 m 1,91,92
 1567 930 1567 930 1562 934 c 256,93,94
 1557 938 1557 938 1548 938 c 256,95,96
 1539 938 1539 938 1534 934.5 c 128,-1,97
 1529 931 1529 931 1528 923 c 1,98,-1
 1515 923 l 1,99,100
 1516 938 1516 938 1524.5 945.5 c 128,-1,101
 1533 953 1533 953 1548 953 c 128,-1,102
 1563 953 1563 953 1571.5 945.5 c 128,-1,103
 1580 938 1580 938 1581 923 c 1,104,-1
 1568 923 l 1,91,92
1398 1068 m 1,105,106
 1397 1076 1397 1076 1392 1080 c 128,-1,107
 1387 1084 1387 1084 1378 1084 c 256,108,109
 1369 1084 1369 1084 1364 1080 c 128,-1,110
 1359 1076 1359 1076 1358 1068 c 1,111,-1
 1345 1068 l 1,112,113
 1346 1083 1346 1083 1354.5 1090.5 c 128,-1,114
 1363 1098 1363 1098 1378 1098 c 128,-1,115
 1393 1098 1393 1098 1401.5 1090.5 c 128,-1,116
 1410 1083 1410 1083 1410 1068 c 1,117,-1
 1398 1068 l 1,105,106
1568 1068 m 1,118,119
 1567 1076 1567 1076 1562 1080 c 256,120,121
 1557 1084 1557 1084 1548 1084 c 256,122,123
 1539 1084 1539 1084 1534 1080 c 128,-1,124
 1529 1076 1529 1076 1528 1068 c 1,125,-1
 1515 1068 l 1,126,127
 1516 1083 1516 1083 1524.5 1090.5 c 128,-1,128
 1533 1098 1533 1098 1548 1098 c 128,-1,129
 1563 1098 1563 1098 1571.5 1090.5 c 128,-1,130
 1580 1083 1580 1083 1581 1068 c 1,131,-1
 1568 1068 l 1,118,119
1483 1098 m 1,132,133
 1482 1106 1482 1106 1477 1110 c 256,134,135
 1472 1114 1472 1114 1463 1114 c 256,136,137
 1454 1114 1454 1114 1449 1110 c 128,-1,138
 1444 1106 1444 1106 1442 1098 c 1,139,-1
 1430 1098 l 1,140,141
 1431 1113 1431 1113 1439.5 1120.5 c 128,-1,142
 1448 1128 1448 1128 1463 1128 c 128,-1,143
 1478 1128 1478 1128 1486 1120.5 c 128,-1,144
 1494 1113 1494 1113 1496 1098 c 1,145,-1
 1483 1098 l 1,132,133
3051 -176 m 1,146,147
 3050 -168 3050 -168 3045 -164 c 256,148,149
 3040 -160 3040 -160 3030 -160 c 0,150,151
 3022 -160 3022 -160 3017 -164 c 128,-1,152
 3012 -168 3012 -168 3010 -176 c 1,153,-1
 2998 -176 l 1,154,155
 2999 -161 2999 -161 3007 -153.5 c 128,-1,156
 3015 -146 3015 -146 3030.5 -146 c 128,-1,157
 3046 -146 3046 -146 3054 -153.5 c 128,-1,158
 3062 -161 3062 -161 3063 -176 c 1,159,-1
 3051 -176 l 1,146,147
2930 -73 m 1,160,161
 2929 -65 2929 -65 2924 -61 c 256,162,163
 2919 -57 2919 -57 2910 -57 c 256,164,165
 2901 -57 2901 -57 2896 -61 c 128,-1,166
 2891 -65 2891 -65 2890 -73 c 1,167,-1
 2878 -73 l 1,168,169
 2878 -58 2878 -58 2886.5 -50.5 c 128,-1,170
 2895 -43 2895 -43 2910 -43 c 128,-1,171
 2925 -43 2925 -43 2933.5 -50.5 c 128,-1,172
 2942 -58 2942 -58 2943 -73 c 1,173,-1
 2930 -73 l 1,160,161
3171 -73 m 1,174,175
 3170 -65 3170 -65 3165 -61 c 256,176,177
 3160 -57 3160 -57 3151 -57 c 256,178,179
 3142 -57 3142 -57 3137 -61 c 128,-1,180
 3132 -65 3132 -65 3130 -73 c 1,181,-1
 3118 -73 l 1,182,183
 3119 -58 3119 -58 3127.5 -50.5 c 128,-1,184
 3136 -43 3136 -43 3151 -43 c 128,-1,185
 3166 -43 3166 -43 3174 -50.5 c 128,-1,186
 3182 -58 3182 -58 3184 -73 c 1,187,-1
 3171 -73 l 1,174,175
2966 -146 m 1,188,189
 2965 -138 2965 -138 2959.5 -134 c 128,-1,190
 2954 -130 2954 -130 2945 -130 c 256,191,192
 2936 -130 2936 -130 2931 -134 c 128,-1,193
 2926 -138 2926 -138 2925 -146 c 1,194,-1
 2913 -146 l 1,195,196
 2914 -131 2914 -131 2922 -123.5 c 128,-1,197
 2930 -116 2930 -116 2945 -116 c 128,-1,198
 2960 -116 2960 -116 2968.5 -123.5 c 128,-1,199
 2977 -131 2977 -131 2978 -146 c 1,200,-1
 2966 -146 l 1,188,189
3136 -146 m 1,201,202
 3135 -138 3135 -138 3130 -134 c 256,203,204
 3125 -130 3125 -130 3116 -130 c 256,205,206
 3107 -130 3107 -130 3101.5 -134 c 128,-1,207
 3096 -138 3096 -138 3095 -146 c 1,208,-1
 3083 -146 l 1,209,210
 3084 -131 3084 -131 3092 -123.5 c 128,-1,211
 3100 -116 3100 -116 3115.5 -116 c 128,-1,212
 3131 -116 3131 -116 3139 -123.5 c 128,-1,213
 3147 -131 3147 -131 3148 -146 c 1,214,-1
 3136 -146 l 1,201,202
2966 0 m 1,215,216
 2965 8 2965 8 2959.5 12 c 128,-1,217
 2954 16 2954 16 2945 16 c 256,218,219
 2936 16 2936 16 2931 12 c 128,-1,220
 2926 8 2926 8 2925 0 c 1,221,-1
 2913 0 l 1,222,223
 2914 15 2914 15 2922 22.5 c 128,-1,224
 2930 30 2930 30 2945 30 c 128,-1,225
 2960 30 2960 30 2968.5 22.5 c 128,-1,226
 2977 15 2977 15 2978 0 c 1,227,-1
 2966 0 l 1,215,216
3136 0 m 1,228,229
 3135 8 3135 8 3130 12 c 256,230,231
 3125 16 3125 16 3116 16 c 256,232,233
 3107 16 3107 16 3101.5 12 c 128,-1,234
 3096 8 3096 8 3095 0 c 1,235,-1
 3083 0 l 1,236,237
 3084 15 3084 15 3092 22.5 c 128,-1,238
 3100 30 3100 30 3115.5 30 c 128,-1,239
 3131 30 3131 30 3139 22.5 c 128,-1,240
 3147 15 3147 15 3148 0 c 1,241,-1
 3136 0 l 1,228,229
3051 30 m 1,242,243
 3050 38 3050 38 3045 42 c 256,244,245
 3040 46 3040 46 3030 46 c 0,246,247
 3022 46 3022 46 3017 42 c 128,-1,248
 3012 38 3012 38 3010 30 c 1,249,-1
 2998 30 l 1,250,251
 2999 45 2999 45 3007 52.5 c 128,-1,252
 3015 60 3015 60 3030.5 60 c 128,-1,253
 3046 60 3046 60 3054 52.5 c 128,-1,254
 3062 45 3062 45 3063 30 c 1,255,-1
 3051 30 l 1,242,243
8013 1545 m 1,256,257
 8012 1553 8012 1553 8007 1557 c 0,258,259
 8002 1560 8002 1560 7992 1560 c 0,260,261
 7984 1560 7984 1560 7979 1556.5 c 128,-1,262
 7974 1553 7974 1553 7972 1545 c 1,263,-1
 7960 1545 l 1,264,265
 7961 1560 7961 1560 7969 1567.5 c 128,-1,266
 7977 1575 7977 1575 7992.5 1575 c 128,-1,267
 8008 1575 8008 1575 8016 1567.5 c 128,-1,268
 8024 1560 8024 1560 8025 1545 c 1,269,-1
 8013 1545 l 1,256,257
7892 1648 m 1,270,271
 7891 1656 7891 1656 7886 1660 c 256,272,273
 7881 1664 7881 1664 7872 1664 c 256,274,275
 7863 1664 7863 1664 7858 1660 c 128,-1,276
 7853 1656 7853 1656 7852 1648 c 1,277,-1
 7840 1648 l 1,278,279
 7840 1663 7840 1663 7848.5 1670.5 c 128,-1,280
 7857 1678 7857 1678 7872 1678 c 128,-1,281
 7887 1678 7887 1678 7895.5 1670.5 c 128,-1,282
 7904 1663 7904 1663 7905 1648 c 1,283,-1
 7892 1648 l 1,270,271
8133 1648 m 1,284,285
 8132 1656 8132 1656 8127 1660 c 256,286,287
 8122 1664 8122 1664 8113 1664 c 256,288,289
 8104 1664 8104 1664 8099 1660 c 128,-1,290
 8094 1656 8094 1656 8092 1648 c 1,291,-1
 8080 1648 l 1,292,293
 8081 1663 8081 1663 8089.5 1670.5 c 128,-1,294
 8098 1678 8098 1678 8113 1678 c 128,-1,295
 8128 1678 8128 1678 8136 1670.5 c 128,-1,296
 8144 1663 8144 1663 8146 1648 c 1,297,-1
 8133 1648 l 1,284,285
7928 1575 m 1,298,299
 7927 1583 7927 1583 7921.5 1587 c 128,-1,300
 7916 1591 7916 1591 7907 1591 c 256,301,302
 7898 1591 7898 1591 7893 1587 c 128,-1,303
 7888 1583 7888 1583 7887 1575 c 1,304,-1
 7875 1575 l 1,305,306
 7876 1590 7876 1590 7884 1597.5 c 128,-1,307
 7892 1605 7892 1605 7907 1605 c 128,-1,308
 7922 1605 7922 1605 7930.5 1597.5 c 128,-1,309
 7939 1590 7939 1590 7940 1575 c 1,310,-1
 7928 1575 l 1,298,299
8098 1575 m 1,311,312
 8097 1583 8097 1583 8092 1587 c 256,313,314
 8087 1591 8087 1591 8078 1591 c 256,315,316
 8069 1591 8069 1591 8063.5 1587 c 128,-1,317
 8058 1583 8058 1583 8057 1575 c 1,318,-1
 8045 1575 l 1,319,320
 8046 1590 8046 1590 8054 1597.5 c 128,-1,321
 8062 1605 8062 1605 8077.5 1605 c 128,-1,322
 8093 1605 8093 1605 8101 1597.5 c 128,-1,323
 8109 1590 8109 1590 8110 1575 c 1,324,-1
 8098 1575 l 1,311,312
7928 1721 m 1,325,326
 7927 1728 7927 1728 7921.5 1732 c 128,-1,327
 7916 1736 7916 1736 7907 1736 c 256,328,329
 7898 1736 7898 1736 7893 1732.5 c 128,-1,330
 7888 1729 7888 1729 7887 1721 c 1,331,-1
 7875 1721 l 1,332,333
 7876 1736 7876 1736 7884 1743.5 c 128,-1,334
 7892 1751 7892 1751 7907 1751 c 128,-1,335
 7922 1751 7922 1751 7930.5 1743.5 c 128,-1,336
 7939 1736 7939 1736 7940 1721 c 1,337,-1
 7928 1721 l 1,325,326
8098 1721 m 1,338,339
 8097 1728 8097 1728 8092 1732 c 256,340,341
 8087 1736 8087 1736 8078 1736 c 256,342,343
 8069 1736 8069 1736 8063.5 1732.5 c 128,-1,344
 8058 1729 8058 1729 8057 1721 c 1,345,-1
 8045 1721 l 1,346,347
 8046 1736 8046 1736 8054 1743.5 c 128,-1,348
 8062 1751 8062 1751 8077.5 1751 c 128,-1,349
 8093 1751 8093 1751 8101 1743.5 c 128,-1,350
 8109 1736 8109 1736 8110 1721 c 1,351,-1
 8098 1721 l 1,338,339
8013 1751 m 1,352,353
 8012 1759 8012 1759 8007 1762 c 0,354,355
 8002 1766 8002 1766 7992 1766 c 0,356,357
 7984 1766 7984 1766 7979 1762.5 c 128,-1,358
 7974 1759 7974 1759 7972 1751 c 1,359,-1
 7960 1751 l 1,360,361
 7961 1766 7961 1766 7969 1773.5 c 128,-1,362
 7977 1781 7977 1781 7992.5 1781 c 128,-1,363
 8008 1781 8008 1781 8016 1773.5 c 128,-1,364
 8024 1766 8024 1766 8025 1751 c 1,365,-1
 8013 1751 l 1,352,353
68 0 m 1,366,-1
 68 739 l 1,367,-1
 256 739 l 1,368,-1
 393 354 l 1,369,370
 400 352 400 352 406 348 c 1,371,372
 414 340 414 340 415 325 c 1,373,-1
 403 325 l 1,374,-1
 418 282 l 1,375,376
 433 282 433 282 441 275 c 0,377,378
 449 267 449 267 450 252 c 1,379,-1
 438 252 l 1,380,381
 437 260 437 260 432 264 c 1,382,383
 428 266 428 266 424 267 c 1,384,-1
 455 179 l 1,385,-1
 470 222 l 1,386,387
 471 236 471 236 478 243 c 1,388,-1
 590 562 l 1,389,-1
 589 562 l 1,390,391
 584 566 584 566 575 566 c 256,392,393
 566 566 566 566 561 562 c 128,-1,394
 556 558 556 558 554 550 c 1,395,-1
 542 550 l 1,396,397
 543 565 543 565 551.5 572.5 c 128,-1,398
 560 580 560 580 575 580 c 0,399,400
 587 580 587 580 595 576 c 1,401,-1
 652 739 l 1,402,-1
 840 739 l 1,403,-1
 840 250 l 1,404,405
 843 249 843 249 845 247 c 0,406,407
 854 239 854 239 854 224 c 1,408,-1
 842 224 l 1,409,410
 842 228 842 228 840 231 c 1,411,-1
 840 105 l 1,412,413
 843 103 843 103 845 101 c 0,414,415
 854 94 854 94 854 79 c 1,416,-1
 842 79 l 1,417,418
 842 83 842 83 840 86 c 1,419,-1
 840 0 l 1,420,-1
 703 0 l 1,421,-1
 703 462 l 1,422,423
 700 463 700 463 695 463 c 0,424,425
 686 463 686 463 681 459.5 c 128,-1,426
 676 456 676 456 675 448 c 1,427,-1
 666 448 l 1,428,-1
 651 404 l 1,429,430
 655 405 655 405 660 405 c 0,431,432
 675 405 675 405 683.5 397.5 c 128,-1,433
 692 390 692 390 693 375 c 1,434,-1
 680 375 l 1,435,436
 679 382 679 382 674 386 c 256,437,438
 669 390 669 390 660 390 c 256,439,440
 651 390 651 390 646 387 c 0,441,442
 644 385 l 1,443,-1
 633 354 l 1,444,445
 641 352 641 352 646 348 c 0,446,447
 654 340 654 340 656 325 c 1,448,-1
 643 325 l 1,449,450
 642 333 642 333 637 337 c 0,451,452
 634 339 634 339 629 340 c 1,453,-1
 607 278 l 1,454,455
 609 277 609 277 611 275 c 0,456,457
 619 267 619 267 620 252 c 1,458,-1
 608 252 l 1,459,460
 607 260 607 260 602 264 c 1,461,-1
 510 0 l 1,462,-1
 398 0 l 1,463,-1
 205 554 l 1,464,-1
 205 0 l 1,465,-1
 68 0 l 1,366,-1
438 398 m 1,466,467
 437 406 437 406 431.5 410 c 128,-1,468
 426 414 426 414 417 414 c 256,469,470
 408 414 408 414 403 410 c 128,-1,471
 398 406 398 406 397 398 c 1,472,-1
 385 398 l 1,473,474
 385 413 385 413 393.5 420.5 c 128,-1,475
 402 428 402 428 417 428 c 128,-1,476
 432 428 432 428 440.5 420.5 c 128,-1,477
 449 413 449 413 450 398 c 1,478,-1
 438 398 l 1,466,467
523 428 m 1,479,480
 522 436 522 436 517 440 c 0,481,482
 511 444 511 444 502 444 c 0,483,484
 494 444 494 444 489 440 c 128,-1,485
 484 436 484 436 482 428 c 1,486,-1
 470 428 l 1,487,488
 470 440 470 440 476 448 c 1,489,-1
 475 448 l 1,490,491
 474 455 474 455 469 459 c 256,492,493
 464 463 464 463 454 463 c 0,494,495
 446 463 446 463 441 459.5 c 128,-1,496
 436 456 436 456 434 448 c 1,497,-1
 422 448 l 1,498,499
 423 462 423 462 431 470 c 128,-1,500
 439 478 439 478 454.5 478 c 128,-1,501
 470 478 470 478 478 470 c 0,502,503
 484 464 484 464 486 455 c 1,504,505
 493 458 493 458 502 458 c 0,506,507
 518 458 518 458 526 450.5 c 128,-1,508
 534 443 534 443 535 428 c 1,509,-1
 523 428 l 1,479,480
510 375 m 1,510,511
 509 382 509 382 504 386 c 128,-1,512
 499 390 499 390 490 390 c 256,513,514
 481 390 481 390 476 386.5 c 128,-1,515
 471 383 471 383 470 375 c 1,516,-1
 457 375 l 1,517,518
 458 390 458 390 466.5 397.5 c 128,-1,519
 475 405 475 405 490 405 c 128,-1,520
 505 405 505 405 513.5 397.5 c 128,-1,521
 522 390 522 390 522 375 c 1,522,-1
 510 375 l 1,510,511
510 520 m 1,523,524
 509 528 509 528 504 532 c 128,-1,525
 499 536 499 536 490 536 c 256,526,527
 481 536 481 536 476 532 c 128,-1,528
 471 528 471 528 470 520 c 1,529,-1
 457 520 l 1,530,531
 458 535 458 535 466.5 542.5 c 128,-1,532
 475 550 475 550 490 550 c 128,-1,533
 505 550 505 550 513.5 542.5 c 128,-1,534
 522 535 522 535 522 520 c 1,535,-1
 510 520 l 1,523,524
927 48 m 1,536,537
 926 56 926 56 921 60 c 256,538,539
 916 64 916 64 907 64 c 256,540,541
 898 64 898 64 893 60 c 128,-1,542
 888 56 888 56 886 48 c 1,543,-1
 874 48 l 1,544,545
 875 64 875 64 883.5 71 c 128,-1,546
 892 78 892 78 907 78 c 128,-1,547
 922 78 922 78 930 71 c 128,-1,548
 938 64 938 64 940 48 c 1,549,-1
 927 48 l 1,536,537
1048 152 m 1,550,551
 1046 159 1046 159 1041 163 c 256,552,553
 1036 167 1036 167 1027 167 c 256,554,555
 1018 167 1018 167 1013 163.5 c 128,-1,556
 1008 160 1008 160 1007 152 c 1,557,-1
 994 152 l 1,558,559
 996 166 996 166 1004 174 c 128,-1,560
 1012 182 1012 182 1027 182 c 128,-1,561
 1042 182 1042 182 1050.5 174 c 128,-1,562
 1059 166 1059 166 1060 152 c 1,563,-1
 1048 152 l 1,550,551
1012 79 m 1,564,565
 1011 86 1011 86 1006 90 c 256,566,567
 1001 94 1001 94 992 94 c 256,568,569
 983 94 983 94 978 90.5 c 128,-1,570
 973 87 973 87 972 79 c 1,571,-1
 959 79 l 1,572,573
 960 94 960 94 968.5 101.5 c 128,-1,574
 977 109 977 109 992 109 c 128,-1,575
 1007 109 1007 109 1015.5 101.5 c 128,-1,576
 1024 94 1024 94 1025 79 c 1,577,-1
 1012 79 l 1,564,565
1012 224 m 1,578,579
 1011 232 1011 232 1006 236 c 256,580,581
 1001 240 1001 240 992 240 c 256,582,583
 983 240 983 240 978 236 c 128,-1,584
 973 232 973 232 972 224 c 1,585,-1
 959 224 l 1,586,587
 960 239 960 239 968.5 246.5 c 128,-1,588
 977 254 977 254 992 254 c 128,-1,589
 1007 254 1007 254 1015.5 246.5 c 128,-1,590
 1024 239 1024 239 1025 224 c 1,591,-1
 1012 224 l 1,578,579
927 254 m 1,592,593
 926 262 926 262 921 266 c 256,594,595
 916 270 916 270 907 270 c 256,596,597
 898 270 898 270 893 266 c 128,-1,598
 888 262 888 262 886 254 c 1,599,-1
 874 254 l 1,600,601
 875 269 875 269 883.5 276.5 c 128,-1,602
 892 284 892 284 907 284 c 128,-1,603
 922 284 922 284 930 276.5 c 128,-1,604
 938 269 938 269 940 254 c 1,605,-1
 927 254 l 1,592,593
703 477 m 1,606,-1
 703 554 l 1,607,-1
 692 524 l 1,608,609
 693 522 693 522 693 520 c 1,610,-1
 691 520 l 1,611,-1
 674 472 l 1,612,613
 682 478 682 478 695 478 c 0,614,615
 699 478 699 478 703 477 c 1,606,-1
EndSplineSet
EndChar

StartChar: N
Encoding: 78 78 49
Width: 740
Flags: W
LayerCount: 2
Fore
SplineSet
68 0 m 1,0,-1
 68 739 l 1,1,-1
 224 739 l 1,2,-1
 530 201 l 1,3,-1
 530 739 l 1,4,-1
 667 739 l 1,5,-1
 667 0 l 1,6,-1
 514 0 l 1,7,-1
 205 537 l 1,8,-1
 205 0 l 1,9,-1
 68 0 l 1,0,-1
EndSplineSet
EndChar

StartChar: O
Encoding: 79 79 50
Width: 840
Flags: W
LayerCount: 2
Fore
SplineSet
420 752 m 0,0,1
 578 752 578 752 689 640 c 128,-1,2
 800 528 800 528 800 370 c 0,3,4
 800 208 800 208 690 97.5 c 128,-1,5
 580 -13 580 -13 419 -13 c 0,6,7
 256 -13 256 -13 143 98 c 128,-1,8
 30 209 30 209 30 369 c 0,9,10
 30 531 30 531 142.5 641.5 c 128,-1,11
 255 752 255 752 420 752 c 0,0,1
418 620 m 0,12,13
 311 620 311 620 239.5 548 c 128,-1,14
 168 476 168 476 168 369 c 0,15,16
 168 264 168 264 240.5 191.5 c 128,-1,17
 313 119 313 119 418 119 c 128,-1,18
 523 119 523 119 592.5 190 c 128,-1,19
 662 261 662 261 662 368 c 0,20,21
 662 474 662 474 591.5 547 c 128,-1,22
 521 620 521 620 418 620 c 0,12,13
EndSplineSet
EndChar

StartChar: P
Encoding: 80 80 51
Width: 560
Flags: W
LayerCount: 2
Fore
SplineSet
68 0 m 1,0,-1
 68 739 l 1,1,-1
 251 739 l 2,2,3
 383 739 383 739 440 705 c 0,4,5
 540 644 540 644 540 511 c 0,6,7
 540 447 540 447 514 394.5 c 128,-1,8
 488 342 488 342 443 314 c 0,9,10
 412 295 412 295 370 288 c 128,-1,11
 328 281 328 281 249 281 c 2,12,-1
 205 281 l 1,13,-1
 205 0 l 1,14,-1
 68 0 l 1,0,-1
205 412 m 1,15,-1
 245 412 l 2,16,17
 325 412 325 412 357 429 c 0,18,19
 402 454 402 454 402 509 c 0,20,21
 402 544 402 544 385 568.5 c 128,-1,22
 368 593 368 593 338 601 c 0,23,24
 307 608 307 608 251 608 c 2,25,-1
 205 608 l 1,26,-1
 205 412 l 1,15,-1
EndSplineSet
EndChar

StartChar: Q
Encoding: 81 81 52
Width: 840
Flags: W
LayerCount: 2
Fore
SplineSet
828 110 m 1,0,-1
 828 -14 l 1,1,2
 820 -15 820 -15 810 -15 c 0,3,4
 723 -15 723 -15 635 45 c 1,5,6
 551 -13 551 -13 430 -13 c 0,7,8
 263 -13 263 -13 146.5 98.5 c 128,-1,9
 30 210 30 210 30 370 c 0,10,11
 30 531 30 531 144 641.5 c 128,-1,12
 258 752 258 752 424 752 c 0,13,14
 592 752 592 752 703.5 642 c 128,-1,15
 815 532 815 532 815 366 c 0,16,17
 815 221 815 221 726 129 c 1,18,19
 769 107 769 107 801 107 c 0,20,21
 807 107 807 107 828 110 c 1,0,-1
519 138 m 1,22,23
 398 235 398 235 282 235 c 0,24,25
 254 235 254 235 211 227 c 1,26,27
 293 119 293 119 430 119 c 0,28,29
 477 119 477 119 519 138 c 1,22,23
617 204 m 1,30,31
 677 266 677 266 677 364 c 0,32,33
 677 474 677 474 604.5 547 c 128,-1,34
 532 620 532 620 422 620 c 0,35,36
 313 620 313 620 240 548 c 128,-1,37
 167 476 167 476 167 369 c 0,38,39
 167 352 167 352 169 334 c 1,40,41
 218 347 218 347 283 347 c 0,42,43
 371 347 371 347 460 309 c 128,-1,44
 549 271 549 271 617 204 c 1,30,31
EndSplineSet
EndChar

StartChar: R
Encoding: 82 82 53
Width: 580
Flags: W
LayerCount: 2
Fore
SplineSet
68 0 m 1,0,-1
 68 739 l 1,1,-1
 281 739 l 2,2,3
 357 739 357 739 402 727 c 128,-1,4
 447 715 447 715 483 684 c 0,5,6
 561 618 561 618 561 502 c 0,7,8
 561 392 561 392 485 327 c 0,9,10
 443 291 443 291 368 273 c 1,11,-1
 568 0 l 1,12,-1
 399 0 l 1,13,-1
 205 283 l 1,14,-1
 205 0 l 1,15,-1
 68 0 l 1,0,-1
205 386 m 1,16,-1
 272 386 l 2,17,18
 351 386 351 386 387 412.5 c 128,-1,19
 423 439 423 439 423 498 c 0,20,21
 423 554 423 554 387 582 c 0,22,23
 357 608 357 608 266 608 c 2,24,-1
 205 608 l 1,25,-1
 205 386 l 1,16,-1
EndSplineSet
EndChar

StartChar: S
Encoding: 83 83 54
Width: 520
Flags: W
LayerCount: 2
Fore
SplineSet
2878 -62 m 1,0,1
 2873 -102 2873 -102 2855 -102 c 2,2,-1
 2853 -102 l 1,3,4
 2842 -100 2842 -100 2842 -93 c 0,5,6
 2842 -82 2842 -82 2878 -62 c 1,0,1
2959 -12 m 1,7,8
 2953 -53 2953 -53 2935 -53 c 2,9,-1
 2934 -53 l 1,10,11
 2923 -51 2923 -51 2923 -44 c 0,12,13
 2923 -33 2923 -33 2959 -12 c 1,7,8
3029 11 m 1,14,15
 3024 -29 3024 -29 3006 -29 c 2,16,-1
 3005 -29 l 2,17,18
 2993 -28 2993 -28 2993 -21 c 2,19,-1
 2993 -20 l 2,20,21
 2993 -10 2993 -10 3029 11 c 1,14,15
3041 -46 m 1,22,-1
 3042 -46 l 1,23,24
 3036 -86 3036 -86 3018 -86 c 2,25,-1
 3017 -86 l 1,26,27
 3006 -84 3006 -84 3006 -78 c 2,28,-1
 3006 -77 l 2,29,30
 3006 -66 3006 -66 3041 -46 c 1,22,-1
3112 -5 m 1,31,32
 3107 -45 3107 -45 3089 -45 c 2,33,-1
 3087 -45 l 2,34,35
 3076 -44 3076 -44 3076 -36 c 0,36,37
 3076 -25 3076 -25 3112 -5 c 1,31,32
3133 -46 m 1,38,-1
 3134 -46 l 1,39,40
 3128 -86 3128 -86 3110 -86 c 2,41,-1
 3109 -86 l 2,42,43
 3098 -85 3098 -85 3098 -78 c 2,44,-1
 3098 -77 l 2,45,46
 3098 -66 3098 -66 3133 -46 c 1,38,-1
3115 -112 m 1,47,-1
 3116 -112 l 1,48,49
 3110 -153 3110 -153 3092 -153 c 2,50,-1
 3091 -153 l 1,51,52
 3080 -151 3080 -151 3080 -144 c 0,53,54
 3080 -133 3080 -133 3115 -112 c 1,47,-1
2963 -102 m 1,55,-1
 2975 -102 l 1,56,-1
 2975 -104 l 1,57,-1
 2975 -125 l 1,58,-1
 2976 -125 l 2,59,60
 3062 -125 3062 -125 3117 -210 c 0,61,62
 3125 -225 3125 -225 3125 -227 c 2,63,-1
 3125 -228 l 1,64,65
 3120 -226 3120 -226 3117 -218 c 1,66,67
 3110 -214 3110 -214 3099 -214 c 2,68,-1
 3090 -214 l 2,69,70
 3061 -214 3061 -214 3039 -231 c 1,71,-1
 3039 -240 l 2,72,73
 3039 -242 3039 -242 3037 -243 c 1,74,-1
 3031 -232 l 1,75,76
 3001 -221 3001 -221 2975 -221 c 1,77,-1
 2975 -340 l 2,78,79
 2975 -358 2975 -358 2954 -362 c 1,80,-1
 2948 -362 l 2,81,82
 2931 -362 2931 -362 2923 -345 c 1,83,-1
 2923 -340 l 1,84,-1
 2923 -336 l 1,85,-1
 2924 -335 l 1,86,-1
 2933 -335 l 1,87,-1
 2933 -336 l 1,88,-1
 2933 -338 l 2,89,90
 2935 -356 2935 -356 2948 -356 c 2,91,-1
 2950 -356 l 2,92,93
 2960 -356 2960 -356 2964 -346 c 1,94,-1
 2965 -338 l 1,95,-1
 2965 -221 l 1,96,97
 2924 -221 2924 -221 2907 -232 c 1,98,99
 2904 -241 2904 -241 2901 -241 c 1,100,-1
 2900 -240 l 1,101,-1
 2900 -238 l 1,102,-1
 2901 -229 l 1,103,104
 2887 -218 2887 -218 2849 -214 c 2,105,-1
 2836 -214 l 2,106,107
 2817 -214 2817 -214 2810 -224 c 1,108,-1
 2806 -227 l 1,109,-1
 2805 -227 l 1,110,111
 2817 -202 2817 -202 2854 -164 c 0,112,113
 2901 -125 2901 -125 2962 -125 c 1,114,-1
 2962 -104 l 1,115,-1
 2963 -102 l 1,55,-1
13605 -1004 m 1,116,-1
 13691 -858 l 1,117,-1
 13888 -944 l 1,118,-1
 13902 -1031 l 1,119,-1
 13868 -1127 l 1,120,-1
 13718 -1227 l 1,121,-1
 13652 -1214 l 1,122,-1
 13605 -1004 l 1,116,-1
13626 -1008 m 1,123,-1
 13669 -1197 l 1,124,-1
 13714 -1206 l 1,125,-1
 13852 -1114 l 1,126,-1
 13882 -1029 l 1,127,-1
 13870 -958 l 1,128,-1
 13700 -884 l 1,129,-1
 13626 -1008 l 1,123,-1
3930 -618 m 1,130,-1
 4017 -472 l 1,131,-1
 4214 -558 l 1,132,-1
 4228 -645 l 1,133,-1
 4194 -741 l 1,134,-1
 4044 -841 l 1,135,-1
 3978 -828 l 1,136,-1
 3930 -618 l 1,130,-1
3952 -622 m 1,137,-1
 3995 -811 l 1,138,-1
 4040 -820 l 1,139,-1
 4178 -728 l 1,140,-1
 4208 -643 l 1,141,-1
 4196 -572 l 1,142,-1
 4025 -498 l 1,143,-1
 3952 -622 l 1,137,-1
1246 983 m 1,144,-1
 1333 1129 l 1,145,-1
 1530 1043 l 1,146,-1
 1544 956 l 1,147,-1
 1510 860 l 1,148,-1
 1360 760 l 1,149,-1
 1294 773 l 1,150,-1
 1246 983 l 1,144,-1
1268 979 m 1,151,-1
 1311 790 l 1,152,-1
 1356 781 l 1,153,-1
 1494 873 l 1,154,-1
 1524 958 l 1,155,-1
 1512 1029 l 1,156,-1
 1341 1104 l 1,157,-1
 1268 979 l 1,151,-1
14 211 m 1,158,-1
 157 211 l 1,159,160
 166 119 166 119 257 119 c 0,161,162
 301 119 301 119 329 144 c 128,-1,163
 357 169 357 169 357 209 c 0,164,165
 357 256 357 256 323 284 c 0,166,167
 298 303 298 303 195 341 c 0,168,169
 121 369 121 369 81 420.5 c 128,-1,170
 41 472 41 472 41 542 c 0,171,172
 41 630 41 630 104 691 c 128,-1,173
 167 752 167 752 256 752 c 0,174,175
 365 752 365 752 429 673 c 0,176,177
 471 621 471 621 475 542 c 1,178,-1
 333 542 l 1,179,180
 330 580 330 580 310 600 c 128,-1,181
 290 620 290 620 255 620 c 0,182,183
 221 620 221 620 200 599 c 128,-1,184
 179 578 179 578 179 545 c 0,185,186
 179 504 179 504 220 478 c 0,187,188
 230 472 230 472 302 445 c 0,189,190
 346 428 346 428 369 417 c 1,191,-1
 369 419 l 1,192,-1
 369 422 l 1,193,-1
 374 422 l 1,194,-1
 379 422 l 1,195,-1
 381 422 l 1,196,-1
 381 428 l 1,197,-1
 383 428 l 1,198,-1
 386 428 l 1,199,-1
 389 428 l 1,200,-1
 389 432 l 1,201,-1
 389 435 l 1,202,-1
 396 435 l 1,203,-1
 402 435 l 1,204,-1
 402 439 l 1,205,-1
 402 442 l 1,206,-1
 409 442 l 1,207,-1
 416 442 l 1,208,-1
 416 446 l 1,209,-1
 416 449 l 1,210,-1
 417 449 l 1,211,-1
 418 449 l 1,212,-1
 418 451 l 1,213,-1
 418 453 l 1,214,-1
 422 453 l 1,215,-1
 426 453 l 1,216,-1
 426 451 l 1,217,-1
 426 449 l 1,218,-1
 429 449 l 1,219,-1
 432 449 l 1,220,-1
 432 452 l 1,221,-1
 432 455 l 1,222,-1
 439 455 l 1,223,-1
 445 455 l 1,224,-1
 445 457 l 1,225,-1
 445 459 l 1,226,-1
 447 459 l 1,227,-1
 449 459 l 1,228,-1
 449 457 l 1,229,-1
 449 455 l 1,230,-1
 452 455 l 1,231,-1
 455 455 l 1,232,-1
 455 457 l 1,233,-1
 455 459 l 1,234,-1
 459 459 l 1,235,-1
 463 459 l 1,236,-1
 463 461 l 1,237,-1
 463 463 l 1,238,-1
 468 463 l 1,239,-1
 473 463 l 1,240,-1
 473 461 l 1,241,-1
 473 459 l 1,242,-1
 469 459 l 1,243,-1
 465 459 l 1,244,-1
 465 456 l 1,245,-1
 465 453 l 1,246,-1
 462 453 l 1,247,-1
 459 453 l 1,248,-1
 459 454 l 1,249,-1
 459 455 l 1,250,-1
 457 455 l 1,251,-1
 455 455 l 1,252,-1
 455 454 l 1,253,-1
 455 453 l 1,254,-1
 457 453 l 1,255,-1
 459 453 l 1,256,-1
 459 451 l 1,257,-1
 459 449 l 1,258,-1
 461 449 l 1,259,-1
 463 449 l 1,260,-1
 463 444 l 1,261,-1
 463 439 l 1,262,-1
 459 439 l 1,263,-1
 455 439 l 1,264,-1
 455 441 l 1,265,-1
 455 442 l 1,266,-1
 454 442 l 1,267,-1
 453 442 l 1,268,-1
 453 436 l 1,269,-1
 453 429 l 1,270,-1
 454 429 l 1,271,-1
 455 429 l 1,272,-1
 455 430 l 1,273,-1
 455 432 l 1,274,-1
 457 432 l 1,275,-1
 459 432 l 1,276,-1
 459 429 l 1,277,-1
 459 426 l 1,278,-1
 461 426 l 1,279,-1
 461 428 l 1,280,-1
 464 428 l 1,281,-1
 465 428 l 1,282,-1
 465 432 l 1,283,-1
 465 435 l 1,284,-1
 467 435 l 1,285,-1
 469 435 l 1,286,-1
 469 434 l 1,287,-1
 469 432 l 1,288,-1
 474 432 l 1,289,-1
 479 432 l 1,290,-1
 479 430 l 1,291,-1
 479 429 l 1,292,-1
 482 429 l 1,293,-1
 485 429 l 1,294,-1
 485 427 l 1,295,-1
 485 426 l 1,296,-1
 483 426 l 1,297,-1
 481 426 l 1,298,-1
 481 417 l 1,299,-1
 481 408 l 1,300,-1
 483 408 l 1,301,-1
 485 408 l 1,302,-1
 485 415 l 1,303,-1
 485 422 l 1,304,-1
 487 422 l 1,305,-1
 489 422 l 1,306,-1
 489 420 l 1,307,-1
 489 418 l 1,308,-1
 505 418 l 1,309,-1
 522 418 l 1,310,-1
 522 415 l 1,311,-1
 522 412 l 1,312,-1
 524 412 l 1,313,-1
 526 412 l 1,314,-1
 526 419 l 1,315,-1
 532 419 l 1,316,-1
 532 415 l 1,317,-1
 532 412 l 1,318,-1
 540 412 l 1,319,-1
 549 412 l 1,320,-1
 549 410 l 1,321,-1
 549 408 l 1,322,-1
 555 408 l 1,323,-1
 555 402 l 1,324,-1
 555 398 l 1,325,-1
 559 398 l 1,326,-1
 563 398 l 1,327,-1
 563 402 l 1,328,-1
 563 406 l 1,329,-1
 564 406 l 1,330,-1
 565 406 l 1,331,-1
 565 404 l 1,332,-1
 565 402 l 1,333,-1
 568 402 l 1,334,-1
 571 402 l 1,335,-1
 571 400 l 1,336,-1
 571 398 l 1,337,-1
 575 398 l 1,338,-1
 579 398 l 1,339,-1
 579 400 l 1,340,-1
 579 402 l 1,341,-1
 580 402 l 1,342,-1
 581 402 l 1,343,-1
 581 396 l 1,344,-1
 581 390 l 1,345,-1
 583 390 l 1,346,-1
 585 390 l 1,347,-1
 585 393 l 1,348,-1
 585 396 l 1,349,-1
 588 396 l 1,350,-1
 591 396 l 1,351,-1
 591 397 l 1,352,-1
 591 398 l 1,353,-1
 593 398 l 1,354,-1
 595 398 l 1,355,-1
 595 397 l 1,356,-1
 595 396 l 1,357,-1
 597 396 l 1,358,-1
 599 396 l 1,359,-1
 599 394 l 1,360,-1
 599 392 l 1,361,-1
 597 392 l 1,362,-1
 595 392 l 1,363,-1
 595 389 l 1,364,-1
 595 386 l 1,365,-1
 599 386 l 1,366,-1
 601 386 l 1,367,-1
 601 388 l 1,368,-1
 601 390 l 1,369,-1
 607 390 l 1,370,-1
 612 390 l 1,371,-1
 612 384 l 1,372,-1
 612 379 l 1,373,-1
 618 379 l 1,374,-1
 618 384 l 1,375,-1
 618 386 l 1,376,-1
 620 386 l 1,377,-1
 622 386 l 1,378,-1
 622 381 l 1,379,-1
 622 376 l 1,380,-1
 624 376 l 1,381,-1
 625 376 l 1,382,-1
 625 378 l 1,383,-1
 625 379 l 1,384,-1
 627 379 l 1,385,-1
 628 379 l 1,386,-1
 628 376 l 1,387,-1
 628 372 l 1,388,-1
 631 372 l 1,389,-1
 635 372 l 1,390,-1
 635 370 l 1,391,-1
 635 369 l 1,392,-1
 636 369 l 1,393,-1
 638 369 l 1,394,-1
 638 367 l 1,395,-1
 638 366 l 1,396,-1
 636 366 l 1,397,-1
 635 366 l 1,398,-1
 635 360 l 1,399,-1
 635 355 l 1,400,-1
 636 355 l 1,401,-1
 638 355 l 1,402,-1
 638 357 l 1,403,-1
 638 359 l 1,404,-1
 640 359 l 1,405,-1
 642 359 l 1,406,-1
 642 364 l 1,407,-1
 642 369 l 1,408,-1
 640 369 l 1,409,-1
 638 369 l 1,410,-1
 638 370 l 1,411,-1
 638 372 l 1,412,-1
 641 372 l 1,413,-1
 645 372 l 1,414,-1
 645 370 l 1,415,-1
 645 369 l 1,416,-1
 647 369 l 1,417,-1
 648 369 l 1,418,-1
 648 367 l 1,419,-1
 648 366 l 1,420,-1
 647 366 l 1,421,-1
 645 366 l 1,422,-1
 645 364 l 1,423,-1
 645 362 l 1,424,-1
 647 362 l 1,425,-1
 648 362 l 1,426,-1
 648 364 l 1,427,-1
 648 366 l 1,428,-1
 650 366 l 1,429,-1
 652 366 l 1,430,-1
 652 360 l 1,431,-1
 652 355 l 1,432,-1
 655 355 l 1,433,-1
 659 355 l 1,434,-1
 659 350 l 1,435,-1
 659 345 l 1,436,-1
 653 345 l 1,437,-1
 648 345 l 1,438,-1
 648 344 l 1,439,-1
 648 343 l 1,440,-1
 653 343 l 1,441,-1
 659 343 l 1,442,-1
 659 338 l 1,443,-1
 659 333 l 1,444,-1
 657 333 l 1,445,-1
 655 333 l 1,446,-1
 655 331 l 1,447,-1
 655 329 l 1,448,-1
 659 329 l 1,449,-1
 662 329 l 1,450,-1
 662 336 l 1,451,-1
 662 343 l 1,452,-1
 663 343 l 1,453,-1
 665 343 l 1,454,-1
 665 346 l 1,455,-1
 665 349 l 1,456,-1
 667 349 l 1,457,-1
 669 349 l 1,458,-1
 669 344 l 1,459,-1
 669 339 l 1,460,-1
 667 339 l 1,461,-1
 665 339 l 1,462,-1
 665 336 l 1,463,-1
 665 333 l 1,464,-1
 672 333 l 1,465,-1
 679 333 l 1,466,-1
 681 333 l 1,467,-1
 681 326 l 1,468,-1
 685 326 l 1,469,-1
 685 321 l 1,470,-1
 685 316 l 1,471,-1
 683 316 l 1,472,-1
 681 316 l 1,473,-1
 681 318 l 1,474,-1
 681 319 l 1,475,-1
 678 319 l 1,476,-1
 675 319 l 1,477,-1
 675 318 l 1,478,-1
 675 316 l 1,479,-1
 677 316 l 1,480,-1
 679 316 l 1,481,-1
 679 314 l 1,482,-1
 679 312 l 1,483,-1
 677 312 l 1,484,-1
 675 312 l 1,485,-1
 675 314 l 1,486,-1
 675 316 l 1,487,-1
 673 316 l 1,488,-1
 671 316 l 1,489,-1
 671 314 l 1,490,-1
 671 312 l 1,491,-1
 668 312 l 1,492,-1
 665 312 l 1,493,-1
 665 314 l 1,494,-1
 665 316 l 1,495,-1
 668 316 l 1,496,-1
 668 321 l 1,497,-1
 668 322 l 1,498,-1
 667 322 l 1,499,-1
 666 322 l 1,500,-1
 666 321 l 1,501,-1
 666 319 l 1,502,-1
 665 319 l 1,503,-1
 662 319 l 1,504,-1
 662 315 l 1,505,-1
 662 312 l 1,506,-1
 662 309 l 1,507,-1
 667 309 l 1,508,-1
 671 309 l 1,509,-1
 671 307 l 1,510,-1
 671 306 l 1,511,-1
 673 306 l 1,512,-1
 675 306 l 1,513,-1
 675 304 l 1,514,-1
 675 302 l 1,515,-1
 670 302 l 1,516,-1
 665 302 l 1,517,-1
 665 300 l 1,518,-1
 665 298 l 1,519,-1
 667 298 l 1,520,-1
 669 298 l 1,521,-1
 669 297 l 1,522,-1
 669 296 l 1,523,-1
 667 296 l 1,524,-1
 665 296 l 1,525,-1
 665 295 l 1,526,-1
 665 289 l 1,527,-1
 653 289 l 1,528,-1
 653 298 l 1,529,-1
 650 298 l 1,530,-1
 648 298 l 1,531,-1
 648 290 l 1,532,-1
 648 282 l 1,533,-1
 645 282 l 1,534,-1
 642 282 l 1,535,-1
 642 281 l 1,536,-1
 642 280 l 1,537,-1
 640 280 l 1,538,-1
 638 280 l 1,539,-1
 638 283 l 1,540,-1
 638 286 l 1,541,-1
 636 286 l 1,542,-1
 635 286 l 1,543,-1
 635 288 l 1,544,-1
 635 290 l 1,545,-1
 630 290 l 1,546,-1
 625 290 l 1,547,-1
 625 286 l 1,548,-1
 625 282 l 1,549,-1
 624 282 l 1,550,-1
 622 282 l 1,551,-1
 622 281 l 1,552,-1
 622 280 l 1,553,-1
 625 280 l 1,554,-1
 628 280 l 1,555,-1
 628 276 l 1,556,-1
 628 272 l 1,557,-1
 623 272 l 1,558,-1
 618 272 l 1,559,-1
 618 274 l 1,560,-1
 618 276 l 1,561,-1
 617 276 l 1,562,-1
 615 276 l 1,563,-1
 615 274 l 1,564,-1
 615 272 l 1,565,-1
 613 272 l 1,566,-1
 612 272 l 1,567,-1
 612 271 l 1,568,-1
 612 270 l 1,569,-1
 613 270 l 1,570,-1
 615 270 l 1,571,-1
 615 268 l 1,572,-1
 615 266 l 1,573,-1
 613 266 l 1,574,-1
 612 266 l 1,575,-1
 612 268 l 1,576,-1
 612 270 l 1,577,-1
 610 270 l 1,578,-1
 608 270 l 1,579,-1
 608 268 l 1,580,-1
 608 266 l 1,581,-1
 603 266 l 1,582,-1
 599 266 l 1,583,-1
 599 268 l 1,584,-1
 599 270 l 1,585,-1
 597 270 l 1,586,-1
 595 270 l 1,587,-1
 595 268 l 1,588,-1
 595 266 l 1,589,-1
 588 266 l 1,590,-1
 581 266 l 1,591,-1
 581 262 l 1,592,-1
 581 259 l 1,593,-1
 583 259 l 1,594,-1
 585 259 l 1,595,-1
 585 256 l 1,596,-1
 585 253 l 1,597,-1
 583 253 l 1,598,-1
 581 253 l 1,599,-1
 581 251 l 1,600,-1
 581 249 l 1,601,-1
 580 249 l 1,602,-1
 579 249 l 1,603,-1
 579 254 l 1,604,-1
 579 259 l 1,605,-1
 577 259 l 1,606,-1
 575 259 l 1,607,-1
 575 258 l 1,608,-1
 575 256 l 1,609,-1
 573 256 l 1,610,-1
 571 256 l 1,611,-1
 571 247 l 1,612,-1
 571 239 l 1,613,-1
 570 239 l 1,614,-1
 569 239 l 1,615,-1
 569 242 l 1,616,-1
 569 246 l 1,617,-1
 562 246 l 1,618,-1
 555 246 l 1,619,-1
 555 247 l 1,620,-1
 555 249 l 1,621,-1
 552 249 l 1,622,-1
 549 249 l 1,623,-1
 549 247 l 1,624,-1
 549 246 l 1,625,-1
 552 246 l 1,626,-1
 555 246 l 1,627,-1
 555 244 l 1,628,-1
 555 243 l 1,629,-1
 552 243 l 1,630,-1
 549 243 l 1,631,-1
 549 241 l 1,632,-1
 549 239 l 1,633,-1
 545 239 l 1,634,-1
 542 239 l 1,635,-1
 542 241 l 1,636,-1
 542 243 l 1,637,-1
 537 243 l 1,638,-1
 532 243 l 1,639,-1
 532 244 l 1,640,-1
 532 246 l 1,641,-1
 530 246 l 1,642,-1
 528 246 l 1,643,-1
 528 247 l 1,644,-1
 528 249 l 1,645,-1
 527 249 l 1,646,-1
 526 249 l 1,647,-1
 526 247 l 1,648,-1
 526 246 l 1,649,-1
 524 246 l 1,650,-1
 522 246 l 1,651,-1
 522 247 l 1,652,-1
 522 249 l 1,653,-1
 524 249 l 1,654,-1
 526 249 l 1,655,-1
 526 252 l 1,656,-1
 526 256 l 1,657,-1
 524 256 l 1,658,-1
 522 256 l 1,659,-1
 522 258 l 1,660,-1
 522 259 l 1,661,-1
 520 259 l 1,662,-1
 518 259 l 1,663,-1
 518 258 l 1,664,-1
 518 256 l 1,665,-1
 520 256 l 1,666,-1
 522 256 l 1,667,-1
 522 254 l 1,668,-1
 522 253 l 1,669,-1
 520 253 l 1,670,-1
 518 253 l 1,671,-1
 518 251 l 1,672,-1
 518 249 l 1,673,-1
 517 249 l 1,674,-1
 516 249 l 1,675,-1
 516 247 l 1,676,-1
 516 246 l 1,677,-1
 511 246 l 1,678,-1
 505 246 l 1,679,-1
 505 244 l 1,680,-1
 505 243 l 1,681,-1
 522 243 l 1,682,-1
 522 241 l 1,683,-1
 522 239 l 1,684,-1
 517 239 l 1,685,-1
 512 239 l 1,686,-1
 512 237 l 1,687,-1
 512 235 l 1,688,-1
 510 235 l 1,689,-1
 508 235 l 1,690,-1
 508 237 l 1,691,-1
 508 239 l 1,692,-1
 505 239 l 1,693,-1
 502 239 l 1,694,-1
 502 237 l 1,695,-1
 502 235 l 1,696,-1
 501 235 l 1,697,-1
 499 235 l 1,698,-1
 499 237 l 1,699,-1
 499 239 l 1,700,-1
 497 239 l 1,701,-1
 495 239 l 1,702,-1
 495 237 l 1,703,-1
 495 235 l 1,704,-1
 493 235 l 1,705,706
 493 230 493 230 493 224 c 0,707,708
 493 124 493 124 425 55.5 c 128,-1,709
 357 -13 357 -13 257 -13 c 0,710,711
 198 -13 198 -13 146.5 10.5 c 128,-1,712
 95 34 95 34 62 77 c 0,713,714
 21 130 21 130 14 211 c 1,158,-1
485 454 m 1,715,-1
 485 455 l 1,716,-1
 487 455 l 1,717,-1
 489 455 l 1,718,-1
 489 454 l 1,719,-1
 489 453 l 1,720,-1
 487 453 l 1,721,-1
 485 453 l 1,722,-1
 485 454 l 1,715,-1
591 404 m 1,723,-1
 591 406 l 1,724,-1
 593 406 l 1,725,-1
 595 406 l 1,726,-1
 595 404 l 1,727,-1
 595 402 l 1,728,-1
 593 402 l 1,729,-1
 591 402 l 1,730,-1
 591 404 l 1,723,-1
628 384 m 1,731,-1
 628 386 l 1,732,-1
 630 386 l 1,733,-1
 632 386 l 1,734,-1
 632 384 l 1,735,-1
 632 382 l 1,736,-1
 630 382 l 1,737,-1
 628 382 l 1,738,-1
 628 384 l 1,731,-1
671 354 m 1,739,-1
 671 355 l 1,740,-1
 673 355 l 1,741,-1
 675 355 l 1,742,-1
 675 354 l 1,743,-1
 675 353 l 1,744,-1
 673 353 l 1,745,-1
 671 353 l 1,746,-1
 671 354 l 1,739,-1
671 344 m 1,747,-1
 671 345 l 1,748,-1
 673 345 l 1,749,-1
 675 345 l 1,750,-1
 675 344 l 1,751,-1
 675 343 l 1,752,-1
 673 343 l 1,753,-1
 671 343 l 1,754,-1
 671 344 l 1,747,-1
695 321 m 1,755,-1
 695 322 l 1,756,-1
 696 322 l 1,757,-1
 698 322 l 1,758,-1
 698 321 l 1,759,-1
 698 319 l 1,760,-1
 696 319 l 1,761,-1
 695 319 l 1,762,-1
 695 321 l 1,755,-1
681 310 m 1,763,-1
 681 312 l 1,764,-1
 683 312 l 1,765,-1
 685 312 l 1,766,-1
 685 310 l 1,767,-1
 685 309 l 1,768,-1
 683 309 l 1,769,-1
 681 309 l 1,770,-1
 681 310 l 1,763,-1
632 282 m 1,771,-1
 630 282 l 1,772,-1
 628 282 l 1,773,-1
 628 284 l 1,774,-1
 628 286 l 1,775,-1
 630 286 l 1,776,-1
 632 286 l 1,777,-1
 632 284 l 1,778,-1
 632 282 l 1,771,-1
595 259 m 1,779,-1
 595 262 l 1,780,-1
 603 262 l 1,781,-1
 605 262 l 1,782,-1
 605 260 l 1,783,-1
 605 259 l 1,784,-1
 603 259 l 1,785,-1
 601 259 l 1,786,-1
 601 258 l 1,787,-1
 601 256 l 1,788,-1
 599 256 l 1,789,-1
 595 256 l 1,790,-1
 595 259 l 1,779,-1
555 234 m 1,791,-1
 555 235 l 1,792,-1
 557 235 l 1,793,-1
 559 235 l 1,794,-1
 559 234 l 1,795,-1
 559 233 l 1,796,-1
 557 233 l 1,797,-1
 555 233 l 1,798,-1
 555 234 l 1,791,-1
542 234 m 1,799,-1
 542 235 l 1,800,-1
 545 235 l 1,801,-1
 549 235 l 1,802,-1
 549 234 l 1,803,-1
 549 233 l 1,804,-1
 545 233 l 1,805,-1
 542 233 l 1,806,-1
 542 234 l 1,799,-1
449 447 m 1,807,-1
 449 449 l 1,808,-1
 447 449 l 1,809,-1
 445 449 l 1,810,-1
 445 447 l 1,811,-1
 445 445 l 1,812,-1
 447 445 l 1,813,-1
 449 445 l 1,814,-1
 449 447 l 1,807,-1
436 434 m 1,815,-1
 436 435 l 1,816,-1
 434 435 l 1,817,-1
 432 435 l 1,818,-1
 432 434 l 1,819,-1
 432 432 l 1,820,-1
 434 432 l 1,821,-1
 436 432 l 1,822,-1
 436 434 l 1,815,-1
429 436 m 1,823,-1
 429 439 l 1,824,-1
 427 439 l 1,825,-1
 426 439 l 1,826,-1
 426 437 l 1,827,-1
 426 435 l 1,828,-1
 424 435 l 1,829,-1
 422 435 l 1,830,-1
 422 434 l 1,831,-1
 422 432 l 1,832,-1
 425 432 l 1,833,-1
 429 432 l 1,834,-1
 429 436 l 1,823,-1
409 430 m 1,835,-1
 409 432 l 1,836,-1
 408 432 l 1,837,-1
 406 432 l 1,838,-1
 406 430 l 1,839,-1
 406 429 l 1,840,-1
 408 429 l 1,841,-1
 409 429 l 1,842,-1
 409 430 l 1,835,-1
479 424 m 1,843,-1
 479 426 l 1,844,-1
 477 426 l 1,845,-1
 475 426 l 1,846,-1
 475 429 l 1,847,-1
 473 429 l 1,848,-1
 473 426 l 1,849,-1
 473 422 l 1,850,-1
 476 422 l 1,851,-1
 479 422 l 1,852,-1
 479 424 l 1,843,-1
469 424 m 1,853,-1
 469 426 l 1,854,-1
 466 426 l 1,855,-1
 463 426 l 1,856,-1
 463 424 l 1,857,-1
 463 422 l 1,858,-1
 466 422 l 1,859,-1
 469 422 l 1,860,-1
 469 424 l 1,853,-1
459 420 m 1,861,-1
 459 422 l 1,862,-1
 457 422 l 1,863,-1
 455 422 l 1,864,-1
 455 420 l 1,865,-1
 455 418 l 1,866,-1
 457 418 l 1,867,-1
 459 418 l 1,868,-1
 459 420 l 1,861,-1
432 417 m 1,869,-1
 432 418 l 1,870,-1
 435 418 l 1,871,-1
 439 418 l 1,872,-1
 439 420 l 1,873,-1
 439 422 l 1,874,-1
 437 422 l 1,875,-1
 436 422 l 1,876,-1
 436 424 l 1,877,-1
 436 426 l 1,878,-1
 442 426 l 1,879,-1
 449 426 l 1,880,-1
 449 427 l 1,881,-1
 449 429 l 1,882,-1
 447 429 l 1,883,-1
 445 429 l 1,884,-1
 445 430 l 1,885,-1
 445 432 l 1,886,-1
 444 432 l 1,887,-1
 442 432 l 1,888,-1
 442 430 l 1,889,-1
 442 429 l 1,890,-1
 437 429 l 1,891,-1
 432 429 l 1,892,-1
 432 427 l 1,893,-1
 432 426 l 1,894,-1
 425 426 l 1,895,-1
 418 426 l 1,896,-1
 418 424 l 1,897,-1
 418 422 l 1,898,-1
 420 422 l 1,899,-1
 422 422 l 1,900,-1
 422 420 l 1,901,-1
 422 418 l 1,902,-1
 424 418 l 1,903,-1
 426 418 l 1,904,-1
 426 420 l 1,905,-1
 426 422 l 1,906,-1
 427 422 l 1,907,-1
 429 422 l 1,908,-1
 429 419 l 1,909,-1
 429 416 l 1,910,-1
 430 416 l 1,911,-1
 432 416 l 1,912,-1
 432 417 l 1,869,-1
492 414 m 1,913,-1
 492 416 l 1,914,-1
 490 416 l 1,915,-1
 489 416 l 1,916,-1
 489 414 l 1,917,-1
 489 412 l 1,918,-1
 490 412 l 1,919,-1
 492 412 l 1,920,-1
 492 414 l 1,913,-1
439 414 m 1,921,-1
 439 416 l 1,922,-1
 437 416 l 1,923,-1
 436 416 l 1,924,-1
 436 414 l 1,925,-1
 436 412 l 1,926,-1
 437 412 l 1,927,-1
 439 412 l 1,928,-1
 439 414 l 1,921,-1
422 414 m 1,929,-1
 422 416 l 1,930,-1
 420 416 l 1,931,-1
 419 416 l 1,932,-1
 419 414 l 1,933,-1
 419 412 l 1,934,-1
 420 412 l 1,935,-1
 422 412 l 1,936,-1
 422 414 l 1,929,-1
518 410 m 1,937,-1
 518 412 l 1,938,-1
 517 412 l 1,939,-1
 516 412 l 1,940,-1
 516 410 l 1,941,-1
 516 408 l 1,942,-1
 517 408 l 1,943,-1
 518 408 l 1,944,-1
 518 410 l 1,937,-1
455 410 m 1,945,-1
 455 412 l 1,946,-1
 454 412 l 1,947,-1
 453 412 l 1,948,-1
 453 410 l 1,949,-1
 453 408 l 1,950,-1
 454 408 l 1,951,-1
 455 408 l 1,952,-1
 455 410 l 1,945,-1
512 407 m 1,953,-1
 512 408 l 1,954,-1
 510 408 l 1,955,-1
 508 408 l 1,956,-1
 508 407 l 1,957,-1
 508 406 l 1,958,-1
 510 406 l 1,959,-1
 512 406 l 1,960,-1
 512 407 l 1,953,-1
518 404 m 1,961,-1
 518 406 l 1,962,-1
 517 406 l 1,963,-1
 516 406 l 1,964,-1
 516 404 l 1,965,-1
 516 402 l 1,966,-1
 517 402 l 1,967,-1
 518 402 l 1,968,-1
 518 404 l 1,961,-1
579 394 m 1,969,-1
 579 396 l 1,970,-1
 577 396 l 1,971,-1
 575 396 l 1,972,-1
 575 394 l 1,973,-1
 575 392 l 1,974,-1
 577 392 l 1,975,-1
 579 392 l 1,976,-1
 579 394 l 1,969,-1
528 393 m 1,977,-1
 528 398 l 1,978,-1
 525 398 l 1,979,-1
 520 398 l 1,980,-1
 516 398 l 1,981,-1
 516 396 l 1,982,-1
 518 396 l 1,983,-1
 518 394 l 1,984,-1
 518 392 l 1,985,-1
 523 392 l 1,986,-1
 528 392 l 1,987,-1
 528 393 l 1,977,-1
512 394 m 1,988,-1
 512 396 l 1,989,-1
 510 396 l 1,990,-1
 508 396 l 1,991,-1
 508 394 l 1,992,-1
 508 392 l 1,993,-1
 510 392 l 1,994,-1
 512 392 l 1,995,-1
 512 394 l 1,988,-1
499 397 m 1,996,-1
 499 402 l 1,997,-1
 495 402 l 1,998,-1
 492 402 l 1,999,-1
 492 400 l 1,1000,-1
 492 398 l 1,1001,-1
 489 398 l 1,1002,-1
 485 398 l 1,1003,-1
 485 395 l 1,1004,-1
 485 392 l 1,1005,-1
 492 392 l 1,1006,-1
 499 392 l 1,1007,-1
 499 397 l 1,996,-1
481 394 m 1,1008,-1
 481 396 l 1,1009,-1
 481 398 l 1,1010,-1
 481 400 l 1,1011,-1
 481 402 l 1,1012,-1
 480 402 l 1,1013,-1
 479 402 l 1,1014,-1
 479 400 l 1,1015,-1
 479 398 l 1,1016,-1
 477 398 l 1,1017,-1
 475 398 l 1,1018,-1
 475 397 l 1,1019,-1
 475 396 l 1,1020,-1
 477 396 l 1,1021,-1
 479 396 l 1,1022,-1
 479 394 l 1,1023,-1
 479 392 l 1,1024,-1
 480 392 l 1,1025,-1
 481 392 l 1,1026,-1
 481 394 l 1,1008,-1
465 394 m 1,1027,-1
 465 396 l 1,1028,-1
 464 396 l 1,1029,-1
 463 396 l 1,1030,-1
 463 394 l 1,1031,-1
 463 392 l 1,1032,-1
 464 392 l 1,1033,-1
 465 392 l 1,1034,-1
 465 394 l 1,1027,-1
473 393 m 1,1035,-1
 473 396 l 1,1036,-1
 471 396 l 1,1037,-1
 469 396 l 1,1038,-1
 469 393 l 1,1039,-1
 469 390 l 1,1040,-1
 471 390 l 1,1041,-1
 473 390 l 1,1042,-1
 473 393 l 1,1035,-1
608 384 m 1,1043,-1
 608 386 l 1,1044,-1
 607 386 l 1,1045,-1
 605 386 l 1,1046,-1
 605 384 l 1,1047,-1
 605 382 l 1,1048,-1
 607 382 l 1,1049,-1
 608 382 l 1,1050,-1
 608 384 l 1,1043,-1
591 386 m 1,1051,-1
 591 390 l 1,1052,-1
 590 390 l 1,1053,-1
 589 390 l 1,1054,-1
 589 386 l 1,1055,-1
 589 382 l 1,1056,-1
 590 382 l 1,1057,-1
 591 382 l 1,1058,-1
 591 386 l 1,1051,-1
563 384 m 1,1059,-1
 563 386 l 1,1060,-1
 565 386 l 1,1061,-1
 569 386 l 1,1062,-1
 569 388 l 1,1063,-1
 569 390 l 1,1064,-1
 565 390 l 1,1065,-1
 563 390 l 1,1066,-1
 563 391 l 1,1067,-1
 563 392 l 1,1068,-1
 559 392 l 1,1069,-1
 555 392 l 1,1070,-1
 555 394 l 1,1071,-1
 555 396 l 1,1072,-1
 552 396 l 1,1073,-1
 549 396 l 1,1074,-1
 549 397 l 1,1075,-1
 549 398 l 1,1076,-1
 547 398 l 1,1077,-1
 545 398 l 1,1078,-1
 545 397 l 1,1079,-1
 545 396 l 1,1080,-1
 540 396 l 1,1081,-1
 536 396 l 1,1082,-1
 536 397 l 1,1083,-1
 536 398 l 1,1084,-1
 534 398 l 1,1085,-1
 532 398 l 1,1086,-1
 532 395 l 1,1087,-1
 532 392 l 1,1088,-1
 537 392 l 1,1089,-1
 542 392 l 1,1090,-1
 542 391 l 1,1091,-1
 542 390 l 1,1092,-1
 545 390 l 1,1093,-1
 549 390 l 1,1094,-1
 549 388 l 1,1095,-1
 549 386 l 1,1096,-1
 551 386 l 1,1097,-1
 552 386 l 1,1098,-1
 552 388 l 1,1099,-1
 552 390 l 1,1100,-1
 553 390 l 1,1101,-1
 555 390 l 1,1102,-1
 555 388 l 1,1103,-1
 555 386 l 1,1104,-1
 557 386 l 1,1105,-1
 559 386 l 1,1106,-1
 559 384 l 1,1107,-1
 559 382 l 1,1108,-1
 561 382 l 1,1109,-1
 563 382 l 1,1110,-1
 563 384 l 1,1059,-1
608 378 m 1,1111,-1
 608 379 l 1,1112,-1
 607 379 l 1,1113,-1
 605 379 l 1,1114,-1
 605 378 l 1,1115,-1
 605 376 l 1,1116,-1
 607 376 l 1,1117,-1
 608 376 l 1,1118,-1
 608 378 l 1,1111,-1
615 374 m 1,1119,-1
 615 376 l 1,1120,-1
 613 376 l 1,1121,-1
 612 376 l 1,1122,-1
 612 374 l 1,1123,-1
 612 372 l 1,1124,-1
 613 372 l 1,1125,-1
 615 372 l 1,1126,-1
 615 374 l 1,1119,-1
625 364 m 1,1127,-1
 625 366 l 1,1128,-1
 624 366 l 1,1129,-1
 622 366 l 1,1130,-1
 622 364 l 1,1131,-1
 622 362 l 1,1132,-1
 624 362 l 1,1133,-1
 625 362 l 1,1134,-1
 625 364 l 1,1127,-1
591 364 m 1,1135,-1
 591 366 l 1,1136,-1
 593 366 l 1,1137,-1
 595 366 l 1,1138,-1
 595 367 l 1,1139,-1
 595 369 l 1,1140,-1
 590 369 l 1,1141,-1
 590 376 l 1,1142,-1
 587 376 l 1,1143,-1
 585 376 l 1,1144,-1
 585 378 l 1,1145,-1
 585 379 l 1,1146,-1
 583 379 l 1,1147,-1
 581 379 l 1,1148,-1
 581 378 l 1,1149,-1
 581 376 l 1,1150,-1
 580 376 l 1,1151,-1
 579 376 l 1,1152,-1
 579 378 l 1,1153,-1
 579 379 l 1,1154,-1
 574 379 l 1,1155,-1
 569 379 l 1,1156,-1
 569 378 l 1,1157,-1
 569 376 l 1,1158,-1
 572 376 l 1,1159,-1
 575 376 l 1,1160,-1
 575 374 l 1,1161,-1
 575 372 l 1,1162,-1
 578 372 l 1,1163,-1
 581 372 l 1,1164,-1
 581 370 l 1,1165,-1
 581 369 l 1,1166,-1
 583 369 l 1,1167,-1
 585 369 l 1,1168,-1
 585 366 l 1,1169,-1
 585 362 l 1,1170,-1
 588 362 l 1,1171,-1
 591 362 l 1,1172,-1
 591 364 l 1,1135,-1
599 357 m 1,1173,-1
 599 359 l 1,1174,-1
 600 359 l 1,1175,-1
 601 359 l 1,1176,-1
 601 357 l 1,1177,-1
 601 355 l 1,1178,-1
 605 355 l 1,1179,-1
 608 355 l 1,1180,-1
 608 361 l 1,1181,-1
 601 361 l 1,1182,-1
 601 364 l 1,1183,-1
 601 366 l 1,1184,-1
 600 366 l 1,1185,-1
 599 366 l 1,1186,-1
 599 364 l 1,1187,-1
 599 362 l 1,1188,-1
 597 362 l 1,1189,-1
 595 362 l 1,1190,-1
 595 358 l 1,1191,-1
 595 355 l 1,1192,-1
 597 355 l 1,1193,-1
 599 355 l 1,1194,-1
 599 357 l 1,1173,-1
632 354 m 1,1195,-1
 632 355 l 1,1196,-1
 630 355 l 1,1197,-1
 628 355 l 1,1198,-1
 628 354 l 1,1199,-1
 628 353 l 1,1200,-1
 630 353 l 1,1201,-1
 632 353 l 1,1202,-1
 632 354 l 1,1195,-1
655 351 m 1,1203,-1
 655 353 l 1,1204,-1
 650 353 l 1,1205,-1
 645 353 l 1,1206,-1
 645 351 l 1,1207,-1
 645 349 l 1,1208,-1
 650 349 l 1,1209,-1
 655 349 l 1,1210,-1
 655 351 l 1,1203,-1
642 344 m 1,1211,-1
 642 345 l 1,1212,-1
 640 345 l 1,1213,-1
 638 345 l 1,1214,-1
 638 344 l 1,1215,-1
 638 343 l 1,1216,-1
 640 343 l 1,1217,-1
 642 343 l 1,1218,-1
 642 344 l 1,1211,-1
622 341 m 1,1219,-1
 622 343 l 1,1220,-1
 620 343 l 1,1221,-1
 618 343 l 1,1222,-1
 618 341 l 1,1223,-1
 618 339 l 1,1224,-1
 620 339 l 1,1225,-1
 622 339 l 1,1226,-1
 622 341 l 1,1219,-1
648 334 m 1,1227,-1
 648 335 l 1,1228,-1
 645 335 l 1,1229,-1
 642 335 l 1,1230,-1
 642 334 l 1,1231,-1
 642 333 l 1,1232,-1
 645 333 l 1,1233,-1
 648 333 l 1,1234,-1
 648 334 l 1,1227,-1
679 326 m 1,1235,-1
 679 329 l 1,1236,-1
 677 329 l 1,1237,-1
 675 329 l 1,1238,-1
 675 326 l 1,1239,-1
 675 322 l 1,1240,-1
 677 322 l 1,1241,-1
 679 322 l 1,1242,-1
 679 326 l 1,1235,-1
652 310 m 1,1243,-1
 652 312 l 1,1244,-1
 648 312 l 1,1245,-1
 645 312 l 1,1246,-1
 645 310 l 1,1247,-1
 645 309 l 1,1248,-1
 648 309 l 1,1249,-1
 652 309 l 1,1250,-1
 652 310 l 1,1243,-1
632 306 m 1,1251,-1
 632 309 l 1,1252,-1
 630 309 l 1,1253,-1
 628 309 l 1,1254,-1
 628 306 l 1,1255,-1
 628 302 l 1,1256,-1
 630 302 l 1,1257,-1
 632 302 l 1,1258,-1
 632 306 l 1,1251,-1
589 304 m 1,1259,-1
 589 306 l 1,1260,-1
 587 306 l 1,1261,-1
 585 306 l 1,1262,-1
 585 304 l 1,1263,-1
 585 302 l 1,1264,-1
 587 302 l 1,1265,-1
 589 302 l 1,1266,-1
 589 304 l 1,1259,-1
615 299 m 1,1267,-1
 615 302 l 1,1268,-1
 613 302 l 1,1269,-1
 612 302 l 1,1270,-1
 612 304 l 1,1271,-1
 612 306 l 1,1272,-1
 610 306 l 1,1273,-1
 608 306 l 1,1274,-1
 608 301 l 1,1275,-1
 608 296 l 1,1276,-1
 612 296 l 1,1277,-1
 615 296 l 1,1278,-1
 615 299 l 1,1267,-1
605 297 m 1,1279,-1
 605 298 l 1,1280,-1
 602 298 l 1,1281,-1
 599 298 l 1,1282,-1
 599 297 l 1,1283,-1
 599 296 l 1,1284,-1
 602 296 l 1,1285,-1
 605 296 l 1,1286,-1
 605 297 l 1,1279,-1
634 299 m 1,1287,-1
 628 299 l 1,1288,-1
 628 295 l 1,1289,-1
 628 292 l 1,1290,-1
 631 292 l 1,1291,-1
 634 292 l 1,1292,-1
 634 299 l 1,1287,-1
645 291 m 1,1293,-1
 645 292 l 1,1294,-1
 641 292 l 1,1295,-1
 638 292 l 1,1296,-1
 638 291 l 1,1297,-1
 638 290 l 1,1298,-1
 641 290 l 1,1299,-1
 645 290 l 1,1300,-1
 645 291 l 1,1293,-1
599 291 m 1,1301,-1
 599 292 l 1,1302,-1
 595 292 l 1,1303,-1
 591 292 l 1,1304,-1
 591 291 l 1,1305,-1
 591 290 l 1,1306,-1
 595 290 l 1,1307,-1
 599 290 l 1,1308,-1
 599 291 l 1,1301,-1
581 288 m 1,1309,-1
 581 290 l 1,1310,-1
 583 290 l 1,1311,-1
 585 290 l 1,1312,-1
 585 291 l 1,1313,-1
 585 292 l 1,1314,-1
 579 292 l 1,1315,-1
 579 286 l 1,1316,-1
 580 286 l 1,1317,-1
 581 286 l 1,1318,-1
 581 288 l 1,1309,-1
615 284 m 1,1319,-1
 615 286 l 1,1320,-1
 613 286 l 1,1321,-1
 612 286 l 1,1322,-1
 612 284 l 1,1323,-1
 612 282 l 1,1324,-1
 613 282 l 1,1325,-1
 615 282 l 1,1326,-1
 615 284 l 1,1319,-1
559 284 m 1,1327,-1
 559 286 l 1,1328,-1
 557 286 l 1,1329,-1
 555 286 l 1,1330,-1
 555 284 l 1,1331,-1
 555 282 l 1,1332,-1
 557 282 l 1,1333,-1
 559 282 l 1,1334,-1
 559 284 l 1,1327,-1
555 278 m 1,1335,-1
 555 280 l 1,1336,-1
 552 280 l 1,1337,-1
 549 280 l 1,1338,-1
 549 278 l 1,1339,-1
 549 276 l 1,1340,-1
 552 276 l 1,1341,-1
 555 276 l 1,1342,-1
 555 278 l 1,1335,-1
502 281 m 1,1343,-1
 502 282 l 1,1344,-1
 504 282 l 1,1345,-1
 505 282 l 1,1346,-1
 505 281 l 1,1347,-1
 505 280 l 1,1348,-1
 504 280 l 1,1349,-1
 502 280 l 1,1350,-1
 502 281 l 1,1343,-1
489 274 m 1,1351,-1
 489 276 l 1,1352,-1
 494 276 l 1,1353,-1
 499 276 l 1,1354,-1
 499 274 l 1,1355,-1
 499 272 l 1,1356,-1
 509 272 l 1,1357,-1
 518 272 l 1,1358,-1
 518 274 l 1,1359,-1
 518 276 l 1,1360,-1
 522 276 l 1,1361,-1
 526 276 l 1,1362,-1
 526 274 l 1,1363,-1
 526 272 l 1,1364,-1
 532 272 l 1,1365,-1
 539 272 l 1,1366,-1
 539 274 l 1,1367,-1
 539 276 l 1,1368,-1
 541 276 l 1,1369,-1
 545 276 l 1,1370,-1
 545 279 l 1,1371,-1
 545 282 l 1,1372,-1
 542 282 l 1,1373,-1
 542 280 l 1,1374,-1
 539 280 l 1,1375,-1
 536 280 l 1,1376,-1
 536 281 l 1,1377,-1
 536 282 l 1,1378,-1
 534 282 l 1,1379,-1
 532 282 l 1,1380,-1
 532 281 l 1,1381,-1
 532 280 l 1,1382,-1
 522 280 l 1,1383,-1
 512 280 l 1,1384,-1
 512 281 l 1,1385,-1
 512 282 l 1,1386,-1
 514 282 l 1,1387,-1
 516 282 l 1,1388,-1
 516 284 l 1,1389,-1
 516 286 l 1,1390,-1
 519 286 l 1,1391,-1
 522 286 l 1,1392,-1
 522 284 l 1,1393,-1
 522 282 l 1,1394,-1
 525 282 l 1,1395,-1
 528 282 l 1,1396,-1
 528 286 l 1,1397,-1
 528 290 l 1,1398,-1
 530 290 l 1,1399,-1
 532 290 l 1,1400,-1
 532 291 l 1,1401,-1
 532 292 l 1,1402,-1
 535 292 l 1,1403,-1
 539 292 l 1,1404,-1
 539 294 l 1,1405,-1
 539 296 l 1,1406,-1
 540 296 l 1,1407,-1
 542 296 l 1,1408,-1
 542 293 l 1,1409,-1
 542 290 l 1,1410,-1
 543 290 l 1,1411,-1
 545 290 l 1,1412,-1
 545 288 l 1,1413,-1
 545 286 l 1,1414,-1
 547 286 l 1,1415,-1
 549 286 l 1,1416,-1
 549 289 l 1,1417,-1
 549 292 l 1,1418,-1
 547 292 l 1,1419,-1
 545 292 l 1,1420,-1
 545 294 l 1,1421,-1
 545 296 l 1,1422,-1
 549 296 l 1,1423,-1
 552 296 l 1,1424,-1
 552 293 l 1,1425,-1
 552 290 l 1,1426,-1
 555 290 l 1,1427,-1
 555 292 l 1,1428,-1
 557 292 l 1,1429,-1
 559 292 l 1,1430,-1
 559 294 l 1,1431,-1
 559 296 l 1,1432,-1
 562 296 l 1,1433,-1
 565 296 l 1,1434,-1
 565 297 l 1,1435,-1
 565 298 l 1,1436,-1
 567 298 l 1,1437,-1
 569 298 l 1,1438,-1
 569 300 l 1,1439,-1
 569 302 l 1,1440,-1
 570 302 l 1,1441,-1
 571 302 l 1,1442,-1
 571 306 l 1,1443,-1
 571 309 l 1,1444,-1
 573 309 l 1,1445,-1
 575 309 l 1,1446,-1
 575 306 l 1,1447,-1
 575 302 l 1,1448,-1
 577 302 l 1,1449,-1
 579 302 l 1,1450,-1
 579 304 l 1,1451,-1
 579 306 l 1,1452,-1
 582 306 l 1,1453,-1
 585 306 l 1,1454,-1
 585 307 l 1,1455,-1
 585 309 l 1,1456,-1
 588 309 l 1,1457,-1
 591 309 l 1,1458,-1
 591 312 l 1,1459,-1
 591 316 l 1,1460,-1
 593 316 l 1,1461,-1
 595 316 l 1,1462,-1
 595 312 l 1,1463,-1
 595 309 l 1,1464,-1
 597 309 l 1,1465,-1
 599 309 l 1,1466,-1
 599 312 l 1,1467,-1
 599 316 l 1,1468,-1
 602 316 l 1,1469,-1
 605 316 l 1,1470,-1
 605 318 l 1,1471,-1
 605 319 l 1,1472,-1
 611 319 l 1,1473,-1
 615 319 l 1,1474,-1
 615 321 l 1,1475,-1
 615 322 l 1,1476,-1
 613 322 l 1,1477,-1
 612 322 l 1,1478,-1
 612 324 l 1,1479,-1
 612 326 l 1,1480,-1
 605 326 l 1,1481,-1
 599 326 l 1,1482,-1
 599 328 l 1,1483,-1
 599 329 l 1,1484,-1
 603 329 l 1,1485,-1
 608 329 l 1,1486,-1
 608 331 l 1,1487,-1
 608 333 l 1,1488,-1
 605 333 l 1,1489,-1
 601 333 l 1,1490,-1
 601 334 l 1,1491,-1
 601 335 l 1,1492,-1
 603 335 l 1,1493,-1
 605 335 l 1,1494,-1
 605 337 l 1,1495,-1
 605 339 l 1,1496,-1
 600 339 l 1,1497,-1
 595 339 l 1,1498,-1
 595 346 l 1,1499,-1
 595 353 l 1,1500,-1
 592 353 l 1,1501,-1
 589 353 l 1,1502,-1
 589 354 l 1,1503,-1
 589 355 l 1,1504,-1
 587 355 l 1,1505,-1
 585 355 l 1,1506,-1
 585 357 l 1,1507,-1
 585 359 l 1,1508,-1
 584 359 l 1,1509,-1
 579 359 l 1,1510,-1
 579 366 l 1,1511,-1
 577 366 l 1,1512,-1
 575 366 l 1,1513,-1
 575 364 l 1,1514,-1
 575 362 l 1,1515,-1
 573 362 l 1,1516,-1
 571 362 l 1,1517,-1
 571 366 l 1,1518,-1
 571 369 l 1,1519,-1
 569 369 l 1,1520,-1
 566 369 l 1,1521,-1
 562 369 l 1,1522,-1
 562 376 l 1,1523,-1
 557 376 l 1,1524,-1
 552 376 l 1,1525,-1
 552 378 l 1,1526,-1
 552 379 l 1,1527,-1
 549 379 l 1,1528,-1
 545 379 l 1,1529,-1
 545 381 l 1,1530,-1
 545 382 l 1,1531,-1
 539 382 l 1,1532,-1
 532 382 l 1,1533,-1
 532 386 l 1,1534,-1
 532 390 l 1,1535,-1
 530 390 l 1,1536,-1
 528 390 l 1,1537,-1
 528 388 l 1,1538,-1
 528 386 l 1,1539,-1
 517 386 l 1,1540,-1
 505 386 l 1,1541,-1
 505 388 l 1,1542,-1
 505 390 l 1,1543,-1
 497 390 l 1,1544,-1
 489 390 l 1,1545,-1
 489 386 l 1,1546,-1
 489 382 l 1,1547,-1
 487 382 l 1,1548,-1
 485 382 l 1,1549,-1
 485 384 l 1,1550,-1
 485 386 l 1,1551,-1
 480 386 l 1,1552,-1
 475 386 l 1,1553,-1
 475 384 l 1,1554,-1
 475 382 l 1,1555,-1
 472 382 l 1,1556,-1
 469 382 l 1,1557,-1
 469 381 l 1,1558,-1
 469 379 l 1,1559,-1
 467 379 l 1,1560,-1
 465 379 l 1,1561,-1
 465 381 l 2,1562,1563
 465 382 465 382 464 382 c 2,1564,-1
 463 382 l 1,1565,-1
 463 379 l 1,1566,-1
 463 376 l 1,1567,-1
 459 376 l 1,1568,-1
 455 376 l 1,1569,-1
 455 374 l 1,1570,-1
 455 372 l 1,1571,-1
 452 372 l 1,1572,-1
 449 372 l 1,1573,-1
 449 370 l 1,1574,-1
 449 369 l 1,1575,-1
 447 369 l 1,1576,-1
 445 369 l 1,1577,-1
 445 367 l 1,1578,-1
 445 366 l 1,1579,-1
 442 366 l 1,1580,-1
 439 366 l 1,1581,1582
 448 356 448 356 455 346 c 1,1583,-1
 455 349 l 1,1584,-1
 457 349 l 1,1585,-1
 459 349 l 1,1586,-1
 459 352 l 1,1587,-1
 459 355 l 1,1588,-1
 461 355 l 1,1589,-1
 463 355 l 1,1590,-1
 463 358 l 1,1591,-1
 463 362 l 1,1592,-1
 464 362 l 1,1593,-1
 465 362 l 1,1594,-1
 465 364 l 1,1595,-1
 465 366 l 1,1596,-1
 467 366 l 1,1597,-1
 469 366 l 1,1598,-1
 469 369 l 1,1599,-1
 469 372 l 1,1600,-1
 472 372 l 1,1601,-1
 475 372 l 1,1602,-1
 475 374 l 1,1603,-1
 475 376 l 1,1604,-1
 482 376 l 1,1605,-1
 489 376 l 1,1606,-1
 489 378 l 1,1607,-1
 489 379 l 1,1608,-1
 499 379 l 1,1609,-1
 508 379 l 1,1610,-1
 508 378 l 1,1611,-1
 508 376 l 1,1612,-1
 512 376 l 1,1613,-1
 516 376 l 1,1614,-1
 516 374 l 1,1615,-1
 516 372 l 1,1616,-1
 519 372 l 1,1617,-1
 522 372 l 1,1618,-1
 522 370 l 1,1619,-1
 522 369 l 1,1620,-1
 524 369 l 1,1621,-1
 526 369 l 1,1622,-1
 526 367 l 1,1623,-1
 526 366 l 1,1624,-1
 527 366 l 1,1625,-1
 528 366 l 1,1626,-1
 528 364 l 1,1627,-1
 528 362 l 1,1628,-1
 530 362 l 1,1629,-1
 532 362 l 1,1630,-1
 532 358 l 1,1631,-1
 532 355 l 1,1632,-1
 526 355 l 1,1633,-1
 519 355 l 1,1634,-1
 517 355 l 1,1635,-1
 517 350 l 1,1636,-1
 517 349 l 1,1637,-1
 514 349 l 1,1638,-1
 512 349 l 1,1639,-1
 512 344 l 1,1640,-1
 512 339 l 1,1641,-1
 514 339 l 1,1642,-1
 516 339 l 1,1643,-1
 516 337 l 1,1644,-1
 516 335 l 1,1645,-1
 521 335 l 1,1646,-1
 526 335 l 1,1647,-1
 526 337 l 1,1648,-1
 526 339 l 1,1649,-1
 529 339 l 1,1650,-1
 532 339 l 1,1651,-1
 532 341 l 1,1652,-1
 532 343 l 1,1653,-1
 534 343 l 1,1654,-1
 536 343 l 1,1655,-1
 536 346 l 1,1656,-1
 536 349 l 1,1657,-1
 537 349 l 1,1658,-1
 539 349 l 1,1659,-1
 539 346 l 1,1660,-1
 539 343 l 1,1661,-1
 540 343 l 1,1662,-1
 542 343 l 1,1663,-1
 542 334 l 1,1664,-1
 542 326 l 1,1665,-1
 540 326 l 1,1666,-1
 539 326 l 1,1667,-1
 539 321 l 1,1668,-1
 539 316 l 1,1669,-1
 537 316 l 1,1670,-1
 536 316 l 1,1671,-1
 536 312 l 1,1672,-1
 536 309 l 1,1673,-1
 534 309 l 1,1674,-1
 532 309 l 1,1675,-1
 532 306 l 1,1676,-1
 532 302 l 1,1677,-1
 530 302 l 1,1678,-1
 528 302 l 1,1679,-1
 528 296 l 1,1680,-1
 522 296 l 1,1681,-1
 522 293 l 1,1682,-1
 522 290 l 1,1683,-1
 515 290 l 1,1684,-1
 508 290 l 1,1685,-1
 508 288 l 1,1686,-1
 508 286 l 1,1687,-1
 507 286 l 1,1688,-1
 505 286 l 1,1689,-1
 505 288 l 1,1690,-1
 505 290 l 1,1691,-1
 497 290 l 1,1692,-1
 489 290 l 1,1693,-1
 489 288 l 1,1694,-1
 489 286 l 1,1695,-1
 492 286 l 1,1696,-1
 495 286 l 1,1697,-1
 495 284 l 1,1698,-1
 495 282 l 1,1699,-1
 493 282 l 1,1700,-1
 492 282 l 1,1701,-1
 492 281 l 1,1702,-1
 492 280 l 1,1703,-1
 489 280 l 1,1704,-1
 486 280 l 1,1705,1706
 488 272 l 1,1707,-1
 489 272 l 1,1708,-1
 489 274 l 1,1351,-1
549 268 m 1,1709,-1
 549 270 l 1,1710,-1
 547 270 l 1,1711,-1
 545 270 l 1,1712,-1
 545 268 l 1,1713,-1
 545 266 l 1,1714,-1
 547 266 l 1,1715,-1
 549 266 l 1,1716,-1
 549 268 l 1,1709,-1
565 254 m 1,1717,-1
 565 259 l 1,1718,-1
 564 259 l 1,1719,-1
 563 259 l 1,1720,-1
 563 254 l 1,1721,-1
 563 249 l 1,1722,-1
 564 249 l 1,1723,-1
 565 249 l 1,1724,-1
 565 254 l 1,1717,-1
536 251 m 1,1725,-1
 536 253 l 1,1726,-1
 534 253 l 1,1727,-1
 532 253 l 1,1728,-1
 532 251 l 1,1729,-1
 532 249 l 1,1730,-1
 534 249 l 1,1731,-1
 536 249 l 1,1732,-1
 536 251 l 1,1725,-1
508 251 m 1,1733,-1
 508 253 l 1,1734,-1
 507 253 l 1,1735,-1
 505 253 l 1,1736,-1
 505 251 l 1,1737,-1
 505 249 l 1,1738,-1
 507 249 l 1,1739,-1
 508 249 l 1,1740,-1
 508 251 l 1,1733,-1
499 244 m 1,1741,-1
 499 246 l 1,1742,-1
 497 246 l 1,1743,-1
 495 246 l 1,1744,-1
 495 244 l 1,1745,-1
 495 243 l 1,1746,-1
 497 243 l 1,1747,-1
 499 243 l 1,1748,-1
 499 244 l 1,1741,-1
502 231 m 1,1749,-1
 502 233 l 1,1750,-1
 504 233 l 1,1751,-1
 505 233 l 1,1752,-1
 505 231 l 1,1753,-1
 505 229 l 1,1754,-1
 504 229 l 1,1755,-1
 502 229 l 1,1756,-1
 502 231 l 1,1749,-1
475 459 m 1,1757,-1
 475 457 l 1,1758,-1
 475 455 l 1,1759,-1
 474 455 l 1,1760,-1
 473 455 l 1,1761,-1
 473 457 l 1,1762,-1
 473 459 l 1,1763,-1
 474 459 l 1,1764,-1
 475 459 l 1,1757,-1
475 459 m 1,1765,-1
 475 461 l 1,1766,-1
 475 463 l 1,1767,-1
 477 463 l 1,1768,-1
 479 463 l 1,1769,-1
 479 461 l 1,1770,-1
 479 459 l 1,1771,-1
 477 459 l 1,1772,-1
 475 459 l 1,1765,-1
675 345 m 1,1773,-1
 675 347 l 1,1774,-1
 675 349 l 1,1775,-1
 677 349 l 1,1776,-1
 679 349 l 1,1777,-1
 679 347 l 1,1778,-1
 679 345 l 1,1779,-1
 677 345 l 1,1780,-1
 675 345 l 1,1773,-1
455 422 m 1,1781,-1
 455 424 l 1,1782,-1
 455 426 l 1,1783,-1
 452 426 l 1,1784,-1
 449 426 l 1,1785,-1
 449 424 l 1,1786,-1
 449 422 l 1,1787,-1
 445 422 l 1,1788,-1
 442 422 l 1,1789,-1
 442 420 l 1,1790,-1
 442 418 l 1,1791,-1
 447 418 l 1,1792,-1
 453 418 l 1,1793,-1
 453 420 l 1,1794,-1
 453 422 l 1,1795,-1
 454 422 l 1,1796,-1
 455 422 l 1,1781,-1
419 417 m 1,1797,-1
 419 418 l 1,1798,-1
 419 419 l 1,1799,-1
 415 419 l 1,1800,-1
 415 417 l 1,1801,-1
 417 417 l 1,1802,-1
 419 417 l 1,1797,-1
508 408 m 1,1803,-1
 508 410 l 1,1804,-1
 508 412 l 1,1805,-1
 510 412 l 1,1806,-1
 512 412 l 1,1807,-1
 512 414 l 1,1808,-1
 512 416 l 1,1809,-1
 509 416 l 1,1810,-1
 505 416 l 1,1811,-1
 505 414 l 1,1812,-1
 505 412 l 1,1813,-1
 504 412 l 1,1814,-1
 502 412 l 1,1815,-1
 502 410 l 1,1816,-1
 502 408 l 1,1817,-1
 505 408 l 1,1818,-1
 508 408 l 1,1803,-1
569 386 m 1,1819,-1
 569 384 l 1,1820,-1
 569 382 l 1,1821,-1
 570 382 l 1,1822,-1
 571 382 l 1,1823,-1
 571 384 l 1,1824,-1
 571 386 l 1,1825,-1
 570 386 l 1,1826,-1
 569 386 l 1,1819,-1
608 306 m 1,1827,-1
 608 307 l 1,1828,-1
 608 309 l 1,1829,-1
 605 309 l 1,1830,-1
 601 309 l 1,1831,-1
 601 307 l 1,1832,-1
 601 306 l 1,1833,-1
 605 306 l 1,1834,-1
 608 306 l 1,1827,-1
618 306 m 1,1835,-1
 618 309 l 1,1836,-1
 618 312 l 1,1837,-1
 620 312 l 1,1838,-1
 622 312 l 1,1839,-1
 622 314 l 1,1840,-1
 622 316 l 1,1841,-1
 617 316 l 1,1842,-1
 612 316 l 1,1843,-1
 612 314 l 1,1844,-1
 612 312 l 1,1845,-1
 613 312 l 1,1846,-1
 615 312 l 1,1847,-1
 615 310 l 1,1848,-1
 615 309 l 1,1849,-1
 613 309 l 1,1850,-1
 612 309 l 1,1851,-1
 612 307 l 1,1852,-1
 612 306 l 1,1853,-1
 615 306 l 1,1854,-1
 618 306 l 1,1835,-1
618 306 m 1,1855,-1
 618 302 l 1,1856,-1
 618 298 l 1,1857,-1
 620 298 l 1,1858,-1
 622 298 l 1,1859,-1
 622 302 l 1,1860,-1
 622 306 l 1,1861,-1
 620 306 l 1,1862,-1
 618 306 l 1,1855,-1
485 282 m 1,1863,-1
 487 282 l 1,1864,-1
 489 282 l 1,1865,-1
 489 284 l 1,1866,-1
 489 286 l 1,1867,-1
 487 286 l 1,1868,-1
 485 286 l 1,1869,-1
 485 284 l 1,1870,-1
 485 282 l 1,1871,-1
 485 282 l 1,1863,-1
485 282 m 0,1872,-1
522 235 m 1,1873,-1
 522 237 l 1,1874,-1
 522 239 l 1,1875,-1
 524 239 l 1,1876,-1
 526 239 l 1,1877,-1
 526 237 l 1,1878,-1
 526 235 l 1,1879,-1
 524 235 l 1,1880,-1
 522 235 l 1,1873,-1
522 235 m 1,1881,-1
 522 234 l 1,1882,-1
 522 233 l 1,1883,-1
 519 233 l 1,1884,-1
 516 233 l 1,1885,-1
 516 234 l 1,1886,-1
 516 235 l 1,1887,-1
 519 235 l 1,1888,-1
 522 235 l 1,1881,-1
581 249 m 1,1889,-1
 583 249 l 1,1890,-1
 585 249 l 1,1891,-1
 585 246 l 1,1892,-1
 585 243 l 1,1893,-1
 583 243 l 1,1894,-1
 581 243 l 1,1895,-1
 581 246 l 1,1896,-1
 581 249 l 1,1889,-1
585 259 m 1,1897,-1
 585 260 l 1,1898,-1
 585 262 l 1,1899,-1
 587 262 l 1,1900,-1
 591 262 l 1,1901,-1
 591 257 l 1,1902,-1
 591 256 l 1,1903,-1
 590 256 l 1,1904,-1
 589 256 l 1,1905,-1
 589 258 l 1,1906,-1
 589 259 l 1,1907,-1
 587 259 l 1,1908,-1
 585 259 l 1,1897,-1
653 298 m 1,1909,-1
 655 298 l 1,1910,-1
 659 298 l 1,1911,-1
 659 297 l 1,1912,-1
 659 296 l 1,1913,-1
 660 296 l 1,1914,-1
 662 296 l 1,1915,-1
 662 299 l 1,1916,-1
 662 302 l 1,1917,-1
 659 302 l 1,1918,-1
 655 302 l 1,1919,-1
 655 304 l 1,1920,-1
 655 306 l 1,1921,-1
 653 306 l 1,1922,-1
 653 302 l 1,1923,-1
 653 298 l 1,1909,-1
659 343 m 1,1924,-1
 659 344 l 1,1925,-1
 659 345 l 1,1926,-1
 660 345 l 1,1927,-1
 662 345 l 1,1928,-1
 662 344 l 1,1929,-1
 662 343 l 1,1930,-1
 660 343 l 1,1931,-1
 659 343 l 1,1924,-1
532 412 m 1,1932,-1
 530 412 l 1,1933,-1
 528 412 l 1,1934,-1
 528 410 l 1,1935,-1
 528 408 l 1,1936,-1
 530 408 l 1,1937,-1
 532 408 l 1,1938,-1
 532 410 l 1,1939,-1
 532 412 l 1,1932,-1
EndSplineSet
EndChar

StartChar: T
Encoding: 84 84 55
Width: 420
Flags: W
LayerCount: 2
Fore
SplineSet
4775 -463 m 1,0,-1
 4775 -461 l 1,1,-1
 4777 -461 l 1,2,-1
 4779 -461 l 1,3,-1
 4779 -463 l 1,4,-1
 4779 -464 l 1,5,-1
 4777 -464 l 1,6,-1
 4775 -464 l 1,7,-1
 4775 -463 l 1,0,-1
4726 -457 m 1,8,-1
 4726 -454 l 1,9,-1
 4719 -454 l 1,10,-1
 4712 -454 l 1,11,-1
 4712 -451 l 1,12,-1
 4712 -448 l 1,13,-1
 4709 -448 l 1,14,-1
 4706 -448 l 1,15,-1
 4706 -444 l 1,16,-1
 4706 -440 l 1,17,-1
 4703 -440 l 1,18,-1
 4699 -440 l 1,19,-1
 4699 -444 l 1,20,-1
 4699 -448 l 1,21,-1
 4698 -448 l 1,22,-1
 4696 -448 l 1,23,-1
 4696 -446 l 1,24,-1
 4696 -444 l 1,25,-1
 4694 -444 l 1,26,-1
 4692 -444 l 1,27,-1
 4692 -441 l 1,28,-1
 4692 -438 l 1,29,-1
 4687 -438 l 1,30,-1
 4683 -438 l 1,31,-1
 4683 -435 l 1,32,-1
 4683 -431 l 1,33,-1
 4681 -431 l 1,34,-1
 4679 -431 l 1,35,-1
 4679 -433 l 1,36,-1
 4679 -434 l 1,37,-1
 4677 -434 l 1,38,-1
 4675 -434 l 1,39,-1
 4675 -431 l 1,40,-1
 4675 -428 l 1,41,-1
 4672 -428 l 1,42,-1
 4669 -428 l 1,43,-1
 4669 -430 l 1,44,-1
 4669 -431 l 1,45,-1
 4667 -431 l 1,46,-1
 4665 -431 l 1,47,-1
 4665 -430 l 1,48,-1
 4665 -428 l 1,49,-1
 4662 -428 l 1,50,-1
 4659 -428 l 1,51,-1
 4659 -426 l 1,52,-1
 4659 -424 l 1,53,-1
 4657 -424 l 1,54,-1
 4655 -424 l 1,55,-1
 4655 -420 l 1,56,-1
 4653 -420 l 1,57,-1
 4653 -422 l 1,58,-1
 4647 -422 l 1,59,-1
 4647 -418 l 1,60,-1
 4645 -418 l 1,61,-1
 4643 -418 l 1,62,-1
 4643 -416 l 1,63,-1
 4643 -414 l 1,64,-1
 4641 -414 l 1,65,-1
 4639 -414 l 1,66,-1
 4639 -416 l 1,67,-1
 4639 -418 l 1,68,-1
 4641 -418 l 1,69,-1
 4643 -418 l 1,70,-1
 4643 -419 l 1,71,-1
 4643 -421 l 1,72,-1
 4641 -421 l 1,73,-1
 4639 -421 l 1,74,-1
 4639 -419 l 1,75,-1
 4639 -418 l 1,76,-1
 4638 -418 l 1,77,-1
 4636 -418 l 1,78,-1
 4636 -416 l 1,79,-1
 4636 -414 l 1,80,-1
 4631 -414 l 1,81,-1
 4626 -414 l 1,82,-1
 4626 -413 l 1,83,-1
 4626 -411 l 1,84,-1
 4619 -411 l 1,85,-1
 4612 -411 l 1,86,-1
 4612 -409 l 1,87,-1
 4612 -407 l 1,88,-1
 4607 -407 l 1,89,-1
 4602 -407 l 1,90,-1
 4602 -404 l 1,91,-1
 4602 -401 l 1,92,-1
 4601 -401 l 1,93,-1
 4600 -401 l 1,94,-1
 4600 -399 l 1,95,-1
 4600 -397 l 1,96,-1
 4598 -397 l 1,97,-1
 4596 -397 l 1,98,-1
 4596 -396 l 1,99,-1
 4596 -395 l 1,100,-1
 4594 -395 l 1,101,-1
 4592 -395 l 1,102,-1
 4592 -390 l 1,103,-1
 4592 -385 l 1,104,-1
 4591 -385 l 1,105,-1
 4590 -385 l 1,106,-1
 4590 -383 l 1,107,-1
 4590 -381 l 1,108,-1
 4591 -381 l 1,109,-1
 4592 -381 l 1,110,-1
 4592 -376 l 1,111,-1
 4592 -371 l 1,112,-1
 4591 -371 l 1,113,-1
 4590 -371 l 1,114,-1
 4590 -366 l 1,115,-1
 4590 -361 l 1,116,-1
 4591 -361 l 1,117,-1
 4592 -361 l 1,118,-1
 4592 -356 l 1,119,-1
 4592 -351 l 1,120,-1
 4594 -351 l 1,121,-1
 4596 -351 l 1,122,-1
 4596 -349 l 1,123,-1
 4596 -348 l 1,124,-1
 4598 -348 l 1,125,-1
 4600 -348 l 1,126,-1
 4600 -342 l 1,127,-1
 4600 -335 l 1,128,-1
 4603 -335 l 1,129,-1
 4606 -335 l 1,130,-1
 4606 -332 l 1,131,-1
 4606 -327 l 1,132,-1
 4606 -322 l 1,133,-1
 4609 -322 l 1,134,-1
 4612 -322 l 1,135,-1
 4612 -318 l 1,136,-1
 4612 -314 l 1,137,-1
 4614 -314 l 1,138,-1
 4616 -314 l 1,139,-1
 4616 -309 l 1,140,-1
 4616 -304 l 1,141,-1
 4619 -304 l 1,142,-1
 4623 -304 l 1,143,-1
 4623 -301 l 1,144,-1
 4623 -298 l 1,145,-1
 4624 -298 l 1,146,-1
 4628 -298 l 1,147,-1
 4628 -294 l 1,148,-1
 4628 -291 l 1,149,-1
 4628 -287 l 1,150,-1
 4631 -287 l 1,151,-1
 4633 -287 l 1,152,-1
 4633 -289 l 1,153,-1
 4633 -291 l 1,154,-1
 4635 -291 l 1,155,-1
 4636 -291 l 1,156,-1
 4636 -286 l 1,157,-1
 4636 -281 l 1,158,-1
 4638 -281 l 1,159,-1
 4639 -281 l 1,160,-1
 4639 -279 l 1,161,-1
 4639 -277 l 1,162,-1
 4641 -277 l 1,163,-1
 4643 -277 l 1,164,-1
 4643 -274 l 1,165,-1
 4643 -271 l 1,166,-1
 4648 -271 l 1,167,-1
 4653 -271 l 1,168,-1
 4655 -271 l 1,169,-1
 4655 -265 l 1,170,-1
 4657 -265 l 1,171,-1
 4660 -265 l 1,172,-1
 4663 -265 l 1,173,-1
 4663 -261 l 1,174,-1
 4663 -259 l 1,175,-1
 4669 -259 l 1,176,-1
 4675 -259 l 1,177,-1
 4675 -255 l 1,178,-1
 4675 -251 l 1,179,-1
 4683 -251 l 1,180,-1
 4689 -251 l 1,181,-1
 4689 -248 l 1,182,-1
 4689 -245 l 1,183,-1
 4691 -245 l 1,184,-1
 4692 -245 l 1,185,-1
 4692 -243 l 1,186,-1
 4692 -241 l 1,187,-1
 4696 -241 l 1,188,-1
 4699 -241 l 1,189,-1
 4699 -243 l 1,190,-1
 4699 -245 l 1,191,-1
 4703 -245 l 1,192,-1
 4706 -245 l 1,193,-1
 4706 -241 l 1,194,-1
 4706 -238 l 1,195,-1
 4712 -238 l 1,196,-1
 4719 -238 l 1,197,-1
 4719 -236 l 1,198,-1
 4719 -235 l 1,199,-1
 4721 -235 l 1,200,-1
 4722 -235 l 1,201,-1
 4722 -236 l 1,202,-1
 4722 -238 l 1,203,-1
 4725 -238 l 1,204,-1
 4729 -238 l 1,205,-1
 4729 -239 l 1,206,-1
 4729 -241 l 1,207,-1
 4731 -241 l 1,208,-1
 4733 -241 l 1,209,-1
 4733 -243 l 1,210,-1
 4733 -245 l 1,211,-1
 4734 -245 l 1,212,-1
 4736 -245 l 1,213,-1
 4736 -249 l 1,214,-1
 4736 -255 l 1,215,-1
 4733 -255 l 1,216,-1
 4729 -255 l 1,217,-1
 4729 -253 l 1,218,-1
 4729 -251 l 1,219,-1
 4727 -251 l 1,220,-1
 4726 -251 l 1,221,-1
 4726 -258 l 1,222,-1
 4726 -265 l 1,223,-1
 4727 -265 l 1,224,-1
 4729 -265 l 1,225,-1
 4729 -263 l 1,226,-1
 4729 -261 l 1,227,-1
 4731 -261 l 1,228,-1
 4733 -261 l 1,229,-1
 4733 -264 l 1,230,-1
 4733 -267 l 1,231,-1
 4734 -267 l 1,232,-1
 4734 -265 l 1,233,-1
 4737 -265 l 1,234,-1
 4739 -265 l 1,235,-1
 4739 -261 l 1,236,-1
 4739 -259 l 1,237,-1
 4741 -259 l 1,238,-1
 4743 -259 l 1,239,-1
 4743 -260 l 1,240,-1
 4743 -261 l 1,241,-1
 4747 -261 l 1,242,-1
 4753 -261 l 1,243,-1
 4753 -263 l 1,244,-1
 4753 -265 l 1,245,-1
 4756 -265 l 1,246,-1
 4759 -265 l 1,247,-1
 4759 -266 l 1,248,-1
 4759 -267 l 1,249,-1
 4757 -267 l 1,250,-1
 4755 -267 l 1,251,-1
 4755 -276 l 1,252,-1
 4755 -285 l 1,253,-1
 4757 -285 l 1,254,-1
 4759 -285 l 1,255,-1
 4759 -278 l 1,256,-1
 4759 -271 l 1,257,-1
 4761 -271 l 1,258,-1
 4763 -271 l 1,259,-1
 4763 -273 l 1,260,-1
 4763 -275 l 1,261,-1
 4779 -275 l 1,262,-1
 4795 -275 l 1,263,-1
 4795 -278 l 1,264,-1
 4795 -281 l 1,265,-1
 4797 -281 l 1,266,-1
 4799 -281 l 1,267,-1
 4799 -275 l 1,268,-1
 4806 -275 l 1,269,-1
 4806 -278 l 1,270,-1
 4806 -281 l 1,271,-1
 4804 -281 l 1,272,-1
 4802 -281 l 1,273,-1
 4802 -283 l 1,274,-1
 4802 -285 l 1,275,-1
 4804 -285 l 1,276,-1
 4806 -285 l 1,277,-1
 4806 -283 l 1,278,-1
 4806 -281 l 1,279,-1
 4814 -281 l 1,280,-1
 4822 -281 l 1,281,-1
 4822 -283 l 1,282,-1
 4822 -285 l 1,283,-1
 4828 -285 l 1,284,-1
 4828 -292 l 1,285,-1
 4828 -295 l 1,286,-1
 4832 -295 l 1,287,-1
 4836 -295 l 1,288,-1
 4836 -291 l 1,289,-1
 4836 -287 l 1,290,-1
 4837 -287 l 1,291,-1
 4839 -287 l 1,292,-1
 4839 -289 l 1,293,-1
 4839 -291 l 1,294,-1
 4842 -291 l 1,295,-1
 4845 -291 l 1,296,-1
 4845 -293 l 1,297,-1
 4845 -295 l 1,298,-1
 4849 -295 l 1,299,-1
 4853 -295 l 1,300,-1
 4853 -293 l 1,301,-1
 4853 -291 l 1,302,-1
 4854 -291 l 1,303,-1
 4855 -291 l 1,304,-1
 4855 -298 l 1,305,-1
 4855 -304 l 1,306,-1
 4857 -304 l 1,307,-1
 4859 -304 l 1,308,-1
 4859 -301 l 1,309,-1
 4859 -298 l 1,310,-1
 4862 -298 l 1,311,-1
 4865 -298 l 1,312,-1
 4865 -296 l 1,313,-1
 4865 -295 l 1,314,-1
 4867 -295 l 1,315,-1
 4869 -295 l 1,316,-1
 4869 -296 l 1,317,-1
 4869 -298 l 1,318,-1
 4871 -298 l 1,319,-1
 4873 -298 l 1,320,-1
 4873 -299 l 1,321,-1
 4873 -301 l 1,322,-1
 4871 -301 l 1,323,-1
 4869 -301 l 1,324,-1
 4869 -305 l 1,325,-1
 4869 -308 l 1,326,-1
 4872 -308 l 1,327,-1
 4875 -308 l 1,328,-1
 4875 -306 l 1,329,-1
 4875 -304 l 1,330,-1
 4880 -304 l 1,331,-1
 4885 -304 l 1,332,-1
 4885 -309 l 1,333,-1
 4885 -314 l 1,334,-1
 4891 -314 l 1,335,-1
 4891 -309 l 1,336,-1
 4891 -308 l 1,337,-1
 4893 -308 l 1,338,-1
 4895 -308 l 1,339,-1
 4895 -313 l 1,340,-1
 4895 -318 l 1,341,-1
 4897 -318 l 1,342,-1
 4899 -318 l 1,343,-1
 4899 -316 l 1,344,-1
 4899 -314 l 1,345,-1
 4901 -314 l 1,346,-1
 4902 -314 l 1,347,-1
 4902 -318 l 1,348,-1
 4902 -322 l 1,349,-1
 4905 -322 l 1,350,-1
 4908 -322 l 1,351,-1
 4908 -323 l 1,352,-1
 4908 -324 l 1,353,-1
 4910 -324 l 1,354,-1
 4912 -324 l 1,355,-1
 4912 -323 l 1,356,-1
 4912 -322 l 1,357,-1
 4915 -322 l 1,358,-1
 4918 -322 l 1,359,-1
 4918 -323 l 1,360,-1
 4918 -324 l 1,361,-1
 4920 -324 l 1,362,-1
 4922 -324 l 1,363,-1
 4922 -326 l 1,364,-1
 4922 -328 l 1,365,-1
 4924 -328 l 1,366,-1
 4926 -328 l 1,367,-1
 4926 -333 l 1,368,-1
 4926 -338 l 1,369,-1
 4929 -338 l 1,370,-1
 4932 -338 l 1,371,-1
 4932 -343 l 1,372,-1
 4932 -348 l 1,373,-1
 4934 -348 l 1,374,-1
 4936 -348 l 1,375,-1
 4936 -349 l 1,376,-1
 4936 -351 l 1,377,-1
 4934 -351 l 1,378,-1
 4932 -351 l 1,379,-1
 4932 -349 l 1,380,-1
 4932 -348 l 1,381,-1
 4927 -348 l 1,382,-1
 4922 -348 l 1,383,-1
 4922 -349 l 1,384,-1
 4922 -351 l 1,385,-1
 4927 -351 l 1,386,-1
 4932 -351 l 1,387,-1
 4932 -356 l 1,388,-1
 4932 -361 l 1,389,-1
 4930 -361 l 1,390,-1
 4929 -361 l 1,391,-1
 4929 -363 l 1,392,-1
 4929 -365 l 1,393,-1
 4932 -365 l 1,394,-1
 4936 -365 l 1,395,-1
 4936 -358 l 1,396,-1
 4936 -351 l 1,397,-1
 4937 -351 l 1,398,-1
 4938 -351 l 1,399,-1
 4938 -347 l 1,400,-1
 4938 -344 l 1,401,-1
 4940 -344 l 1,402,-1
 4942 -344 l 1,403,-1
 4942 -349 l 1,404,-1
 4942 -355 l 1,405,-1
 4940 -355 l 1,406,-1
 4938 -355 l 1,407,-1
 4938 -358 l 1,408,-1
 4938 -361 l 1,409,-1
 4945 -361 l 1,410,-1
 4952 -361 l 1,411,-1
 4955 -361 l 1,412,-1
 4955 -367 l 1,413,-1
 4959 -367 l 1,414,-1
 4959 -372 l 1,415,-1
 4959 -377 l 1,416,-1
 4957 -377 l 1,417,-1
 4955 -377 l 1,418,-1
 4955 -376 l 1,419,-1
 4955 -375 l 1,420,-1
 4952 -375 l 1,421,-1
 4949 -375 l 1,422,-1
 4949 -376 l 1,423,-1
 4949 -377 l 1,424,-1
 4947 -377 l 1,425,-1
 4945 -377 l 1,426,-1
 4945 -379 l 1,427,-1
 4945 -381 l 1,428,-1
 4941 -381 l 1,429,-1
 4938 -381 l 1,430,-1
 4938 -379 l 1,431,-1
 4938 -377 l 1,432,-1
 4942 -377 l 1,433,-1
 4942 -372 l 1,434,-1
 4942 -371 l 1,435,-1
 4941 -371 l 1,436,-1
 4940 -371 l 1,437,-1
 4940 -373 l 1,438,-1
 4940 -375 l 1,439,-1
 4938 -375 l 1,440,-1
 4936 -375 l 1,441,-1
 4936 -378 l 1,442,-1
 4936 -381 l 1,443,-1
 4936 -385 l 1,444,-1
 4940 -385 l 1,445,-1
 4945 -385 l 1,446,-1
 4945 -386 l 1,447,-1
 4945 -387 l 1,448,-1
 4947 -387 l 1,449,-1
 4949 -387 l 1,450,-1
 4949 -389 l 1,451,-1
 4949 -391 l 1,452,-1
 4943 -391 l 1,453,-1
 4938 -391 l 1,454,-1
 4938 -393 l 1,455,-1
 4938 -395 l 1,456,-1
 4940 -395 l 1,457,-1
 4942 -395 l 1,458,-1
 4942 -396 l 1,459,-1
 4942 -397 l 1,460,-1
 4940 -397 l 1,461,-1
 4938 -397 l 1,462,-1
 4938 -399 l 1,463,-1
 4938 -404 l 1,464,-1
 4926 -404 l 1,465,-1
 4926 -395 l 1,466,-1
 4929 -395 l 1,467,-1
 4932 -395 l 1,468,-1
 4932 -396 l 1,469,-1
 4932 -397 l 1,470,-1
 4934 -397 l 1,471,-1
 4936 -397 l 1,472,-1
 4936 -394 l 1,473,-1
 4936 -391 l 1,474,-1
 4932 -391 l 1,475,-1
 4928 -391 l 1,476,-1
 4928 -389 l 1,477,-1
 4928 -387 l 1,478,-1
 4927 -387 l 1,479,-1
 4926 -387 l 1,480,-1
 4926 -391 l 1,481,-1
 4926 -395 l 1,482,-1
 4924 -395 l 1,483,-1
 4922 -395 l 1,484,-1
 4922 -403 l 1,485,-1
 4922 -411 l 1,486,-1
 4919 -411 l 1,487,-1
 4916 -411 l 1,488,-1
 4916 -413 l 1,489,-1
 4916 -414 l 1,490,-1
 4914 -414 l 1,491,-1
 4912 -414 l 1,492,-1
 4912 -411 l 1,493,-1
 4912 -407 l 1,494,-1
 4910 -407 l 1,495,-1
 4908 -407 l 1,496,-1
 4908 -406 l 1,497,-1
 4908 -404 l 1,498,-1
 4904 -404 l 1,499,-1
 4899 -404 l 1,500,-1
 4899 -407 l 1,501,-1
 4899 -411 l 1,502,-1
 4897 -411 l 1,503,-1
 4895 -411 l 1,504,-1
 4895 -413 l 1,505,-1
 4895 -414 l 1,506,-1
 4899 -414 l 1,507,-1
 4902 -414 l 1,508,-1
 4902 -418 l 1,509,-1
 4902 -421 l 1,510,-1
 4897 -421 l 1,511,-1
 4892 -421 l 1,512,-1
 4892 -419 l 1,513,-1
 4892 -418 l 1,514,-1
 4890 -418 l 1,515,-1
 4889 -418 l 1,516,-1
 4889 -419 l 1,517,-1
 4889 -421 l 1,518,-1
 4887 -421 l 1,519,-1
 4885 -421 l 1,520,-1
 4885 -423 l 1,521,-1
 4885 -424 l 1,522,-1
 4883 -424 l 1,523,-1
 4881 -424 l 1,524,-1
 4881 -426 l 1,525,-1
 4881 -428 l 1,526,-1
 4877 -428 l 1,527,-1
 4873 -428 l 1,528,-1
 4873 -426 l 1,529,-1
 4873 -424 l 1,530,-1
 4871 -424 l 1,531,-1
 4869 -424 l 1,532,-1
 4869 -426 l 1,533,-1
 4869 -428 l 1,534,-1
 4862 -428 l 1,535,-1
 4855 -428 l 1,536,-1
 4855 -431 l 1,537,-1
 4855 -434 l 1,538,-1
 4857 -434 l 1,539,-1
 4859 -434 l 1,540,-1
 4859 -433 l 1,541,-1
 4859 -431 l 1,542,-1
 4860 -431 l 1,543,-1
 4865 -431 l 1,544,-1
 4865 -437 l 1,545,-1
 4865 -438 l 1,546,-1
 4864 -438 l 1,547,-1
 4863 -438 l 1,548,-1
 4863 -436 l 1,549,-1
 4863 -434 l 1,550,-1
 4861 -434 l 1,551,-1
 4859 -434 l 1,552,-1
 4859 -437 l 1,553,-1
 4859 -440 l 1,554,-1
 4857 -440 l 1,555,-1
 4855 -440 l 1,556,-1
 4855 -442 l 1,557,-1
 4855 -444 l 1,558,-1
 4857 -444 l 1,559,-1
 4859 -444 l 1,560,-1
 4859 -447 l 1,561,-1
 4859 -451 l 1,562,-1
 4857 -451 l 1,563,-1
 4855 -451 l 1,564,-1
 4855 -447 l 1,565,-1
 4855 -444 l 1,566,-1
 4854 -444 l 1,567,-1
 4853 -444 l 1,568,-1
 4853 -439 l 1,569,-1
 4853 -434 l 1,570,-1
 4851 -434 l 1,571,-1
 4849 -434 l 1,572,-1
 4849 -436 l 1,573,-1
 4849 -438 l 1,574,-1
 4847 -438 l 1,575,-1
 4845 -438 l 1,576,-1
 4845 -446 l 1,577,-1
 4845 -454 l 1,578,-1
 4844 -454 l 1,579,-1
 4842 -454 l 1,580,-1
 4842 -451 l 1,581,-1
 4842 -448 l 1,582,-1
 4835 -448 l 1,583,-1
 4829 -448 l 1,584,-1
 4829 -449 l 1,585,-1
 4829 -451 l 1,586,-1
 4825 -451 l 1,587,-1
 4822 -451 l 1,588,-1
 4822 -452 l 1,589,-1
 4822 -454 l 1,590,-1
 4819 -454 l 1,591,-1
 4816 -454 l 1,592,-1
 4816 -452 l 1,593,-1
 4816 -451 l 1,594,-1
 4811 -451 l 1,595,-1
 4806 -451 l 1,596,-1
 4806 -449 l 1,597,-1
 4806 -448 l 1,598,-1
 4804 -448 l 1,599,-1
 4802 -448 l 1,600,-1
 4802 -446 l 1,601,-1
 4802 -444 l 1,602,-1
 4801 -444 l 1,603,-1
 4799 -444 l 1,604,-1
 4799 -441 l 1,605,-1
 4799 -438 l 1,606,-1
 4797 -438 l 1,607,-1
 4795 -438 l 1,608,-1
 4795 -439 l 1,609,-1
 4795 -440 l 1,610,-1
 4794 -440 l 1,611,-1
 4792 -440 l 1,612,-1
 4792 -442 l 1,613,-1
 4792 -444 l 1,614,-1
 4791 -444 l 1,615,-1
 4789 -444 l 1,616,-1
 4789 -446 l 1,617,-1
 4789 -448 l 1,618,-1
 4784 -448 l 1,619,-1
 4779 -448 l 1,620,-1
 4779 -449 l 1,621,-1
 4779 -451 l 1,622,-1
 4795 -451 l 1,623,-1
 4795 -452 l 1,624,-1
 4795 -454 l 1,625,-1
 4797 -454 l 1,626,-1
 4799 -454 l 1,627,-1
 4799 -456 l 1,628,-1
 4799 -458 l 1,629,-1
 4797 -458 l 1,630,-1
 4795 -458 l 1,631,-1
 4795 -459 l 1,632,-1
 4795 -461 l 1,633,-1
 4793 -461 l 1,634,-1
 4789 -461 l 1,635,-1
 4789 -459 l 1,636,-1
 4789 -458 l 1,637,-1
 4793 -458 l 1,638,-1
 4795 -458 l 1,639,-1
 4795 -456 l 1,640,-1
 4795 -454 l 1,641,-1
 4791 -454 l 1,642,-1
 4785 -454 l 1,643,-1
 4785 -456 l 1,644,-1
 4785 -458 l 1,645,-1
 4783 -458 l 1,646,-1
 4782 -458 l 1,647,-1
 4782 -456 l 1,648,-1
 4782 -454 l 1,649,-1
 4779 -454 l 1,650,-1
 4775 -454 l 1,651,-1
 4775 -456 l 1,652,-1
 4775 -458 l 1,653,-1
 4774 -458 l 1,654,-1
 4773 -458 l 1,655,-1
 4773 -456 l 1,656,-1
 4773 -454 l 1,657,-1
 4771 -454 l 1,658,-1
 4769 -454 l 1,659,-1
 4769 -456 l 1,660,-1
 4769 -458 l 1,661,-1
 4767 -458 l 1,662,-1
 4765 -458 l 1,663,-1
 4765 -456 l 1,664,-1
 4765 -454 l 1,665,-1
 4764 -454 l 1,666,-1
 4763 -454 l 1,667,-1
 4763 -446 l 1,668,-1
 4763 -438 l 1,669,-1
 4759 -438 l 1,670,-1
 4755 -438 l 1,671,-1
 4755 -441 l 1,672,-1
 4755 -444 l 1,673,-1
 4757 -444 l 1,674,-1
 4759 -444 l 1,675,-1
 4759 -446 l 1,676,-1
 4759 -448 l 1,677,-1
 4756 -448 l 1,678,-1
 4753 -448 l 1,679,-1
 4753 -449 l 1,680,-1
 4753 -451 l 1,681,-1
 4756 -451 l 1,682,-1
 4759 -451 l 1,683,-1
 4759 -452 l 1,684,-1
 4759 -454 l 1,685,-1
 4761 -454 l 1,686,-1
 4763 -454 l 1,687,-1
 4763 -456 l 1,688,-1
 4763 -458 l 1,689,-1
 4759 -458 l 1,690,-1
 4755 -458 l 1,691,-1
 4755 -456 l 1,692,-1
 4755 -454 l 1,693,-1
 4752 -454 l 1,694,-1
 4749 -454 l 1,695,-1
 4749 -451 l 1,696,-1
 4749 -448 l 1,697,-1
 4746 -448 l 1,698,-1
 4743 -448 l 1,699,-1
 4743 -449 l 1,700,-1
 4743 -451 l 1,701,-1
 4741 -451 l 1,702,-1
 4739 -451 l 1,703,-1
 4739 -452 l 1,704,-1
 4739 -454 l 1,705,-1
 4737 -454 l 1,706,-1
 4736 -454 l 1,707,-1
 4736 -456 l 1,708,-1
 4736 -458 l 1,709,-1
 4734 -458 l 1,710,-1
 4733 -458 l 1,711,-1
 4733 -456 l 1,712,-1
 4733 -454 l 1,713,-1
 4731 -454 l 1,714,-1
 4729 -454 l 1,715,-1
 4729 -457 l 1,716,-1
 4729 -461 l 1,717,-1
 4727 -461 l 1,718,-1
 4726 -461 l 1,719,-1
 4726 -457 l 1,8,-1
4719 -451 m 1,720,-1
 4719 -448 l 1,721,-1
 4721 -448 l 1,722,-1
 4722 -448 l 1,723,-1
 4722 -446 l 1,724,-1
 4722 -444 l 1,725,-1
 4724 -444 l 1,726,-1
 4726 -444 l 1,727,-1
 4726 -441 l 1,728,-1
 4726 -438 l 1,729,-1
 4724 -438 l 1,730,-1
 4722 -438 l 1,731,-1
 4722 -439 l 1,732,-1
 4722 -440 l 1,733,-1
 4721 -440 l 1,734,-1
 4719 -440 l 1,735,-1
 4719 -442 l 1,736,-1
 4719 -444 l 1,737,-1
 4717 -444 l 1,738,-1
 4716 -444 l 1,739,-1
 4716 -447 l 1,740,-1
 4716 -451 l 1,741,-1
 4717 -451 l 1,742,-1
 4719 -451 l 1,720,-1
4773 -449 m 1,743,-1
 4773 -448 l 1,744,-1
 4771 -448 l 1,745,-1
 4769 -448 l 1,746,-1
 4769 -449 l 1,747,-1
 4769 -451 l 1,748,-1
 4771 -451 l 1,749,-1
 4773 -451 l 1,750,-1
 4773 -449 l 1,743,-1
4829 -446 m 1,751,-1
 4829 -444 l 1,752,-1
 4825 -444 l 1,753,-1
 4822 -444 l 1,754,-1
 4822 -446 l 1,755,-1
 4822 -448 l 1,756,-1
 4825 -448 l 1,757,-1
 4829 -448 l 1,758,-1
 4829 -446 l 1,751,-1
4782 -442 m 1,759,-1
 4782 -440 l 1,760,-1
 4781 -440 l 1,761,-1
 4779 -440 l 1,762,-1
 4779 -442 l 1,763,-1
 4779 -444 l 1,764,-1
 4781 -444 l 1,765,-1
 4782 -444 l 1,766,-1
 4782 -442 l 1,759,-1
4809 -442 m 1,767,-1
 4809 -440 l 1,768,-1
 4807 -440 l 1,769,-1
 4806 -440 l 1,770,-1
 4806 -442 l 1,771,-1
 4806 -444 l 1,772,-1
 4807 -444 l 1,773,-1
 4809 -444 l 1,774,-1
 4809 -442 l 1,767,-1
4839 -439 m 1,775,-1
 4839 -434 l 1,776,-1
 4837 -434 l 1,777,-1
 4836 -434 l 1,778,-1
 4836 -439 l 1,779,-1
 4836 -444 l 1,780,-1
 4837 -444 l 1,781,-1
 4839 -444 l 1,782,-1
 4839 -439 l 1,775,-1
4795 -436 m 1,783,-1
 4795 -434 l 1,784,-1
 4794 -434 l 1,785,-1
 4792 -434 l 1,786,-1
 4792 -436 l 1,787,-1
 4792 -438 l 1,788,-1
 4794 -438 l 1,789,-1
 4795 -438 l 1,790,-1
 4795 -436 l 1,783,-1
4822 -426 m 1,791,-1
 4822 -424 l 1,792,-1
 4820 -424 l 1,793,-1
 4818 -424 l 1,794,-1
 4818 -426 l 1,795,-1
 4818 -428 l 1,796,-1
 4820 -428 l 1,797,-1
 4822 -428 l 1,798,-1
 4822 -426 l 1,791,-1
4763 -419 m 1,799,-1
 4763 -418 l 1,800,-1
 4768 -418 l 1,801,-1
 4773 -418 l 1,802,-1
 4773 -419 l 1,803,-1
 4773 -421 l 1,804,-1
 4782 -421 l 1,805,-1
 4792 -421 l 1,806,-1
 4792 -419 l 1,807,-1
 4792 -418 l 1,808,-1
 4795 -418 l 1,809,-1
 4799 -418 l 1,810,-1
 4799 -419 l 1,811,-1
 4799 -421 l 1,812,-1
 4806 -421 l 1,813,-1
 4812 -421 l 1,814,-1
 4812 -419 l 1,815,-1
 4812 -418 l 1,816,-1
 4815 -418 l 1,817,-1
 4818 -418 l 1,818,-1
 4818 -415 l 1,819,-1
 4818 -411 l 1,820,-1
 4816 -411 l 1,821,-1
 4816 -414 l 1,822,-1
 4813 -414 l 1,823,-1
 4809 -414 l 1,824,-1
 4809 -413 l 1,825,-1
 4809 -411 l 1,826,-1
 4807 -411 l 1,827,-1
 4806 -411 l 1,828,-1
 4806 -413 l 1,829,-1
 4806 -414 l 1,830,-1
 4795 -414 l 1,831,-1
 4785 -414 l 1,832,-1
 4785 -413 l 1,833,-1
 4785 -411 l 1,834,-1
 4787 -411 l 1,835,-1
 4789 -411 l 1,836,-1
 4789 -409 l 1,837,-1
 4789 -407 l 1,838,-1
 4793 -407 l 1,839,-1
 4795 -407 l 1,840,-1
 4795 -409 l 1,841,-1
 4795 -411 l 1,842,-1
 4799 -411 l 1,843,-1
 4802 -411 l 1,844,-1
 4802 -407 l 1,845,-1
 4802 -404 l 1,846,-1
 4804 -404 l 1,847,-1
 4806 -404 l 1,848,-1
 4806 -403 l 1,849,-1
 4806 -401 l 1,850,-1
 4809 -401 l 1,851,-1
 4812 -401 l 1,852,-1
 4812 -399 l 1,853,-1
 4812 -397 l 1,854,-1
 4814 -397 l 1,855,-1
 4816 -397 l 1,856,-1
 4816 -401 l 1,857,-1
 4816 -404 l 1,858,-1
 4817 -404 l 1,859,-1
 4818 -404 l 1,860,-1
 4818 -406 l 1,861,-1
 4818 -407 l 1,862,-1
 4820 -407 l 1,863,-1
 4822 -407 l 1,864,-1
 4822 -404 l 1,865,-1
 4822 -401 l 1,866,-1
 4820 -401 l 1,867,-1
 4818 -401 l 1,868,-1
 4818 -399 l 1,869,-1
 4818 -397 l 1,870,-1
 4822 -397 l 1,871,-1
 4826 -397 l 1,872,-1
 4826 -401 l 1,873,-1
 4826 -404 l 1,874,-1
 4829 -404 l 1,875,-1
 4829 -401 l 1,876,-1
 4830 -401 l 1,877,-1
 4832 -401 l 1,878,-1
 4832 -399 l 1,879,-1
 4832 -397 l 1,880,-1
 4835 -397 l 1,881,-1
 4839 -397 l 1,882,-1
 4839 -396 l 1,883,-1
 4839 -395 l 1,884,-1
 4841 -395 l 1,885,-1
 4842 -395 l 1,886,-1
 4842 -393 l 1,887,-1
 4842 -391 l 1,888,-1
 4844 -391 l 1,889,-1
 4845 -391 l 1,890,-1
 4845 -388 l 1,891,-1
 4845 -385 l 1,892,-1
 4847 -385 l 1,893,-1
 4849 -385 l 1,894,-1
 4849 -388 l 1,895,-1
 4849 -391 l 1,896,-1
 4851 -391 l 1,897,-1
 4853 -391 l 1,898,-1
 4853 -389 l 1,899,-1
 4853 -387 l 1,900,-1
 4856 -387 l 1,901,-1
 4859 -387 l 1,902,-1
 4859 -386 l 1,903,-1
 4859 -385 l 1,904,-1
 4862 -385 l 1,905,-1
 4865 -385 l 1,906,-1
 4865 -381 l 1,907,-1
 4865 -377 l 1,908,-1
 4867 -377 l 1,909,-1
 4869 -377 l 1,910,-1
 4869 -381 l 1,911,-1
 4869 -385 l 1,912,-1
 4871 -385 l 1,913,-1
 4873 -385 l 1,914,-1
 4873 -381 l 1,915,-1
 4873 -377 l 1,916,-1
 4876 -377 l 1,917,-1
 4879 -377 l 1,918,-1
 4879 -376 l 1,919,-1
 4879 -375 l 1,920,-1
 4884 -375 l 1,921,-1
 4889 -375 l 1,922,-1
 4889 -373 l 1,923,-1
 4889 -371 l 1,924,-1
 4887 -371 l 1,925,-1
 4885 -371 l 1,926,-1
 4885 -369 l 1,927,-1
 4885 -367 l 1,928,-1
 4879 -367 l 1,929,-1
 4873 -367 l 1,930,-1
 4873 -366 l 1,931,-1
 4873 -365 l 1,932,-1
 4877 -365 l 1,933,-1
 4881 -365 l 1,934,-1
 4881 -363 l 1,935,-1
 4881 -361 l 1,936,-1
 4878 -361 l 1,937,-1
 4875 -361 l 1,938,-1
 4875 -359 l 1,939,-1
 4875 -358 l 1,940,-1
 4877 -358 l 1,941,-1
 4879 -358 l 1,942,-1
 4879 -356 l 1,943,-1
 4879 -355 l 1,944,-1
 4874 -355 l 1,945,-1
 4869 -355 l 1,946,-1
 4869 -347 l 1,947,-1
 4869 -341 l 1,948,-1
 4866 -341 l 1,949,-1
 4863 -341 l 1,950,-1
 4863 -339 l 1,951,-1
 4863 -338 l 1,952,-1
 4861 -338 l 1,953,-1
 4859 -338 l 1,954,-1
 4859 -336 l 1,955,-1
 4859 -334 l 1,956,-1
 4857 -334 l 1,957,-1
 4853 -334 l 1,958,-1
 4853 -328 l 1,959,-1
 4851 -328 l 1,960,-1
 4849 -328 l 1,961,-1
 4849 -330 l 1,962,-1
 4849 -332 l 1,963,-1
 4847 -332 l 1,964,-1
 4845 -332 l 1,965,-1
 4845 -328 l 1,966,-1
 4845 -324 l 1,967,-1
 4842 -324 l 1,968,-1
 4840 -324 l 1,969,-1
 4836 -324 l 1,970,-1
 4836 -318 l 1,971,-1
 4831 -318 l 1,972,-1
 4826 -318 l 1,973,-1
 4826 -316 l 1,974,-1
 4826 -314 l 1,975,-1
 4822 -314 l 1,976,-1
 4818 -314 l 1,977,-1
 4818 -313 l 1,978,-1
 4818 -311 l 1,979,-1
 4812 -311 l 1,980,-1
 4806 -311 l 1,981,-1
 4806 -308 l 1,982,-1
 4806 -304 l 1,983,-1
 4804 -304 l 1,984,-1
 4802 -304 l 1,985,-1
 4802 -306 l 1,986,-1
 4802 -308 l 1,987,-1
 4791 -308 l 1,988,-1
 4779 -308 l 1,989,-1
 4779 -306 l 1,990,-1
 4779 -304 l 1,991,-1
 4771 -304 l 1,992,-1
 4763 -304 l 1,993,-1
 4763 -308 l 1,994,-1
 4763 -311 l 1,995,-1
 4761 -311 l 1,996,-1
 4759 -311 l 1,997,-1
 4759 -310 l 1,998,-1
 4759 -308 l 1,999,-1
 4754 -308 l 1,1000,-1
 4749 -308 l 1,1001,-1
 4749 -310 l 1,1002,-1
 4749 -311 l 1,1003,-1
 4746 -311 l 1,1004,-1
 4743 -311 l 1,1005,-1
 4743 -313 l 1,1006,-1
 4743 -314 l 1,1007,-1
 4741 -314 l 1,1008,-1
 4739 -314 l 1,1009,-1
 4739 -313 l 2,1010,1011
 4739 -311 4739 -311 4737 -311 c 2,1012,-1
 4736 -311 l 1,1013,-1
 4736 -315 l 1,1014,-1
 4736 -318 l 1,1015,-1
 4733 -318 l 1,1016,-1
 4729 -318 l 1,1017,-1
 4729 -320 l 1,1018,-1
 4729 -322 l 1,1019,-1
 4725 -322 l 1,1020,-1
 4722 -322 l 1,1021,-1
 4722 -323 l 1,1022,-1
 4722 -324 l 1,1023,-1
 4721 -324 l 1,1024,-1
 4719 -324 l 1,1025,-1
 4719 -326 l 1,1026,-1
 4719 -328 l 1,1027,-1
 4715 -328 l 1,1028,-1
 4712 -328 l 1,1029,-1
 4712 -331 l 1,1030,-1
 4712 -334 l 1,1031,-1
 4711 -334 l 1,1032,-1
 4710 -334 l 1,1033,-1
 4710 -337 l 1,1034,-1
 4710 -341 l 1,1035,-1
 4706 -341 l 1,1036,-1
 4702 -341 l 1,1037,-1
 4702 -346 l 1,1038,-1
 4702 -351 l 1,1039,-1
 4701 -351 l 1,1040,-1
 4699 -351 l 1,1041,-1
 4699 -353 l 1,1042,-1
 4699 -355 l 1,1043,-1
 4701 -355 l 1,1044,-1
 4702 -355 l 1,1045,-1
 4702 -359 l 1,1046,-1
 4702 -365 l 1,1047,-1
 4704 -365 l 1,1048,-1
 4706 -365 l 1,1049,-1
 4706 -366 l 1,1050,-1
 4706 -367 l 1,1051,-1
 4704 -367 l 1,1052,-1
 4702 -367 l 1,1053,-1
 4702 -369 l 1,1054,-1
 4702 -371 l 1,1055,-1
 4704 -371 l 1,1056,-1
 4706 -371 l 1,1057,-1
 4706 -376 l 1,1058,-1
 4706 -381 l 1,1059,-1
 4708 -381 l 1,1060,-1
 4710 -381 l 1,1061,-1
 4710 -387 l 1,1062,-1
 4716 -387 l 1,1063,-1
 4716 -389 l 1,1064,-1
 4716 -391 l 1,1065,-1
 4717 -391 l 1,1066,-1
 4719 -391 l 1,1067,-1
 4719 -393 l 1,1068,-1
 4719 -395 l 1,1069,-1
 4725 -395 l 1,1070,-1
 4733 -395 l 1,1071,-1
 4733 -396 l 1,1072,-1
 4733 -397 l 1,1073,-1
 4731 -397 l 1,1074,-1
 4729 -397 l 1,1075,-1
 4729 -399 l 1,1076,-1
 4729 -401 l 1,1077,-1
 4731 -401 l 1,1078,-1
 4733 -401 l 1,1079,-1
 4733 -403 l 1,1080,-1
 4733 -404 l 1,1081,-1
 4741 -404 l 1,1082,-1
 4749 -404 l 1,1083,-1
 4749 -406 l 1,1084,-1
 4749 -407 l 1,1085,-1
 4751 -407 l 1,1086,-1
 4753 -407 l 1,1087,-1
 4753 -411 l 1,1088,-1
 4753 -414 l 1,1089,-1
 4751 -414 l 1,1090,-1
 4749 -414 l 1,1091,-1
 4749 -411 l 1,1092,-1
 4749 -407 l 1,1093,-1
 4744 -407 l 1,1094,-1
 4739 -407 l 1,1095,-1
 4739 -409 l 1,1096,-1
 4739 -411 l 1,1097,-1
 4741 -411 l 1,1098,-1
 4743 -411 l 1,1099,-1
 4743 -413 l 1,1100,-1
 4743 -414 l 1,1101,-1
 4746 -414 l 1,1102,-1
 4749 -414 l 1,1103,-1
 4749 -416 l 1,1104,-1
 4749 -418 l 1,1105,-1
 4754 -418 l 1,1106,-1
 4759 -418 l 1,1107,-1
 4759 -419 l 1,1108,-1
 4759 -421 l 1,1109,-1
 4761 -421 l 1,1110,-1
 4763 -421 l 1,1111,-1
 4763 -419 l 1,799,-1
4759 -413 m 1,1112,-1
 4759 -411 l 1,1113,-1
 4757 -411 l 1,1114,-1
 4755 -411 l 1,1115,-1
 4755 -406 l 1,1116,-1
 4755 -401 l 1,1117,-1
 4754 -401 l 1,1118,-1
 4753 -401 l 1,1119,-1
 4753 -399 l 1,1120,-1
 4753 -397 l 1,1121,-1
 4749 -397 l 1,1122,-1
 4746 -397 l 1,1123,-1
 4746 -396 l 1,1124,-1
 4746 -395 l 1,1125,-1
 4745 -395 l 1,1126,-1
 4743 -395 l 1,1127,-1
 4743 -393 l 1,1128,-1
 4743 -391 l 1,1129,-1
 4741 -391 l 1,1130,-1
 4739 -391 l 1,1131,-1
 4739 -389 l 1,1132,-1
 4739 -387 l 1,1133,-1
 4737 -387 l 1,1134,-1
 4736 -387 l 1,1135,-1
 4736 -384 l 1,1136,-1
 4736 -381 l 1,1137,-1
 4734 -381 l 1,1138,-1
 4733 -381 l 1,1139,-1
 4733 -378 l 1,1140,-1
 4733 -375 l 1,1141,-1
 4731 -375 l 1,1142,-1
 4729 -375 l 1,1143,-1
 4729 -370 l 1,1144,-1
 4729 -365 l 1,1145,-1
 4727 -365 l 1,1146,-1
 4726 -365 l 1,1147,-1
 4726 -363 l 1,1148,-1
 4726 -361 l 1,1149,-1
 4727 -361 l 1,1150,-1
 4729 -361 l 1,1151,-1
 4729 -353 l 1,1152,-1
 4729 -344 l 1,1153,-1
 4731 -344 l 1,1154,-1
 4733 -344 l 1,1155,-1
 4733 -341 l 1,1156,-1
 4733 -338 l 1,1157,-1
 4734 -338 l 1,1158,-1
 4736 -338 l 1,1159,-1
 4736 -335 l 1,1160,-1
 4736 -332 l 1,1161,-1
 4737 -332 l 1,1162,-1
 4739 -332 l 1,1163,-1
 4739 -330 l 1,1164,-1
 4739 -328 l 1,1165,-1
 4741 -328 l 1,1166,-1
 4743 -328 l 1,1167,-1
 4743 -325 l 1,1168,-1
 4743 -322 l 1,1169,-1
 4746 -322 l 1,1170,-1
 4749 -322 l 1,1171,-1
 4749 -320 l 1,1172,-1
 4749 -318 l 1,1173,-1
 4756 -318 l 1,1174,-1
 4763 -318 l 1,1175,-1
 4763 -316 l 1,1176,-1
 4763 -314 l 1,1177,-1
 4772 -314 l 1,1178,-1
 4782 -314 l 1,1179,-1
 4782 -316 l 1,1180,-1
 4782 -318 l 1,1181,-1
 4785 -318 l 1,1182,-1
 4789 -318 l 1,1183,-1
 4789 -320 l 1,1184,-1
 4789 -322 l 1,1185,-1
 4793 -322 l 1,1186,-1
 4795 -322 l 1,1187,-1
 4795 -323 l 1,1188,-1
 4795 -324 l 1,1189,-1
 4797 -324 l 1,1190,-1
 4799 -324 l 1,1191,-1
 4799 -326 l 1,1192,-1
 4799 -328 l 1,1193,-1
 4801 -328 l 1,1194,-1
 4802 -328 l 1,1195,-1
 4802 -330 l 1,1196,-1
 4802 -332 l 1,1197,-1
 4804 -332 l 1,1198,-1
 4806 -332 l 1,1199,-1
 4806 -335 l 1,1200,-1
 4806 -338 l 1,1201,-1
 4799 -338 l 1,1202,-1
 4793 -338 l 1,1203,-1
 4790 -338 l 1,1204,-1
 4790 -343 l 1,1205,-1
 4790 -344 l 1,1206,-1
 4787 -344 l 1,1207,-1
 4785 -344 l 1,1208,-1
 4785 -349 l 1,1209,-1
 4785 -355 l 1,1210,-1
 4787 -355 l 1,1211,-1
 4789 -355 l 1,1212,-1
 4789 -356 l 1,1213,-1
 4789 -358 l 1,1214,-1
 4794 -358 l 1,1215,-1
 4799 -358 l 1,1216,-1
 4799 -356 l 1,1217,-1
 4799 -355 l 1,1218,-1
 4803 -355 l 1,1219,-1
 4806 -355 l 1,1220,-1
 4806 -353 l 1,1221,-1
 4806 -351 l 1,1222,-1
 4807 -351 l 1,1223,-1
 4809 -351 l 1,1224,-1
 4809 -347 l 1,1225,-1
 4809 -344 l 1,1226,-1
 4811 -344 l 1,1227,-1
 4812 -344 l 1,1228,-1
 4812 -347 l 1,1229,-1
 4812 -351 l 1,1230,-1
 4814 -351 l 1,1231,-1
 4816 -351 l 1,1232,-1
 4816 -359 l 1,1233,-1
 4816 -367 l 1,1234,-1
 4814 -367 l 1,1235,-1
 4812 -367 l 1,1236,-1
 4812 -372 l 1,1237,-1
 4812 -377 l 1,1238,-1
 4811 -377 l 1,1239,-1
 4809 -377 l 1,1240,-1
 4809 -381 l 1,1241,-1
 4809 -385 l 1,1242,-1
 4807 -385 l 1,1243,-1
 4806 -385 l 1,1244,-1
 4806 -388 l 1,1245,-1
 4806 -391 l 1,1246,-1
 4804 -391 l 1,1247,-1
 4802 -391 l 1,1248,-1
 4802 -398 l 1,1249,-1
 4795 -398 l 1,1250,-1
 4795 -401 l 1,1251,-1
 4795 -404 l 1,1252,-1
 4789 -404 l 1,1253,-1
 4782 -404 l 1,1254,-1
 4782 -406 l 1,1255,-1
 4782 -407 l 1,1256,-1
 4781 -407 l 1,1257,-1
 4779 -407 l 1,1258,-1
 4779 -406 l 1,1259,-1
 4779 -404 l 1,1260,-1
 4771 -404 l 1,1261,-1
 4763 -404 l 1,1262,-1
 4763 -406 l 1,1263,-1
 4763 -407 l 1,1264,-1
 4761 -407 l 1,1265,-1
 4759 -407 l 1,1266,-1
 4759 -409 l 1,1267,-1
 4759 -411 l 1,1268,-1
 4761 -411 l 1,1269,-1
 4763 -411 l 1,1270,-1
 4763 -409 l 1,1271,-1
 4763 -407 l 1,1272,-1
 4766 -407 l 1,1273,-1
 4769 -407 l 1,1274,-1
 4769 -409 l 1,1275,-1
 4769 -411 l 1,1276,-1
 4767 -411 l 1,1277,-1
 4765 -411 l 1,1278,-1
 4765 -413 l 1,1279,-1
 4765 -414 l 1,1280,-1
 4762 -414 l 1,1281,-1
 4759 -414 l 1,1282,-1
 4759 -413 l 1,1112,-1
4775 -413 m 1,1283,-1
 4775 -411 l 1,1284,-1
 4777 -411 l 1,1285,-1
 4779 -411 l 1,1286,-1
 4779 -413 l 1,1287,-1
 4779 -414 l 1,1288,-1
 4777 -414 l 1,1289,-1
 4775 -414 l 1,1290,-1
 4775 -413 l 1,1283,-1
4829 -416 m 1,1291,-1
 4829 -414 l 1,1292,-1
 4825 -414 l 1,1293,-1
 4822 -414 l 1,1294,-1
 4822 -416 l 1,1295,-1
 4822 -418 l 1,1296,-1
 4825 -418 l 1,1297,-1
 4829 -418 l 1,1298,-1
 4829 -416 l 1,1291,-1
4832 -409 m 1,1299,-1
 4832 -407 l 1,1300,-1
 4830 -407 l 1,1301,-1
 4829 -407 l 1,1302,-1
 4829 -409 l 1,1303,-1
 4829 -411 l 1,1304,-1
 4830 -411 l 1,1305,-1
 4832 -411 l 1,1306,-1
 4832 -409 l 1,1299,-1
4889 -409 m 1,1307,-1
 4889 -407 l 1,1308,-1
 4887 -407 l 1,1309,-1
 4885 -407 l 1,1310,-1
 4885 -409 l 1,1311,-1
 4885 -411 l 1,1312,-1
 4887 -411 l 1,1313,-1
 4889 -411 l 1,1314,-1
 4889 -409 l 1,1307,-1
4855 -406 m 1,1315,-1
 4855 -404 l 1,1316,-1
 4857 -404 l 1,1317,-1
 4859 -404 l 1,1318,-1
 4859 -403 l 1,1319,-1
 4859 -401 l 1,1320,-1
 4853 -401 l 1,1321,-1
 4853 -407 l 1,1322,-1
 4854 -407 l 1,1323,-1
 4855 -407 l 1,1324,-1
 4855 -406 l 1,1315,-1
4873 -403 m 1,1325,-1
 4873 -401 l 1,1326,-1
 4869 -401 l 1,1327,-1
 4865 -401 l 1,1328,-1
 4865 -403 l 1,1329,-1
 4865 -404 l 1,1330,-1
 4869 -404 l 1,1331,-1
 4873 -404 l 1,1332,-1
 4873 -403 l 1,1325,-1
4918 -403 m 1,1333,-1
 4918 -401 l 1,1334,-1
 4915 -401 l 1,1335,-1
 4912 -401 l 1,1336,-1
 4912 -403 l 1,1337,-1
 4912 -404 l 1,1338,-1
 4915 -404 l 1,1339,-1
 4918 -404 l 1,1340,-1
 4918 -403 l 1,1333,-1
4907 -395 m 1,1341,-1
 4902 -395 l 1,1342,-1
 4902 -398 l 1,1343,-1
 4902 -401 l 1,1344,-1
 4905 -401 l 1,1345,-1
 4907 -401 l 1,1346,-1
 4907 -395 l 1,1341,-1
4879 -396 m 1,1347,-1
 4879 -395 l 1,1348,-1
 4876 -395 l 1,1349,-1
 4873 -395 l 1,1350,-1
 4873 -396 l 1,1351,-1
 4873 -397 l 1,1352,-1
 4876 -397 l 1,1353,-1
 4879 -397 l 1,1354,-1
 4879 -396 l 1,1347,-1
4889 -394 m 1,1355,-1
 4889 -391 l 1,1356,-1
 4887 -391 l 1,1357,-1
 4885 -391 l 1,1358,-1
 4885 -389 l 1,1359,-1
 4885 -387 l 1,1360,-1
 4889 -387 l 1,1361,-1
 4892 -387 l 1,1362,-1
 4892 -391 l 1,1363,-1
 4892 -395 l 1,1364,-1
 4893 -395 l 1,1365,-1
 4895 -395 l 1,1366,-1
 4895 -391 l 1,1367,-1
 4895 -387 l 1,1368,-1
 4893 -387 l 1,1369,-1
 4892 -387 l 1,1370,-1
 4892 -384 l 1,1371,-1
 4892 -381 l 1,1372,-1
 4893 -381 l 1,1373,-1
 4895 -381 l 1,1374,-1
 4895 -379 l 1,1375,-1
 4895 -377 l 1,1376,-1
 4890 -377 l 1,1377,-1
 4885 -377 l 1,1378,-1
 4885 -379 l 1,1379,-1
 4885 -381 l 1,1380,-1
 4887 -381 l 1,1381,-1
 4889 -381 l 1,1382,-1
 4889 -383 l 1,1383,-1
 4889 -385 l 1,1384,-1
 4887 -385 l 1,1385,-1
 4885 -385 l 1,1386,-1
 4885 -386 l 1,1387,-1
 4885 -387 l 1,1388,-1
 4883 -387 l 1,1389,-1
 4881 -387 l 1,1390,-1
 4881 -386 l 1,1391,-1
 4881 -385 l 1,1392,-1
 4878 -385 l 1,1393,-1
 4875 -385 l 1,1394,-1
 4875 -386 l 1,1395,-1
 4875 -387 l 1,1396,-1
 4878 -387 l 1,1397,-1
 4881 -387 l 1,1398,-1
 4881 -392 l 1,1399,-1
 4881 -397 l 1,1400,-1
 4885 -397 l 1,1401,-1
 4889 -397 l 1,1402,-1
 4889 -394 l 1,1355,-1
4863 -389 m 1,1403,-1
 4863 -387 l 1,1404,-1
 4861 -387 l 1,1405,-1
 4859 -387 l 1,1406,-1
 4859 -389 l 1,1407,-1
 4859 -391 l 1,1408,-1
 4861 -391 l 1,1409,-1
 4863 -391 l 1,1410,-1
 4863 -389 l 1,1403,-1
4905 -388 m 1,1411,-1
 4905 -385 l 1,1412,-1
 4904 -385 l 1,1413,-1
 4902 -385 l 1,1414,-1
 4902 -388 l 1,1415,-1
 4902 -391 l 1,1416,-1
 4904 -391 l 1,1417,-1
 4905 -391 l 1,1418,-1
 4905 -388 l 1,1411,-1
4926 -383 m 1,1419,-1
 4926 -381 l 1,1420,-1
 4922 -381 l 1,1421,-1
 4918 -381 l 1,1422,-1
 4918 -383 l 1,1423,-1
 4918 -385 l 1,1424,-1
 4922 -385 l 1,1425,-1
 4926 -385 l 1,1426,-1
 4926 -383 l 1,1419,-1
4699 -373 m 1,1427,-1
 4699 -371 l 1,1428,-1
 4698 -371 l 1,1429,-1
 4696 -371 l 1,1430,-1
 4696 -373 l 1,1431,-1
 4696 -375 l 1,1432,-1
 4698 -375 l 1,1433,-1
 4699 -375 l 1,1434,-1
 4699 -373 l 1,1427,-1
4952 -368 m 1,1435,-1
 4952 -365 l 1,1436,-1
 4950 -365 l 1,1437,-1
 4949 -365 l 1,1438,-1
 4949 -368 l 1,1439,-1
 4949 -371 l 1,1440,-1
 4950 -371 l 1,1441,-1
 4952 -371 l 1,1442,-1
 4952 -368 l 1,1435,-1
4922 -359 m 1,1443,-1
 4922 -358 l 1,1444,-1
 4919 -358 l 1,1445,-1
 4916 -358 l 1,1446,-1
 4916 -359 l 1,1447,-1
 4916 -361 l 1,1448,-1
 4919 -361 l 1,1449,-1
 4922 -361 l 1,1450,-1
 4922 -359 l 1,1443,-1
4895 -353 m 1,1451,-1
 4895 -351 l 1,1452,-1
 4893 -351 l 1,1453,-1
 4892 -351 l 1,1454,-1
 4892 -353 l 1,1455,-1
 4892 -355 l 1,1456,-1
 4893 -355 l 1,1457,-1
 4895 -355 l 1,1458,-1
 4895 -353 l 1,1451,-1
4916 -349 m 1,1459,-1
 4916 -348 l 1,1460,-1
 4914 -348 l 1,1461,-1
 4912 -348 l 1,1462,-1
 4912 -349 l 1,1463,-1
 4912 -351 l 1,1464,-1
 4914 -351 l 1,1465,-1
 4916 -351 l 1,1466,-1
 4916 -349 l 1,1459,-1
4928 -343 m 1,1467,-1
 4928 -341 l 1,1468,-1
 4923 -341 l 1,1469,-1
 4918 -341 l 1,1470,-1
 4918 -343 l 1,1471,-1
 4918 -344 l 1,1472,-1
 4923 -344 l 1,1473,-1
 4928 -344 l 1,1474,-1
 4928 -343 l 1,1467,-1
4905 -339 m 1,1475,-1
 4905 -338 l 1,1476,-1
 4904 -338 l 1,1477,-1
 4902 -338 l 1,1478,-1
 4902 -339 l 1,1479,-1
 4902 -341 l 1,1480,-1
 4904 -341 l 1,1481,-1
 4905 -341 l 1,1482,-1
 4905 -339 l 1,1475,-1
4873 -336 m 1,1483,-1
 4873 -334 l 1,1484,-1
 4874 -334 l 1,1485,-1
 4875 -334 l 1,1486,-1
 4875 -336 l 1,1487,-1
 4875 -338 l 1,1488,-1
 4878 -338 l 1,1489,-1
 4881 -338 l 1,1490,-1
 4881 -332 l 1,1491,-1
 4875 -332 l 1,1492,-1
 4875 -330 l 1,1493,-1
 4875 -328 l 1,1494,-1
 4874 -328 l 1,1495,-1
 4873 -328 l 1,1496,-1
 4873 -330 l 1,1497,-1
 4873 -332 l 1,1498,-1
 4871 -332 l 1,1499,-1
 4869 -332 l 1,1500,-1
 4869 -335 l 1,1501,-1
 4869 -338 l 1,1502,-1
 4871 -338 l 1,1503,-1
 4873 -338 l 1,1504,-1
 4873 -336 l 1,1483,-1
4912 -336 m 1,1505,-1
 4912 -334 l 1,1506,-1
 4914 -334 l 1,1507,-1
 4916 -334 l 1,1508,-1
 4916 -329 l 1,1509,-1
 4916 -324 l 1,1510,-1
 4914 -324 l 1,1511,-1
 4912 -324 l 1,1512,-1
 4912 -326 l 1,1513,-1
 4912 -328 l 1,1514,-1
 4910 -328 l 1,1515,-1
 4908 -328 l 1,1516,-1
 4908 -333 l 1,1517,-1
 4908 -338 l 1,1518,-1
 4910 -338 l 1,1519,-1
 4912 -338 l 1,1520,-1
 4912 -336 l 1,1505,-1
4865 -330 m 1,1521,-1
 4865 -328 l 1,1522,-1
 4867 -328 l 1,1523,-1
 4869 -328 l 1,1524,-1
 4869 -326 l 1,1525,-1
 4869 -324 l 1,1526,-1
 4863 -324 l 1,1527,-1
 4863 -318 l 1,1528,-1
 4861 -318 l 1,1529,-1
 4859 -318 l 1,1530,-1
 4859 -316 l 1,1531,-1
 4859 -314 l 1,1532,-1
 4857 -314 l 1,1533,-1
 4855 -314 l 1,1534,-1
 4855 -316 l 1,1535,-1
 4855 -318 l 1,1536,-1
 4854 -318 l 1,1537,-1
 4853 -318 l 1,1538,-1
 4853 -316 l 1,1539,-1
 4853 -314 l 1,1540,-1
 4847 -314 l 1,1541,-1
 4842 -314 l 1,1542,-1
 4842 -316 l 1,1543,-1
 4842 -318 l 1,1544,-1
 4845 -318 l 1,1545,-1
 4849 -318 l 1,1546,-1
 4849 -320 l 1,1547,-1
 4849 -322 l 1,1548,-1
 4852 -322 l 1,1549,-1
 4855 -322 l 1,1550,-1
 4855 -323 l 1,1551,-1
 4855 -324 l 1,1552,-1
 4857 -324 l 1,1553,-1
 4859 -324 l 1,1554,-1
 4859 -328 l 1,1555,-1
 4859 -332 l 1,1556,-1
 4862 -332 l 1,1557,-1
 4865 -332 l 1,1558,-1
 4865 -330 l 1,1521,-1
4899 -330 m 1,1559,-1
 4899 -328 l 1,1560,-1
 4897 -328 l 1,1561,-1
 4895 -328 l 1,1562,-1
 4895 -330 l 1,1563,-1
 4895 -332 l 1,1564,-1
 4897 -332 l 1,1565,-1
 4899 -332 l 1,1566,-1
 4899 -330 l 1,1559,-1
4922 -330 m 1,1567,-1
 4922 -328 l 1,1568,-1
 4920 -328 l 1,1569,-1
 4918 -328 l 1,1570,-1
 4918 -330 l 1,1571,-1
 4918 -332 l 1,1572,-1
 4920 -332 l 1,1573,-1
 4922 -332 l 1,1574,-1
 4922 -330 l 1,1567,-1
4889 -320 m 1,1575,-1
 4889 -318 l 1,1576,-1
 4887 -318 l 1,1577,-1
 4885 -318 l 1,1578,-1
 4885 -320 l 1,1579,-1
 4885 -322 l 1,1580,-1
 4887 -322 l 1,1581,-1
 4889 -322 l 1,1582,-1
 4889 -320 l 1,1575,-1
4881 -316 m 1,1583,-1
 4881 -314 l 1,1584,-1
 4880 -314 l 1,1585,-1
 4879 -314 l 1,1586,-1
 4879 -316 l 1,1587,-1
 4879 -318 l 1,1588,-1
 4880 -318 l 1,1589,-1
 4881 -318 l 1,1590,-1
 4881 -316 l 1,1583,-1
4836 -310 m 1,1591,-1
 4836 -308 l 1,1592,-1
 4839 -308 l 1,1593,-1
 4842 -308 l 1,1594,-1
 4842 -310 l 1,1595,-1
 4842 -311 l 1,1596,-1
 4844 -311 l 1,1597,-1
 4845 -311 l 1,1598,-1
 4845 -310 l 1,1599,-1
 4845 -308 l 1,1600,-1
 4844 -308 l 1,1601,-1
 4842 -308 l 1,1602,-1
 4842 -306 l 1,1603,-1
 4842 -304 l 1,1604,-1
 4839 -304 l 1,1605,-1
 4836 -304 l 1,1606,-1
 4836 -303 l 1,1607,-1
 4836 -301 l 1,1608,-1
 4832 -301 l 1,1609,-1
 4829 -301 l 1,1610,-1
 4829 -299 l 1,1611,-1
 4829 -298 l 1,1612,-1
 4825 -298 l 1,1613,-1
 4822 -298 l 1,1614,-1
 4822 -296 l 1,1615,-1
 4822 -295 l 1,1616,-1
 4820 -295 l 1,1617,-1
 4818 -295 l 1,1618,-1
 4818 -296 l 1,1619,-1
 4818 -298 l 1,1620,-1
 4814 -298 l 1,1621,-1
 4809 -298 l 1,1622,-1
 4809 -296 l 1,1623,-1
 4809 -295 l 1,1624,-1
 4807 -295 l 1,1625,-1
 4806 -295 l 1,1626,-1
 4806 -298 l 1,1627,-1
 4806 -301 l 1,1628,-1
 4811 -301 l 1,1629,-1
 4816 -301 l 1,1630,-1
 4816 -303 l 1,1631,-1
 4816 -304 l 1,1632,-1
 4819 -304 l 1,1633,-1
 4822 -304 l 1,1634,-1
 4822 -306 l 1,1635,-1
 4822 -308 l 1,1636,-1
 4824 -308 l 1,1637,-1
 4826 -308 l 1,1638,-1
 4826 -306 l 1,1639,-1
 4826 -304 l 1,1640,-1
 4827 -304 l 1,1641,-1
 4829 -304 l 1,1642,-1
 4829 -306 l 1,1643,-1
 4829 -308 l 1,1644,-1
 4830 -308 l 1,1645,-1
 4832 -308 l 1,1646,-1
 4832 -310 l 1,1647,-1
 4832 -311 l 1,1648,-1
 4834 -311 l 1,1649,-1
 4836 -311 l 1,1650,-1
 4836 -310 l 1,1591,-1
4865 -308 m 1,1651,-1
 4865 -304 l 1,1652,-1
 4864 -304 l 1,1653,-1
 4863 -304 l 1,1654,-1
 4863 -308 l 1,1655,-1
 4863 -311 l 1,1656,-1
 4864 -311 l 1,1657,-1
 4865 -311 l 1,1658,-1
 4865 -308 l 1,1651,-1
4881 -310 m 1,1659,-1
 4881 -308 l 1,1660,-1
 4880 -308 l 1,1661,-1
 4879 -308 l 1,1662,-1
 4879 -310 l 1,1663,-1
 4879 -311 l 1,1664,-1
 4880 -311 l 1,1665,-1
 4881 -311 l 1,1666,-1
 4881 -310 l 1,1659,-1
4746 -301 m 1,1667,-1
 4746 -298 l 1,1668,-1
 4745 -298 l 1,1669,-1
 4743 -298 l 1,1670,-1
 4743 -301 l 1,1671,-1
 4743 -304 l 1,1672,-1
 4745 -304 l 1,1673,-1
 4746 -304 l 1,1674,-1
 4746 -301 l 1,1667,-1
4739 -299 m 1,1675,-1
 4739 -298 l 1,1676,-1
 4737 -298 l 1,1677,-1
 4736 -298 l 1,1678,-1
 4736 -299 l 1,1679,-1
 4736 -301 l 1,1680,-1
 4737 -301 l 1,1681,-1
 4739 -301 l 1,1682,-1
 4739 -299 l 1,1675,-1
4755 -300 m 1,1683,-1
 4755 -298 l 1,1684,-1
 4755 -295 l 1,1685,-1
 4755 -293 l 1,1686,-1
 4755 -291 l 1,1687,-1
 4754 -291 l 1,1688,-1
 4753 -291 l 1,1689,-1
 4753 -293 l 1,1690,-1
 4753 -295 l 1,1691,-1
 4751 -295 l 1,1692,-1
 4749 -295 l 1,1693,-1
 4749 -296 l 1,1694,-1
 4749 -298 l 1,1695,-1
 4751 -298 l 1,1696,-1
 4753 -298 l 1,1697,-1
 4753 -299 l 1,1698,-1
 4753 -301 l 1,1699,-1
 4754 -301 l 1,1700,-1
 4755 -301 l 1,1701,-1
 4755 -300 l 1,1683,-1
4773 -296 m 1,1702,-1
 4773 -291 l 1,1703,-1
 4769 -291 l 1,1704,-1
 4765 -291 l 1,1705,-1
 4765 -293 l 1,1706,-1
 4765 -295 l 1,1707,-1
 4762 -295 l 1,1708,-1
 4759 -295 l 1,1709,-1
 4759 -298 l 1,1710,-1
 4759 -301 l 1,1711,-1
 4766 -301 l 1,1712,-1
 4773 -301 l 1,1713,-1
 4773 -296 l 1,1702,-1
4785 -299 m 1,1714,-1
 4785 -298 l 1,1715,-1
 4783 -298 l 1,1716,-1
 4782 -298 l 1,1717,-1
 4782 -299 l 1,1718,-1
 4782 -301 l 1,1719,-1
 4783 -301 l 1,1720,-1
 4785 -301 l 1,1721,-1
 4785 -299 l 1,1714,-1
4802 -300 m 1,1722,-1
 4802 -295 l 1,1723,-1
 4798 -295 l 1,1724,-1
 4794 -295 l 1,1725,-1
 4789 -295 l 1,1726,-1
 4789 -297 l 1,1727,-1
 4792 -297 l 1,1728,-1
 4792 -299 l 1,1729,-1
 4792 -301 l 1,1730,-1
 4797 -301 l 1,1731,-1
 4802 -301 l 1,1732,-1
 4802 -300 l 1,1722,-1
4853 -299 m 1,1733,-1
 4853 -298 l 1,1734,-1
 4851 -298 l 1,1735,-1
 4849 -298 l 1,1736,-1
 4849 -299 l 1,1737,-1
 4849 -301 l 1,1738,-1
 4851 -301 l 1,1739,-1
 4853 -301 l 1,1740,-1
 4853 -299 l 1,1733,-1
4792 -289 m 1,1741,-1
 4792 -287 l 1,1742,-1
 4791 -287 l 1,1743,-1
 4789 -287 l 1,1744,-1
 4789 -289 l 1,1745,-1
 4789 -291 l 1,1746,-1
 4791 -291 l 1,1747,-1
 4792 -291 l 1,1748,-1
 4792 -289 l 1,1741,-1
4785 -286 m 1,1749,-1
 4785 -285 l 1,1750,-1
 4783 -285 l 1,1751,-1
 4782 -285 l 1,1752,-1
 4782 -283 l 1,1753,-1
 4782 -281 l 1,1754,-1
 4783 -281 l 1,1755,-1
 4785 -281 l 1,1756,-1
 4785 -279 l 1,1757,-1
 4785 -277 l 1,1758,-1
 4782 -277 l 1,1759,-1
 4779 -277 l 1,1760,-1
 4779 -279 l 1,1761,-1
 4779 -281 l 1,1762,-1
 4777 -281 l 1,1763,-1
 4775 -281 l 1,1764,-1
 4775 -283 l 1,1765,-1
 4775 -285 l 1,1766,-1
 4779 -285 l 1,1767,-1
 4782 -285 l 1,1768,-1
 4782 -286 l 1,1769,-1
 4782 -287 l 1,1770,-1
 4783 -287 l 1,1771,-1
 4785 -287 l 1,1772,-1
 4785 -286 l 1,1749,-1
4729 -283 m 1,1773,-1
 4729 -281 l 1,1774,-1
 4727 -281 l 1,1775,-1
 4726 -281 l 1,1776,-1
 4726 -283 l 1,1777,-1
 4726 -285 l 1,1778,-1
 4727 -285 l 1,1779,-1
 4729 -285 l 1,1780,-1
 4729 -283 l 1,1773,-1
4792 -283 m 1,1781,-1
 4792 -281 l 1,1782,-1
 4791 -281 l 1,1783,-1
 4789 -281 l 1,1784,-1
 4789 -283 l 1,1785,-1
 4789 -285 l 1,1786,-1
 4791 -285 l 1,1787,-1
 4792 -285 l 1,1788,-1
 4792 -283 l 1,1781,-1
4696 -279 m 1,1789,-1
 4696 -277 l 1,1790,-1
 4694 -277 l 1,1791,-1
 4692 -277 l 1,1792,-1
 4692 -276 l 1,1793,-1
 4692 -274 l 1,1794,-1
 4689 -274 l 1,1795,-1
 4689 -277 l 1,1796,-1
 4690 -277 l 1,1797,-1
 4692 -277 l 1,1798,-1
 4692 -279 l 1,1799,-1
 4692 -281 l 1,1800,-1
 4694 -281 l 1,1801,-1
 4696 -281 l 1,1802,-1
 4696 -279 l 1,1789,-1
4712 -279 m 1,1803,-1
 4712 -277 l 1,1804,-1
 4711 -277 l 1,1805,-1
 4710 -277 l 1,1806,-1
 4710 -279 l 1,1807,-1
 4710 -281 l 1,1808,-1
 4711 -281 l 1,1809,-1
 4712 -281 l 1,1810,-1
 4712 -279 l 1,1803,-1
4765 -279 m 1,1811,-1
 4765 -277 l 1,1812,-1
 4764 -277 l 1,1813,-1
 4763 -277 l 1,1814,-1
 4763 -279 l 1,1815,-1
 4763 -281 l 1,1816,-1
 4764 -281 l 1,1817,-1
 4765 -281 l 1,1818,-1
 4765 -279 l 1,1811,-1
4706 -276 m 1,1819,-1
 4706 -275 l 1,1820,-1
 4709 -275 l 1,1821,-1
 4712 -275 l 1,1822,-1
 4712 -273 l 1,1823,-1
 4712 -271 l 1,1824,-1
 4711 -271 l 1,1825,-1
 4710 -271 l 1,1826,-1
 4710 -269 l 1,1827,-1
 4710 -267 l 1,1828,-1
 4716 -267 l 1,1829,-1
 4722 -267 l 1,1830,-1
 4722 -269 l 1,1831,-1
 4722 -271 l 1,1832,-1
 4719 -271 l 1,1833,-1
 4716 -271 l 1,1834,-1
 4716 -273 l 1,1835,-1
 4716 -275 l 1,1836,-1
 4721 -275 l 1,1837,-1
 4726 -275 l 1,1838,-1
 4726 -273 l 1,1839,-1
 4726 -271 l 1,1840,-1
 4727 -271 l 1,1841,-1
 4729 -271 l 1,1842,-1
 4729 -269 l 1,1843,-1
 4729 -267 l 1,1844,-1
 4725 -267 l 1,1845,-1
 4722 -267 l 1,1846,-1
 4722 -266 l 1,1847,-1
 4722 -265 l 1,1848,-1
 4721 -265 l 1,1849,-1
 4719 -265 l 1,1850,-1
 4719 -263 l 1,1851,-1
 4719 -261 l 1,1852,-1
 4717 -261 l 1,1853,-1
 4716 -261 l 1,1854,-1
 4716 -263 l 1,1855,-1
 4716 -265 l 1,1856,-1
 4711 -265 l 1,1857,-1
 4706 -265 l 1,1858,-1
 4706 -266 l 1,1859,-1
 4706 -267 l 1,1860,-1
 4699 -267 l 1,1861,-1
 4692 -267 l 1,1862,-1
 4692 -269 l 1,1863,-1
 4692 -271 l 1,1864,-1
 4694 -271 l 1,1865,-1
 4696 -271 l 1,1866,-1
 4696 -273 l 1,1867,-1
 4696 -275 l 1,1868,-1
 4698 -275 l 1,1869,-1
 4699 -275 l 1,1870,-1
 4699 -273 l 1,1871,-1
 4699 -271 l 1,1872,-1
 4701 -271 l 1,1873,-1
 4702 -271 l 1,1874,-1
 4702 -274 l 1,1875,-1
 4702 -277 l 1,1876,-1
 4704 -277 l 1,1877,-1
 4706 -277 l 1,1878,-1
 4706 -276 l 1,1819,-1
4733 -273 m 1,1879,-1
 4733 -271 l 1,1880,-1
 4731 -271 l 1,1881,-1
 4729 -271 l 1,1882,-1
 4729 -273 l 1,1883,-1
 4729 -275 l 1,1884,-1
 4731 -275 l 1,1885,-1
 4733 -275 l 1,1886,-1
 4733 -273 l 1,1879,-1
4743 -269 m 1,1887,-1
 4743 -267 l 1,1888,-1
 4739 -267 l 1,1889,-1
 4736 -267 l 1,1890,-1
 4736 -269 l 1,1891,-1
 4736 -271 l 1,1892,-1
 4739 -271 l 1,1893,-1
 4743 -271 l 1,1894,-1
 4743 -269 l 1,1887,-1
4753 -269 m 1,1895,-1
 4753 -267 l 1,1896,-1
 4751 -267 l 1,1897,-1
 4749 -267 l 1,1898,-1
 4749 -265 l 1,1899,-1
 4746 -265 l 1,1900,-1
 4746 -268 l 1,1901,-1
 4746 -271 l 1,1902,-1
 4749 -271 l 1,1903,-1
 4753 -271 l 1,1904,-1
 4753 -269 l 1,1895,-1
4683 -263 m 1,1905,-1
 4683 -261 l 1,1906,-1
 4681 -261 l 1,1907,-1
 4679 -261 l 1,1908,-1
 4679 -263 l 1,1909,-1
 4679 -265 l 1,1910,-1
 4681 -265 l 1,1911,-1
 4683 -265 l 1,1912,-1
 4683 -263 l 1,1905,-1
4702 -258 m 1,1913,-1
 4702 -255 l 1,1914,-1
 4701 -255 l 1,1915,-1
 4699 -255 l 1,1916,-1
 4699 -257 l 1,1917,-1
 4699 -259 l 1,1918,-1
 4698 -259 l 1,1919,-1
 4696 -259 l 1,1920,-1
 4696 -260 l 1,1921,-1
 4696 -261 l 1,1922,-1
 4699 -261 l 1,1923,-1
 4702 -261 l 1,1924,-1
 4702 -258 l 1,1913,-1
4710 -260 m 1,1925,-1
 4710 -259 l 1,1926,-1
 4708 -259 l 1,1927,-1
 4706 -259 l 1,1928,-1
 4706 -260 l 1,1929,-1
 4706 -261 l 1,1930,-1
 4708 -261 l 1,1931,-1
 4710 -261 l 1,1932,-1
 4710 -260 l 1,1925,-1
4722 -247 m 1,1933,-1
 4722 -245 l 1,1934,-1
 4721 -245 l 1,1935,-1
 4719 -245 l 1,1936,-1
 4719 -247 l 1,1937,-1
 4719 -248 l 1,1938,-1
 4721 -248 l 1,1939,-1
 4722 -248 l 1,1940,-1
 4722 -247 l 1,1933,-1
4816 -459 m 1,1941,-1
 4816 -458 l 1,1942,-1
 4819 -458 l 1,1943,-1
 4822 -458 l 1,1944,-1
 4822 -459 l 1,1945,-1
 4822 -461 l 1,1946,-1
 4819 -461 l 1,1947,-1
 4816 -461 l 1,1948,-1
 4816 -459 l 1,1941,-1
4829 -459 m 1,1949,-1
 4829 -458 l 1,1950,-1
 4830 -458 l 1,1951,-1
 4832 -458 l 1,1952,-1
 4832 -459 l 1,1953,-1
 4832 -461 l 1,1954,-1
 4830 -461 l 1,1955,-1
 4829 -461 l 1,1956,-1
 4829 -459 l 1,1949,-1
4739 -456 m 1,1957,-1
 4739 -454 l 1,1958,-1
 4741 -454 l 1,1959,-1
 4743 -454 l 1,1960,-1
 4743 -456 l 1,1961,-1
 4743 -458 l 1,1962,-1
 4741 -458 l 1,1963,-1
 4739 -458 l 1,1964,-1
 4739 -456 l 1,1957,-1
4795 -446 m 1,1965,-1
 4795 -444 l 1,1966,-1
 4797 -444 l 1,1967,-1
 4799 -444 l 1,1968,-1
 4799 -446 l 1,1969,-1
 4799 -448 l 1,1970,-1
 4797 -448 l 1,1971,-1
 4795 -448 l 1,1972,-1
 4795 -446 l 1,1965,-1
4869 -435 m 1,1973,-1
 4869 -431 l 1,1974,-1
 4877 -431 l 1,1975,-1
 4879 -431 l 1,1976,-1
 4879 -433 l 1,1977,-1
 4879 -434 l 1,1978,-1
 4877 -434 l 1,1979,-1
 4875 -434 l 1,1980,-1
 4875 -436 l 1,1981,-1
 4875 -438 l 1,1982,-1
 4872 -438 l 1,1983,-1
 4869 -438 l 1,1984,-1
 4869 -435 l 1,1973,-1
4885 -426 m 1,1985,-1
 4885 -424 l 1,1986,-1
 4887 -424 l 1,1987,-1
 4889 -424 l 1,1988,-1
 4889 -426 l 1,1989,-1
 4889 -428 l 1,1990,-1
 4887 -428 l 1,1991,-1
 4885 -428 l 1,1992,-1
 4885 -426 l 1,1985,-1
4905 -411 m 1,1993,-1
 4904 -411 l 1,1994,-1
 4902 -411 l 1,1995,-1
 4902 -409 l 1,1996,-1
 4902 -407 l 1,1997,-1
 4904 -407 l 1,1998,-1
 4905 -407 l 1,1999,-1
 4905 -409 l 1,2000,-1
 4905 -411 l 1,1993,-1
4596 -403 m 1,2001,-1
 4596 -401 l 1,2002,-1
 4598 -401 l 1,2003,-1
 4600 -401 l 1,2004,-1
 4600 -403 l 1,2005,-1
 4600 -404 l 1,2006,-1
 4598 -404 l 1,2007,-1
 4596 -404 l 1,2008,-1
 4596 -403 l 1,2001,-1
4955 -383 m 1,2009,-1
 4955 -381 l 1,2010,-1
 4957 -381 l 1,2011,-1
 4959 -381 l 1,2012,-1
 4959 -383 l 1,2013,-1
 4959 -385 l 1,2014,-1
 4957 -385 l 1,2015,-1
 4955 -385 l 1,2016,-1
 4955 -383 l 1,2009,-1
4949 -379 m 1,2017,-1
 4949 -377 l 1,2018,-1
 4950 -377 l 1,2019,-1
 4952 -377 l 1,2020,-1
 4952 -379 l 1,2021,-1
 4952 -381 l 1,2022,-1
 4950 -381 l 1,2023,-1
 4949 -381 l 1,2024,-1
 4949 -379 l 1,2017,-1
4969 -373 m 1,2025,-1
 4969 -371 l 1,2026,-1
 4970 -371 l 1,2027,-1
 4971 -371 l 1,2028,-1
 4971 -373 l 1,2029,-1
 4971 -375 l 1,2030,-1
 4970 -375 l 1,2031,-1
 4969 -375 l 1,2032,-1
 4969 -373 l 1,2025,-1
4945 -349 m 1,2033,-1
 4945 -348 l 1,2034,-1
 4947 -348 l 1,2035,-1
 4949 -348 l 1,2036,-1
 4949 -346 l 1,2037,-1
 4949 -344 l 1,2038,-1
 4950 -344 l 1,2039,-1
 4952 -344 l 1,2040,-1
 4952 -346 l 1,2041,-1
 4952 -348 l 1,2042,-1
 4950 -348 l 1,2043,-1
 4949 -348 l 1,2044,-1
 4949 -349 l 1,2045,-1
 4949 -351 l 1,2046,-1
 4947 -351 l 1,2047,-1
 4945 -351 l 1,2048,-1
 4945 -349 l 1,2033,-1
4945 -339 m 1,2049,-1
 4945 -338 l 1,2050,-1
 4947 -338 l 1,2051,-1
 4949 -338 l 1,2052,-1
 4949 -339 l 1,2053,-1
 4949 -341 l 1,2054,-1
 4947 -341 l 1,2055,-1
 4945 -341 l 1,2056,-1
 4945 -339 l 1,2049,-1
4902 -310 m 1,2057,-1
 4902 -308 l 1,2058,-1
 4904 -308 l 1,2059,-1
 4905 -308 l 1,2060,-1
 4905 -310 l 1,2061,-1
 4905 -311 l 1,2062,-1
 4904 -311 l 1,2063,-1
 4902 -311 l 1,2064,-1
 4902 -310 l 1,2057,-1
4865 -289 m 1,2065,-1
 4865 -287 l 1,2066,-1
 4867 -287 l 1,2067,-1
 4869 -287 l 1,2068,-1
 4869 -289 l 1,2069,-1
 4869 -291 l 1,2070,-1
 4867 -291 l 1,2071,-1
 4865 -291 l 1,2072,-1
 4865 -289 l 1,2065,-1
4733 -239 m 1,2073,-1
 4733 -238 l 1,2074,-1
 4731 -238 l 1,2075,-1
 4729 -238 l 1,2076,-1
 4729 -236 l 1,2077,-1
 4729 -235 l 1,2078,-1
 4733 -235 l 1,2079,-1
 4736 -235 l 1,2080,-1
 4736 -233 l 1,2081,-1
 4736 -231 l 1,2082,-1
 4741 -231 l 1,2083,-1
 4746 -231 l 1,2084,-1
 4746 -233 l 1,2085,-1
 4746 -235 l 1,2086,-1
 4747 -235 l 1,2087,-1
 4749 -235 l 1,2088,-1
 4749 -233 l 1,2089,-1
 4749 -231 l 1,2090,-1
 4751 -231 l 1,2091,-1
 4753 -231 l 1,2092,-1
 4753 -233 l 1,2093,-1
 4753 -235 l 1,2094,-1
 4751 -235 l 1,2095,-1
 4749 -235 l 1,2096,-1
 4749 -236 l 1,2097,-1
 4749 -238 l 1,2098,-1
 4747 -238 l 1,2099,-1
 4746 -238 l 1,2100,-1
 4746 -236 l 1,2101,-1
 4746 -235 l 1,2102,-1
 4743 -235 l 1,2103,-1
 4739 -235 l 1,2104,-1
 4739 -237 l 1,2105,-1
 4739 -241 l 1,2106,-1
 4735 -241 l 1,2107,-1
 4733 -241 l 1,2108,-1
 4733 -239 l 1,2073,-1
4759 -239 m 1,2109,-1
 4759 -238 l 1,2110,-1
 4761 -238 l 1,2111,-1
 4763 -238 l 1,2112,-1
 4763 -239 l 1,2113,-1
 4763 -241 l 1,2114,-1
 4761 -241 l 1,2115,-1
 4759 -241 l 1,2116,-1
 4759 -239 l 1,2109,-1
8454 -1157 m 2,2117,-1
 8455 -1157 l 1,2118,-1
 8456 -1157 l 2,2119,2120
 8561 -1157 8561 -1157 8646 -1243 c 1,2121,2122
 8602 -1287 8602 -1287 8557 -1312.5 c 128,-1,2123
 8512 -1338 8512 -1338 8458 -1338 c 2,2124,-1
 8455 -1338 l 1,2125,-1
 8451 -1338 l 2,2126,2127
 8398 -1338 8398 -1338 8352.5 -1312.5 c 128,-1,2128
 8307 -1287 8307 -1287 8264 -1243 c 1,2129,2130
 8348 -1157 8348 -1157 8454 -1157 c 2,2117,-1
8454 -1176 m 2,2131,2132
 8371 -1176 8371 -1176 8292 -1243 c 1,2133,2134
 8300 -1250 8300 -1250 8305 -1255 c 1,2135,2136
 8338 -1230 8338 -1230 8374 -1214.5 c 128,-1,2137
 8410 -1199 8410 -1199 8454 -1199 c 2,2138,-1
 8455 -1199 l 1,2139,-1
 8456 -1199 l 2,2140,2141
 8500 -1199 8500 -1199 8535.5 -1214.5 c 128,-1,2142
 8571 -1230 8571 -1230 8605 -1255 c 1,2143,2144
 8610 -1250 8610 -1250 8618 -1243 c 1,2145,2146
 8538 -1176 8538 -1176 8456 -1176 c 2,2147,-1
 8455 -1176 l 1,2148,-1
 8454 -1176 l 2,2131,2132
8455 -1221 m 128,-1,2150
 8436 -1221 8436 -1221 8422.5 -1235 c 128,-1,2151
 8409 -1249 8409 -1249 8409 -1268 c 128,-1,2152
 8409 -1287 8409 -1287 8422.5 -1300.5 c 128,-1,2153
 8436 -1314 8436 -1314 8455 -1314 c 128,-1,2154
 8474 -1314 8474 -1314 8487.5 -1300.5 c 128,-1,2155
 8501 -1287 8501 -1287 8501 -1268 c 128,-1,2156
 8501 -1249 8501 -1249 8487.5 -1235 c 128,-1,2149
 8474 -1221 8474 -1221 8455 -1221 c 128,-1,2150
8405 -1225 m 1,2157,2158
 8364 -1236 8364 -1236 8320 -1267 c 1,2159,2160
 8363 -1300 8363 -1300 8406 -1311 c 1,2161,2162
 8389 -1293 8389 -1293 8389 -1268 c 0,2163,2164
 8389 -1245 8389 -1245 8405 -1225 c 1,2157,2158
8504 -1225 m 1,2165,2166
 8521 -1245 8521 -1245 8520 -1268 c 0,2167,2168
 8520 -1293 8520 -1293 8503 -1311 c 1,2169,2170
 8547 -1300 8547 -1300 8589 -1267 c 1,2171,2172
 8546 -1236 8546 -1236 8504 -1225 c 1,2165,2166
8455 -1239 m 128,-1,2174
 8468 -1239 8468 -1239 8476.5 -1247 c 128,-1,2175
 8485 -1255 8485 -1255 8485 -1269 c 0,2176,2177
 8485 -1281 8485 -1281 8476 -1290 c 128,-1,2178
 8467 -1299 8467 -1299 8455 -1299 c 0,2179,2180
 8442 -1299 8442 -1299 8433.5 -1290 c 128,-1,2181
 8425 -1281 8425 -1281 8425 -1269 c 0,2182,2183
 8424 -1255 8424 -1255 8433 -1247 c 128,-1,2173
 8442 -1239 8442 -1239 8455 -1239 c 128,-1,2174
8455 -1258 m 256,2184,2185
 8450 -1258 8450 -1258 8447 -1261 c 128,-1,2186
 8444 -1264 8444 -1264 8444 -1268.5 c 128,-1,2187
 8444 -1273 8444 -1273 8447 -1276 c 128,-1,2188
 8450 -1279 8450 -1279 8455 -1279 c 256,2189,2190
 8460 -1279 8460 -1279 8463 -1276 c 128,-1,2191
 8466 -1273 8466 -1273 8466 -1268.5 c 128,-1,2192
 8466 -1264 8466 -1264 8463 -1261 c 128,-1,2193
 8460 -1258 8460 -1258 8455 -1258 c 256,2184,2185
1523 915 m 2,2194,-1
 1524 915 l 1,2195,-1
 1526 915 l 2,2196,2197
 1631 915 1631 915 1716 829 c 1,2198,2199
 1672 785 1672 785 1627 759.5 c 128,-1,2200
 1582 734 1582 734 1528 734 c 2,2201,-1
 1524 734 l 1,2202,-1
 1521 734 l 2,2203,2204
 1467 734 1467 734 1422 759.5 c 128,-1,2205
 1377 785 1377 785 1333 829 c 1,2206,2207
 1418 915 1418 915 1523 915 c 2,2194,-1
1523 896 m 2,2208,2209
 1441 896 1441 896 1362 829 c 1,2210,2211
 1370 821 1370 821 1374 817 c 1,2212,2213
 1408 842 1408 842 1444 857.5 c 128,-1,2214
 1480 873 1480 873 1523 873 c 2,2215,-1
 1524 873 l 1,2216,-1
 1526 873 l 2,2217,2218
 1569 873 1569 873 1605 857.5 c 128,-1,2219
 1641 842 1641 842 1674 817 c 1,2220,2221
 1679 821 1679 821 1687 829 c 1,2222,2223
 1608 896 1608 896 1526 896 c 2,2224,-1
 1524 896 l 1,2225,-1
 1523 896 l 2,2208,2209
1524.5 851 m 128,-1,2227
 1505 851 1505 851 1491.5 837 c 128,-1,2228
 1478 823 1478 823 1478 804 c 128,-1,2229
 1478 785 1478 785 1491.5 771.5 c 128,-1,2230
 1505 758 1505 758 1524.5 758 c 128,-1,2231
 1544 758 1544 758 1557 771.5 c 128,-1,2232
 1570 785 1570 785 1570 804 c 128,-1,2233
 1570 823 1570 823 1557 837 c 128,-1,2226
 1544 851 1544 851 1524.5 851 c 128,-1,2227
1475 847 m 1,2234,2235
 1434 836 1434 836 1390 805 c 1,2236,2237
 1432 772 1432 772 1476 761 c 1,2238,2239
 1459 779 1459 779 1459 804 c 0,2240,2241
 1459 827 1459 827 1475 847 c 1,2234,2235
1574 847 m 1,2242,2243
 1590 827 1590 827 1590 804 c 0,2244,2245
 1590 779 1590 779 1573 761 c 1,2246,2247
 1616 772 1616 772 1659 805 c 1,2248,2249
 1615 836 1615 836 1574 847 c 1,2242,2243
1524.5 833 m 128,-1,2251
 1538 833 1538 833 1546.5 825 c 128,-1,2252
 1555 817 1555 817 1555 803 c 0,2253,2254
 1555 791 1555 791 1546 782 c 128,-1,2255
 1537 773 1537 773 1524 773 c 0,2256,2257
 1512 773 1512 773 1503 782 c 128,-1,2258
 1494 791 1494 791 1494 803 c 0,2259,2260
 1494 817 1494 817 1502.5 825 c 128,-1,2250
 1511 833 1511 833 1524.5 833 c 128,-1,2251
1524 814 m 0,2261,2262
 1520 814 1520 814 1517 811 c 128,-1,2263
 1514 808 1514 808 1514 803.5 c 128,-1,2264
 1514 799 1514 799 1517 796 c 128,-1,2265
 1520 793 1520 793 1524 793 c 0,2266,2267
 1529 793 1529 793 1532 796 c 128,-1,2268
 1535 799 1535 799 1535 803.5 c 128,-1,2269
 1535 808 1535 808 1532 811 c 128,-1,2270
 1529 814 1529 814 1524 814 c 0,2261,2262
503 -129 m 1,2271,-1
 271 -129 l 1,2272,-1
 387 0 l 1,2273,-1
 503 -129 l 1,2271,-1
503 -246 m 1,2274,-1
 271 -246 l 1,2275,-1
 271 -170 l 1,2276,-1
 503 -170 l 1,2277,-1
 503 -246 l 1,2274,-1
144 0 m 1,2278,-1
 144 608 l 1,2279,-1
 7 608 l 1,2280,-1
 7 739 l 1,2281,-1
 418 739 l 1,2282,-1
 418 608 l 1,2283,-1
 281 608 l 1,2284,-1
 281 0 l 1,2285,-1
 144 0 l 1,2278,-1
EndSplineSet
EndChar

StartChar: U
Encoding: 85 85 56
Width: 640
Flags: W
LayerCount: 2
Fore
SplineSet
68 739 m 1,0,-1
 205 739 l 1,1,-1
 205 271 l 2,2,3
 205 200 205 200 223 169 c 0,4,5
 254 119 254 119 318 119 c 0,6,7
 381 119 381 119 412 169 c 0,8,9
 430 200 430 200 430 271 c 2,10,-1
 430 739 l 1,11,-1
 567 739 l 1,12,-1
 567 271 l 2,13,14
 567 149 567 149 517 82 c 0,15,16
 484 38 484 38 430.5 12.5 c 128,-1,17
 377 -13 377 -13 317 -13 c 0,18,19
 252 -13 252 -13 196 16.5 c 128,-1,20
 140 46 140 46 108 97 c 0,21,22
 68 161 68 161 68 271 c 2,23,-1
 68 739 l 1,0,-1
EndSplineSet
EndChar

StartChar: V
Encoding: 86 86 57
Width: 700
Flags: W
LayerCount: 2
Fore
SplineSet
296 0 m 1,0,-1
 8 739 l 1,1,-1
 152 739 l 1,2,-1
 351 177 l 1,3,-1
 550 739 l 1,4,-1
 694 739 l 1,5,-1
 408 0 l 1,6,-1
 296 0 l 1,0,-1
EndSplineSet
EndChar

StartChar: W
Encoding: 87 87 58
Width: 900
Flags: W
LayerCount: 2
Fore
SplineSet
224 0 m 1,0,-1
 7 739 l 1,1,-1
 147 739 l 1,2,-1
 277 223 l 1,3,-1
 403 739 l 1,4,-1
 503 739 l 1,5,-1
 627 223 l 1,6,-1
 758 739 l 1,7,-1
 898 739 l 1,8,-1
 682 0 l 1,9,-1
 573 0 l 1,10,-1
 454 489 l 1,11,-1
 332 0 l 1,12,-1
 224 0 l 1,0,-1
EndSplineSet
EndChar

StartChar: X
Encoding: 88 88 59
Width: 680
Flags: W
LayerCount: 2
Fore
SplineSet
5 0 m 1,0,-1
 259 368 l 1,1,-1
 5 739 l 1,2,-1
 168 739 l 1,3,-1
 340 481 l 1,4,-1
 517 739 l 1,5,-1
 676 739 l 1,6,-1
 420 368 l 1,7,-1
 676 0 l 1,8,-1
 517 0 l 1,9,-1
 340 255 l 1,10,-1
 168 0 l 1,11,-1
 5 0 l 1,0,-1
EndSplineSet
EndChar

StartChar: Y
Encoding: 89 89 60
Width: 620
Flags: W
LayerCount: 2
Fore
SplineSet
246 0 m 1,0,-1
 246 273 l 1,1,-1
 3 739 l 1,2,-1
 151 739 l 1,3,-1
 315 399 l 1,4,-1
 478 739 l 1,5,-1
 626 739 l 1,6,-1
 383 273 l 1,7,-1
 383 0 l 1,8,-1
 246 0 l 1,0,-1
EndSplineSet
EndChar

StartChar: Z
Encoding: 90 90 61
Width: 500
Flags: W
LayerCount: 2
Fore
SplineSet
18 116 m 1,0,-1
 298 608 l 1,1,-1
 33 608 l 1,2,-1
 33 739 l 1,3,-1
 461 739 l 1,4,-1
 461 616 l 1,5,-1
 183 131 l 1,6,-1
 480 131 l 1,7,-1
 480 0 l 1,8,-1
 18 0 l 1,9,-1
 18 116 l 1,0,-1
EndSplineSet
EndChar

StartChar: bracketleft
Encoding: 91 91 62
Width: 320
Flags: W
LayerCount: 2
Fore
SplineSet
292 739 m 1,0,-1
 292 592 l 1,1,2
 244 572 244 572 229 539 c 0,3,4
 209 494 209 494 209 419 c 2,5,-1
 209 164 l 2,6,7
 209 104 209 104 229 62 c 0,8,9
 246 27 246 27 292 10 c 1,10,-1
 292 -137 l 1,11,12
 233 -123 233 -123 193.5 -96.5 c 128,-1,13
 154 -70 154 -70 123 -23 c 0,14,15
 74 54 74 54 74 187 c 2,16,-1
 74 446 l 2,17,18
 74 582 74 582 150 662 c 0,19,20
 177 690 177 690 207.5 706.5 c 128,-1,21
 238 723 238 723 292 739 c 1,0,-1
EndSplineSet
EndChar

StartChar: backslash
Encoding: 92 92 63
Width: 640
Flags: W
LayerCount: 2
Fore
SplineSet
503 0 m 1,0,-1
 409 0 l 1,1,-1
 84 739 l 1,2,-1
 178 739 l 1,3,-1
 503 0 l 1,0,-1
EndSplineSet
EndChar

StartChar: bracketright
Encoding: 93 93 64
Width: 320
Flags: W
LayerCount: 2
Fore
SplineSet
37 -137 m 1,0,-1
 37 10 l 1,1,2
 85 30 85 30 100 63 c 0,3,4
 120 108 120 108 120 183 c 2,5,-1
 120 438 l 2,6,7
 120 498 120 498 100 540 c 0,8,9
 84 573 84 573 37 592 c 1,10,-1
 37 739 l 1,11,12
 97 725 97 725 136.5 698.5 c 128,-1,13
 176 672 176 672 206 625 c 0,14,15
 255 548 255 548 255 415 c 2,16,-1
 255 156 l 2,17,18
 255 20 255 20 179 -60 c 0,19,20
 131 -110 131 -110 37 -137 c 1,0,-1
EndSplineSet
EndChar

StartChar: asciicircum
Encoding: 94 94 65
Width: 600
Flags: W
LayerCount: 2
Fore
SplineSet
167 313 m 1,0,-1
 63 363 l 1,1,-1
 242 739 l 1,2,-1
 364 739 l 1,3,-1
 543 363 l 1,4,-1
 439 313 l 1,5,-1
 303 589 l 1,6,-1
 167 313 l 1,0,-1
EndSplineSet
EndChar

StartChar: underscore
Encoding: 95 95 66
Width: 500
Flags: W
LayerCount: 2
Fore
SplineSet
0 -48 m 1,0,-1
 500 -48 l 1,1,-1
 500 -138 l 1,2,-1
 0 -138 l 1,3,-1
 0 -48 l 1,0,-1
EndSplineSet
EndChar

StartChar: grave
Encoding: 96 96 67
Width: 420
Flags: W
LayerCount: 2
Fore
SplineSet
74 737 m 1,0,-1
 131 825 l 1,1,-1
 353 692 l 1,2,-1
 300 613 l 1,3,-1
 74 737 l 1,0,-1
EndSplineSet
EndChar

StartChar: a
Encoding: 97 97 68
Width: 660
Flags: W
LayerCount: 2
Fore
SplineSet
615 554 m 1,0,-1
 615 0 l 1,1,-1
 493 0 l 1,2,-1
 493 72 l 1,3,4
 453 27 453 27 410 7 c 128,-1,5
 367 -13 367 -13 309 -13 c 0,6,7
 188 -13 188 -13 109 68.5 c 128,-1,8
 30 150 30 150 30 275 c 0,9,10
 30 402 30 402 109.5 484.5 c 128,-1,11
 189 567 189 567 312 567 c 0,12,13
 427 567 427 567 493 480 c 1,14,-1
 493 554 l 1,15,-1
 615 554 l 1,0,-1
326 445 m 128,-1,17
 255 445 255 445 209.5 396.5 c 128,-1,18
 164 348 164 348 164 272 c 0,19,20
 164 199 164 199 209.5 154 c 128,-1,21
 255 109 255 109 328 109 c 0,22,23
 407 109 407 109 449 159 c 0,24,25
 489 206 489 206 489 273 c 0,26,27
 489 349 489 349 443 397 c 128,-1,16
 397 445 397 445 326 445 c 128,-1,17
6320 -384 m 1,28,-1
 6320 -379 l 2,29,30
 6320 -374 6320 -374 6321 -365 c 1,31,32
 6323 -358 6323 -358 6325 -347 c 0,33,34
 6327 -337 6327 -337 6332.5 -327 c 128,-1,35
 6338 -317 6338 -317 6346 -308.5 c 128,-1,36
 6354 -300 6354 -300 6367 -295 c 128,-1,37
 6380 -290 6380 -290 6396 -290 c 0,38,39
 6410 -290 6410 -290 6422.5 -295 c 128,-1,40
 6435 -300 6435 -300 6444 -309 c 128,-1,41
 6453 -318 6453 -318 6458.5 -330 c 128,-1,42
 6464 -342 6464 -342 6465 -355 c 128,-1,43
 6466 -368 6466 -368 6461 -384 c 128,-1,44
 6456 -400 6456 -400 6445 -414 c 2,45,-1
 6320 -580 l 1,46,-1
 6320 -384 l 1,28,-1
6304 -384 m 1,47,-1
 6304 -580 l 1,48,-1
 6179 -414 l 2,49,50
 6168 -400 6168 -400 6163.5 -384 c 128,-1,51
 6159 -368 6159 -368 6160 -355 c 128,-1,52
 6161 -342 6161 -342 6166.5 -330 c 128,-1,53
 6172 -318 6172 -318 6181 -309 c 128,-1,54
 6190 -300 6190 -300 6202 -295 c 128,-1,55
 6214 -290 6214 -290 6228 -290 c 0,56,57
 6244 -290 6244 -290 6257.5 -295 c 128,-1,58
 6271 -300 6271 -300 6278.5 -308.5 c 128,-1,59
 6286 -317 6286 -317 6292 -327 c 128,-1,60
 6298 -337 6298 -337 6300 -347 c 128,-1,61
 6302 -357 6302 -357 6303 -365.5 c 128,-1,62
 6304 -374 6304 -374 6304 -379 c 2,63,-1
 6304 -384 l 1,47,-1
2016 1411 m 1,64,-1
 2016 1416 l 2,65,66
 2016 1421 2016 1421 2017.5 1429.5 c 128,-1,67
 2019 1438 2019 1438 2021 1448 c 128,-1,68
 2023 1458 2023 1458 2028.5 1468 c 128,-1,69
 2034 1478 2034 1478 2042 1486.5 c 128,-1,70
 2050 1495 2050 1495 2063 1499.5 c 128,-1,71
 2076 1504 2076 1504 2093 1504 c 0,72,73
 2107 1504 2107 1504 2119 1499.5 c 128,-1,74
 2131 1495 2131 1495 2140 1486 c 128,-1,75
 2149 1477 2149 1477 2154.5 1465 c 128,-1,76
 2160 1453 2160 1453 2161 1440 c 128,-1,77
 2162 1427 2162 1427 2157 1411 c 128,-1,78
 2152 1395 2152 1395 2142 1380 c 2,79,-1
 2016 1215 l 1,80,-1
 2016 1411 l 1,64,-1
2001 1411 m 1,81,-1
 2001 1215 l 1,82,-1
 1876 1380 l 2,83,84
 1865 1395 1865 1395 1860 1411 c 128,-1,85
 1855 1427 1855 1427 1856 1440 c 128,-1,86
 1857 1453 1857 1453 1862.5 1465 c 128,-1,87
 1868 1477 1868 1477 1877 1486 c 128,-1,88
 1886 1495 1886 1495 1898.5 1499.5 c 128,-1,89
 1911 1504 1911 1504 1924 1504 c 0,90,91
 1941 1504 1941 1504 1954 1499.5 c 128,-1,92
 1967 1495 1967 1495 1975 1486.5 c 128,-1,93
 1983 1478 1983 1478 1988.5 1468 c 128,-1,94
 1994 1458 1994 1458 1996 1448 c 128,-1,95
 1998 1438 1998 1438 1999.5 1429.5 c 128,-1,96
 2001 1421 2001 1421 2001 1416 c 2,97,-1
 2001 1411 l 1,81,-1
8902 766 m 0,98,99
 8902 774 8902 774 8896.5 775.5 c 128,-1,100
 8891 777 8891 777 8871 777 c 0,101,102
 8863 777 8863 777 8817 782 c 1,103,-1
 8787 742 l 1,104,-1
 8767 740 l 1,105,-1
 8780 787 l 1,106,-1
 8766 792 l 1,107,-1
 8780 797 l 1,108,-1
 8767 844 l 1,109,-1
 8787 841 l 1,110,-1
 8817 802 l 1,111,-1
 8831 803 l 2,112,113
 8841 804 8841 804 8853 805 c 128,-1,114
 8865 806 8865 806 8874 806 c 2,115,-1
 8887 807 l 2,116,117
 8902 807 8902 807 8902 817 c 0,118,119
 8902 818 8902 818 8902.5 820 c 128,-1,120
 8903 822 8903 822 8903 823 c 0,121,122
 8903 834 8903 834 8893 856 c 2,123,-1
 8858 936 l 1,124,-1
 8873 936 l 2,125,126
 8879 936 8879 936 8881.5 934 c 128,-1,127
 8884 932 8884 932 8889 924 c 2,128,-1
 8905 902 l 1,129,-1
 8929 902 l 2,130,131
 8931 902 8931 902 8932.5 900 c 128,-1,132
 8934 898 8934 898 8934 896 c 0,133,134
 8934 893 8934 893 8932.5 891 c 128,-1,135
 8931 889 8931 889 8929 889 c 2,136,-1
 8916 889 l 1,137,-1
 8936 861 l 1,138,-1
 8960 861 l 2,139,140
 8961 861 8961 861 8963 859 c 128,-1,141
 8965 857 8965 857 8965 855 c 0,142,143
 8965 852 8965 852 8963 850 c 128,-1,144
 8961 848 8961 848 8959 848 c 2,145,-1
 8947 848 l 1,146,-1
 8977 808 l 1,147,-1
 8980 808 l 1,148,-1
 9008 806 l 2,149,150
 9056 804 9056 804 9056 792 c 0,151,152
 9056 784 9056 784 9037.5 780.5 c 128,-1,153
 9019 777 9019 777 8977 776 c 1,154,-1
 8947 736 l 1,155,-1
 8959 736 l 2,156,157
 8961 736 8961 736 8963 734 c 128,-1,158
 8965 732 8965 732 8965 729 c 256,159,160
 8965 726 8965 726 8963.5 724 c 128,-1,161
 8962 722 8962 722 8960 722 c 2,162,-1
 8936 722 l 1,163,-1
 8916 694 l 1,164,-1
 8929 694 l 2,165,166
 8931 694 8931 694 8932.5 692 c 128,-1,167
 8934 690 8934 690 8934 688 c 0,168,169
 8934 685 8934 685 8932.5 683 c 128,-1,170
 8931 681 8931 681 8929 681 c 2,171,-1
 8905 681 l 1,172,-1
 8889 659 l 2,173,174
 8884 652 8884 652 8881 650 c 128,-1,175
 8878 648 8878 648 8873 648 c 2,176,-1
 8858 648 l 1,177,-1
 8893 727 l 1,178,179
 8902 762 8902 762 8902 766 c 0,98,99
3314 1316 m 0,180,181
 3318 1316 3318 1316 3322 1314 c 1,182,183
 3320 1312 3320 1312 3320 1308 c 1,184,185
 3324 1310 3324 1310 3330 1308.5 c 128,-1,186
 3336 1307 3336 1307 3340 1302 c 1,187,188
 3336 1302 l 1,189,-1
 3332 1302 l 1,190,-1
 3337 1295 l 1,191,-1
 3330 1290 l 1,192,-1
 3329 1285 l 1,193,194
 3328 1284 3328 1284 3325 1282.5 c 128,-1,195
 3322 1281 3322 1281 3320 1280.5 c 128,-1,196
 3318 1280 3318 1280 3315 1280 c 1,197,198
 3319 1277 3319 1277 3319 1274 c 1,199,200
 3318 1273 3318 1273 3315.5 1271 c 128,-1,201
 3313 1269 3313 1269 3312 1269 c 1,202,203
 3323 1274 3323 1274 3332 1277 c 0,204,205
 3357 1286 3357 1286 3382 1288 c 0,206,207
 3393 1289 3393 1289 3409 1284.5 c 128,-1,208
 3425 1280 3425 1280 3432 1276 c 0,209,210
 3444 1270 3444 1270 3451 1262 c 1,211,212
 3435 1260 3435 1260 3434 1260 c 1,213,214
 3430 1262 3430 1262 3422.5 1267.5 c 128,-1,215
 3415 1273 3415 1273 3411 1275 c 1,216,-1
 3422 1265 l 1,217,218
 3408 1273 3408 1273 3402 1278 c 1,219,220
 3403 1276 3403 1276 3405 1271.5 c 128,-1,221
 3407 1267 3407 1267 3408 1265 c 1,222,223
 3406 1267 3406 1267 3403 1269 c 0,224,225
 3399 1271 3399 1271 3396 1272.5 c 128,-1,226
 3393 1274 3393 1274 3391 1276 c 1,227,228
 3391 1272 3391 1272 3393 1267 c 1,229,230
 3389 1268 3389 1268 3386 1272 c 1,231,232
 3382 1270 3382 1270 3378 1267 c 1,233,234
 3376 1267 3376 1267 3372.5 1266.5 c 128,-1,235
 3369 1266 3369 1266 3367 1266 c 1,236,237
 3378 1261 3378 1261 3388 1251 c 0,238,239
 3398 1240 3398 1240 3400 1224 c 1,240,241
 3396 1228 3396 1228 3393 1233 c 1,242,243
 3391 1231 3391 1231 3390 1228 c 1,244,-1
 3392 1227 l 2,245,246
 3400 1222 3400 1222 3408.5 1212 c 128,-1,247
 3417 1202 3417 1202 3422 1194 c 1,248,249
 3421 1194 3421 1194 3419.5 1195.5 c 130,-1,250
 3418 1197 l 1,251,252
 3422 1191 3422 1191 3422 1182 c 1,253,254
 3420 1184 3420 1184 3416 1185 c 1,255,256
 3416 1183 l 1,257,-1
 3418 1179 l 1,258,-1
 3416 1171 l 1,259,260
 3412 1171 3412 1171 3409 1173 c 1,261,-1
 3403 1173 l 1,262,-1
 3408 1167 l 1,263,264
 3406 1164 3406 1164 3402 1163 c 1,265,-1
 3400 1165 l 1,266,267
 3399 1163 3399 1163 3396 1163 c 1,268,-1
 3393 1167 l 1,269,270
 3393 1165 3393 1165 3393 1162 c 1,271,272
 3390 1161 3390 1161 3386 1163 c 1,273,274
 3386 1168 3386 1168 3385 1173 c 1,275,276
 3384 1166 3384 1166 3383 1163 c 1,277,278
 3380 1164 3380 1164 3375 1166 c 1,279,280
 3375 1167 3375 1167 3375 1172 c 128,-1,281
 3375 1177 3375 1177 3375 1178 c 1,282,283
 3370 1177 3370 1177 3367 1178 c 1,284,285
 3365 1182 3365 1182 3365 1192 c 1,286,287
 3363 1188 3363 1188 3363 1184 c 1,288,-1
 3362 1185 l 1,289,290
 3363 1175 3363 1175 3363 1165 c 1,291,292
 3362 1166 3362 1166 3361.5 1168.5 c 128,-1,293
 3361 1171 3361 1171 3360 1173 c 1,294,295
 3359 1168 3359 1168 3355 1166 c 1,296,297
 3349 1179 3349 1179 3346 1192 c 1,298,299
 3346 1195 3346 1195 3345.5 1197 c 128,-1,300
 3345 1199 3345 1199 3344 1201 c 128,-1,301
 3343 1203 3343 1203 3342 1204 c 1,302,303
 3341 1204 3341 1204 3339 1204 c 1,304,-1
 3339 1205 l 1,305,-1
 3338 1205 l 1,306,307
 3337.5 1202.5 l 130,-1,308
 3337 1200 3337 1200 3336 1199 c 1,309,310
 3335 1205 3335 1205 3335 1209 c 1,311,-1
 3334 1210 l 1,312,313
 3330 1206 l 1,314,315
 3332 1195 3332 1195 3337 1188 c 0,316,317
 3342 1180 3342 1180 3347.5 1171.5 c 128,-1,318
 3353 1163 3353 1163 3362 1151 c 0,319,320
 3371 1141 3371 1141 3383 1131 c 2,321,-1
 3474 1058 l 2,322,323
 3522 1018 3522 1018 3551 979 c 0,324,325
 3567 957 3567 957 3580 944 c 1,326,-1
 3545 944 l 1,327,328
 3524 987 3524 987 3493 1017 c 0,329,330
 3466 1043 3466 1043 3434 1070 c 2,331,-1
 3405 1095 l 2,332,333
 3366 1129 3366 1129 3358 1137 c 0,334,335
 3337 1158 3337 1158 3320 1183 c 0,336,337
 3319 1184 3319 1184 3318 1186 c 1,338,339
 3317 1185 l 1,340,-1
 3319 1180 l 1,341,-1
 3319 1179 l 1,342,343
 3329 1156 3329 1156 3335 1149 c 1,344,-1
 3315 1172 l 1,345,-1
 3316 1170 l 2,346,347
 3322 1154 3322 1154 3325 1129 c 1,348,349
 3323 1126 3323 1126 3321 1124 c 1,350,351
 3321 1121 3321 1121 3321 1119 c 1,352,353
 3320 1119 3320 1119 3318.5 1118 c 128,-1,354
 3317 1117 3317 1117 3316 1116 c 1,355,356
 3318 1114 3318 1114 3319 1108 c 1,357,358
 3315 1107 3315 1107 3313 1105 c 1,359,360
 3312 1102 3312 1102 3308 1098 c 1,361,362
 3308 1101 3308 1101 3305 1105 c 1,363,364
 3303 1104 3303 1104 3300 1104 c 1,365,366
 3300 1105 3300 1105 3298.5 1108.5 c 128,-1,367
 3297 1111 3297 1111 3297 1112 c 1,368,369
 3295 1113 3295 1113 3292 1114 c 1,370,371
 3292 1121 3292 1121 3291 1126 c 1,372,373
 3289 1126 3289 1126 3285 1126 c 1,374,375
 3287 1131 3287 1131 3289 1134 c 1,376,-1
 3283 1135 l 1,377,378
 3283 1137 3283 1137 3283 1141 c 0,379,380
 3283 1147 3283 1147 3284 1147 c 1,381,382
 3283 1148 3283 1148 3281 1149 c 128,-1,383
 3279 1150 3279 1150 3278 1151 c 1,384,385
 3280 1154 3280 1154 3280 1157 c 1,386,-1
 3274 1167 l 1,387,388
 3278 1172 3278 1172 3278 1183 c 1,389,390
 3281 1190 3281 1190 3283 1193 c 1,391,392
 3283 1194 3283 1194 3279 1203 c 1,393,394
 3280 1207 3280 1207 3280 1214 c 1,395,-1
 3274 1217 l 1,396,397
 3276 1211 3276 1211 3278 1207 c 1,398,399
 3273 1213 3273 1213 3270 1220 c 1,400,401
 3275 1204 3275 1204 3275 1203 c 1,402,403
 3273 1206 3273 1206 3272 1209 c 1,404,405
 3272 1199 l 1,406,407
 3269 1198 3269 1198 3268 1197 c 1,408,409
 3268 1196.5 l 130,-1,410
 3268 1196 3268 1196 3268 1197 c 1,411,412
 3265 1194 3265 1194 3264 1193 c 1,413,414
 3264 1191 3264 1191 3267 1183.5 c 128,-1,415
 3270 1176 3270 1176 3270 1174 c 0,416,417
 3270 1173 3270 1173 3267.5 1171 c 128,-1,418
 3265 1169 3265 1169 3264 1168 c 1,419,420
 3264 1166 3264 1166 3264 1164.5 c 128,-1,421
 3264 1163 3264 1163 3264.5 1161 c 128,-1,422
 3265 1159 3265 1159 3265 1157 c 1,423,424
 3262.5 1156 l 130,-1,425
 3260 1155 3260 1155 3258 1156 c 1,426,427
 3256 1155 3256 1155 3254 1153 c 1,428,429
 3253 1151 l 1,430,431
 3254 1149 3254 1149 3254.5 1146 c 128,-1,432
 3255 1143 3255 1143 3255 1139.5 c 128,-1,433
 3255 1136 3255 1136 3256 1134 c 1,434,-1
 3252 1137 l 1,435,436
 3251 1134 3251 1134 3251 1129 c 128,-1,437
 3251 1124 3251 1124 3251 1122 c 1,438,-1
 3246 1126 l 1,439,-1
 3249 1120 l 1,440,-1
 3246 1118 l 1,441,442
 3243 1112 l 1,443,444
 3242 1112 3242 1112 3241 1112.5 c 128,-1,445
 3240 1113 3240 1113 3239 1113 c 1,446,447
 3239 1111.5 l 130,-1,448
 3239 1110 3239 1110 3239 1108 c 1,449,450
 3236 1108 3236 1108 3234 1109 c 1,451,452
 3233 1114 3233 1114 3230 1120 c 1,453,454
 3229.5 1116.5 l 130,-1,455
 3229 1113 3229 1113 3229 1111 c 1,456,457
 3228 1112 3228 1112 3227.5 1114.5 c 128,-1,458
 3227 1117 3227 1117 3226 1118 c 1,459,460
 3223 1114 3223 1114 3223 1111 c 1,461,462
 3222 1113 3222 1113 3220.5 1117 c 128,-1,463
 3219 1121 3219 1121 3218 1123 c 1,464,-1
 3216 1118 l 1,465,466
 3215 1122 3215 1122 3216 1129 c 128,-1,467
 3217 1136 3217 1136 3217 1139 c 1,468,469
 3216 1140 l 130,-1,470
 3215 1141 3215 1141 3214 1141 c 1,471,472
 3215 1149 3215 1149 3221 1157 c 1,473,474
 3220 1159 3220 1159 3218 1161 c 256,475,476
 3216 1163 3216 1163 3216 1164 c 1,477,478
 3218 1157 3218 1157 3218 1156 c 1,479,-1
 3214 1162 l 1,480,481
 3214 1156 l 1,482,-1
 3213 1151 l 1,483,484
 3211 1154 3211 1154 3208 1157 c 1,485,486
 3210 1152 3210 1152 3212 1148 c 1,487,488
 3209 1150.5 l 130,-1,489
 3206 1153 3206 1153 3205 1155 c 1,490,-1
 3208 1144 l 1,491,-1
 3205 1149 l 1,492,493
 3207 1144 3207 1144 3207 1140 c 1,494,495
 3201 1148 l 1,496,497
 3201 1144 3201 1144 3202 1140 c 1,498,-1
 3197 1147 l 1,499,-1
 3200 1137 l 1,500,-1
 3195 1142 l 1,501,502
 3194 1137 3194 1137 3196 1132 c 1,503,504
 3195 1133 3195 1133 3193 1135 c 128,-1,505
 3191 1137 3191 1137 3190 1138 c 1,506,507
 3190 1133 3190 1133 3188 1130 c 1,508,-1
 3185 1136 l 1,509,510
 3185 1134 3185 1134 3185 1128.5 c 128,-1,511
 3185 1123 3185 1123 3185 1121 c 1,512,-1
 3183 1124 l 1,513,-1
 3182 1119 l 1,514,515
 3180 1124 3180 1124 3179 1129 c 1,516,517
 3181 1144 3181 1144 3190 1163 c 0,518,519
 3193 1168 3193 1168 3202.5 1181 c 128,-1,520
 3212 1194 3212 1194 3217 1199 c 0,521,522
 3226 1209 3226 1209 3237 1218 c 1,523,524
 3239 1222 3239 1222 3240 1224 c 1,525,526
 3238 1226 l 1,527,528
 3237 1226 3237 1226 3236 1225 c 1,529,530
 3237 1227 3237 1227 3238 1228 c 1,531,532
 3237 1229 3237 1229 3237 1230 c 1,533,-1
 3235 1229 l 1,534,535
 3233 1226 l 130,-1,536
 3231 1223 3231 1223 3230 1221 c 1,537,-1
 3230 1225 l 1,538,-1
 3230 1228 l 1,539,540
 3225 1221 3225 1221 3223 1213 c 1,541,542
 3222 1218.5 l 130,-1,543
 3221 1224 3221 1224 3221 1227 c 1,544,545
 3220 1224 3220 1224 3218 1220 c 128,-1,546
 3216 1216 3216 1216 3215 1214 c 1,547,548
 3215 1218 3215 1218 3217 1225 c 1,549,-1
 3210 1211 l 1,550,-1
 3210 1217 l 1,551,-1
 3210 1223 l 1,552,553
 3205 1216 3205 1216 3203 1210 c 1,554,555
 3202 1216 3202 1216 3203 1219 c 1,556,557
 3196 1211 3196 1211 3194 1205 c 1,558,-1
 3192 1215 l 1,559,560
 3185 1208 3185 1208 3183 1204 c 1,561,562
 3182 1208 3182 1208 3183 1214 c 1,563,564
 3182 1212 3182 1212 3180 1208 c 128,-1,565
 3178 1204 3178 1204 3177 1202 c 1,566,567
 3177 1206 3177 1206 3178 1211 c 1,568,-1
 3173 1198 l 1,569,570
 3172 1203 3172 1203 3173 1208 c 1,571,572
 3169 1202 3169 1202 3167 1198 c 1,573,-1
 3166 1208 l 1,574,575
 3165 1206 3165 1206 3164.5 1203.5 c 128,-1,576
 3164 1201 3164 1201 3164 1198 c 128,-1,577
 3164 1195 3164 1195 3164 1194 c 1,578,579
 3162 1197 3162 1197 3161 1201 c 1,580,581
 3159 1197 3159 1197 3159 1192 c 1,582,583
 3157 1199 3157 1199 3158 1205 c 1,584,585
 3158 1204 3158 1204 3153 1187 c 1,586,587
 3152 1199 3152 1199 3151 1202 c 1,588,589
 3150 1200 3150 1200 3149 1195 c 128,-1,590
 3148 1190 3148 1190 3148 1189 c 1,591,592
 3148 1190 3148 1190 3148 1194 c 0,593,594
 3148 1197 3148 1197 3147 1198 c 1,595,596
 3143 1188 3143 1188 3143 1187 c 1,597,-1
 3144 1196 l 1,598,599
 3143 1194 3143 1194 3142.5 1192 c 128,-1,600
 3142 1190 3142 1190 3141.5 1187.5 c 128,-1,601
 3141 1185 3141 1185 3140 1184 c 1,602,603
 3141 1186 3141 1186 3140.5 1190 c 128,-1,604
 3140 1194 3140 1194 3140 1197 c 1,605,606
 3141 1200 3141 1200 3150 1208.5 c 128,-1,607
 3159 1217 3159 1217 3166 1223 c 0,608,609
 3183 1235 3183 1235 3213 1242 c 1,610,611
 3212 1243 3212 1243 3211 1245.5 c 128,-1,612
 3210 1248 3210 1248 3210 1250 c 1,613,614
 3208 1249 3208 1249 3206.5 1246.5 c 128,-1,615
 3205 1244 3205 1244 3204 1243 c 1,616,617
 3204 1244 3204 1244 3203 1245 c 1,618,619
 3197 1240 3197 1240 3189 1236 c 1,620,-1
 3195 1243 l 1,621,-1
 3186 1240 l 1,622,-1
 3190 1250 l 1,623,-1
 3181 1244 l 1,624,-1
 3186 1250 l 1,625,626
 3184 1249 3184 1249 3179 1246 c 128,-1,627
 3174 1243 3174 1243 3171 1242 c 1,628,-1
 3175 1247 l 1,629,-1
 3168 1244 l 1,630,631
 3166 1245 3166 1245 3164 1247.5 c 128,-1,632
 3162 1250 3162 1250 3160 1252 c 1,633,634
 3169 1257 3169 1257 3188 1262 c 1,635,636
 3190 1266 3190 1266 3193 1268 c 1,637,638
 3187 1269 3187 1269 3183 1269 c 1,639,640
 3188 1273 3188 1273 3201 1276.5 c 128,-1,641
 3214 1280 3214 1280 3228 1279 c 0,642,643
 3232 1279 l 1,644,645
 3231 1280 3231 1280 3229 1281 c 1,646,647
 3234 1286 3234 1286 3235 1287 c 1,648,649
 3234 1287 3234 1287 3231 1285 c 128,-1,650
 3228 1283 3228 1283 3225 1283 c 1,651,652
 3223 1287 3223 1287 3222 1293 c 1,653,654
 3219 1293 3219 1293 3214 1293 c 1,655,656
 3212 1301 l 1,657,658
 3211 1302 3211 1302 3208 1301.5 c 128,-1,659
 3205 1301 3205 1301 3204 1302 c 1,660,661
 3204 1305 3204 1305 3205 1307 c 1,662,663
 3208 1309 3208 1309 3213 1310 c 1,664,665
 3213 1312 3213 1312 3214 1315 c 1,666,667
 3225.5 1312 l 130,-1,668
 3237 1309 3237 1309 3242 1305 c 1,669,670
 3242 1300 3242 1300 3243 1297 c 1,671,672
 3243 1298 3243 1298 3243.5 1300 c 130,-1,673
 3244 1302 l 1,674,675
 3245 1302 3245 1302 3248.5 1301 c 128,-1,676
 3252 1300 3252 1300 3253 1299 c 1,677,678
 3252 1296 3252 1296 3251 1295 c 1,679,680
 3253 1297 3253 1297 3254 1297 c 1,681,682
 3257 1295 3257 1295 3266 1286.5 c 128,-1,683
 3275 1278 3275 1278 3277 1276 c 2,684,-1
 3278 1275 l 1,685,686
 3279 1275 3279 1275 3279 1274 c 1,687,-1
 3278 1284 l 1,688,689
 3279 1285 3279 1285 3282 1285 c 0,690,691
 3284 1285 3284 1285 3285 1285 c 1,692,693
 3285 1296 3285 1296 3284 1299 c 1,694,695
 3286 1301 3286 1301 3289 1301 c 128,-1,696
 3292 1301 3292 1301 3294 1300 c 1,697,698
 3296 1303 3296 1303 3300 1307.5 c 128,-1,699
 3304 1312 3304 1312 3305 1315 c 1,700,701
 3311 1316 3311 1316 3314 1316 c 0,180,181
2422 -1406 m 1,702,-1
 2574 -1100 l 1,703,-1
 2727 -1406 l 1,704,-1
 2422 -1406 l 1,702,-1
2455 -1384 m 1,705,-1
 2694 -1384 l 1,706,-1
 2574 -1145 l 1,707,-1
 2455 -1384 l 1,705,-1
EndSplineSet
EndChar

StartChar: b
Encoding: 98 98 69
Width: 660
Flags: W
LayerCount: 2
Fore
SplineSet
54 0 m 1,0,-1
 54 739 l 1,1,-1
 187 739 l 1,2,-1
 187 503 l 1,3,4
 225 541 225 541 265 557.5 c 128,-1,5
 305 574 305 574 359 574 c 0,6,7
 478 574 478 574 558 490 c 128,-1,8
 638 406 638 406 638 281 c 0,9,10
 638 168 638 168 573 84 c 0,11,12
 497 -13 497 -13 368 -13 c 0,13,14
 306 -13 306 -13 262.5 6 c 128,-1,15
 219 25 219 25 176 71 c 1,16,-1
 176 0 l 1,17,-1
 54 0 l 1,0,-1
340 452 m 0,18,19
 270 452 270 452 224.5 404 c 128,-1,20
 179 356 179 356 179 281 c 0,21,22
 179 205 179 205 225 157 c 128,-1,23
 271 109 271 109 343 109 c 0,24,25
 414 109 414 109 459 156.5 c 128,-1,26
 504 204 504 204 504 280 c 0,27,28
 504 354 504 354 457.5 403 c 128,-1,29
 411 452 411 452 340 452 c 0,18,19
EndSplineSet
EndChar

StartChar: c
Encoding: 99 99 70
Width: 640
Flags: W
LayerCount: 2
Fore
SplineSet
3152 -112 m 1,0,-1
 3124 -112 l 1,1,-1
 3000 184 l 1,2,-1
 3028 184 l 1,3,-1
 3152 -112 l 1,0,-1
1044 660 m 1,4,-1
 1016 660 l 1,5,-1
 892 956 l 1,6,-1
 920 956 l 1,7,-1
 1044 660 l 1,4,-1
4928 1028 m 1,8,-1
 4908 958 l 1,9,-1
 4978 976 l 1,10,-1
 4928 924 l 1,11,-1
 4998 904 l 1,12,-1
 4928 882 l 1,13,-1
 4978 830 l 1,14,-1
 4908 848 l 1,15,-1
 4928 778 l 1,16,-1
 4872 830 l 1,17,-1
 4852 759 l 1,18,-1
 4834 830 l 1,19,-1
 4782 778 l 1,20,-1
 4800 848 l 1,21,-1
 4729 830 l 1,22,-1
 4782 882 l 1,23,-1
 4709 904 l 1,24,-1
 4782 924 l 1,25,-1
 4729 976 l 1,26,-1
 4800 958 l 1,27,-1
 4782 1028 l 1,28,-1
 4834 976 l 1,29,-1
 4852 1048 l 1,30,-1
 4872 976 l 1,31,-1
 4928 1028 l 1,8,-1
388 399 m 1,32,-1
 368 329 l 1,33,-1
 438 347 l 1,34,-1
 388 295 l 1,35,-1
 458 275 l 1,36,-1
 388 253 l 1,37,-1
 438 201 l 1,38,-1
 368 219 l 1,39,-1
 388 149 l 1,40,-1
 332 201 l 1,41,-1
 312 130 l 1,42,-1
 294 201 l 1,43,-1
 242 149 l 1,44,-1
 260 219 l 1,45,-1
 189 201 l 1,46,-1
 242 253 l 1,47,-1
 169 275 l 1,48,-1
 242 295 l 1,49,-1
 189 347 l 1,50,-1
 260 329 l 1,51,-1
 242 399 l 1,52,-1
 294 347 l 1,53,-1
 312 419 l 1,54,-1
 332 347 l 1,55,-1
 388 399 l 1,32,-1
674 -17 m 1,56,-1
 674 -31 l 1,57,-1
 692 -31 l 1,58,-1
 692 -17 l 1,59,-1
 674 -17 l 1,56,-1
658 40 m 1,60,-1
 665 24 l 1,61,-1
 680 31 l 1,62,-1
 685 7 l 1,63,-1
 712 7 l 1,64,-1
 723 -29 l 1,65,-1
 689 -84 l 1,66,-1
 724 -128 l 1,67,-1
 758 -118 l 1,68,-1
 762 -124 l 1,69,-1
 749 -129 l 1,70,-1
 749 -133 l 1,71,-1
 774 -130 l 1,72,-1
 775 -137 l 1,73,-1
 749 -140 l 1,74,-1
 749 -143 l 1,75,-1
 768 -147 l 1,76,-1
 764 -153 l 1,77,-1
 745 -149 l 1,78,-1
 709 -155 l 1,79,-1
 672 -121 l 1,80,-1
 648 -149 l 1,81,-1
 674 -176 l 1,82,-1
 734 -174 l 1,83,-1
 734 -185 l 1,84,-1
 702 -184 l 1,85,-1
 698 -188 l 1,86,-1
 743 -194 l 1,87,-1
 740 -203 l 1,88,-1
 690 -196 l 1,89,-1
 689 -198 l 1,90,-1
 717 -208 l 1,91,-1
 712 -216 l 1,92,-1
 662 -203 l 1,93,-1
 623 -208 l 1,94,-1
 473 -208 l 1,95,-1
 434 -175 l 1,96,-1
 434 -130 l 1,97,-1
 474 -74 l 1,98,-1
 570 -48 l 1,99,-1
 623 -16 l 1,100,-1
 613 23 l 1,101,-1
 628 18 l 1,102,-1
 634 34 l 1,103,-1
 646 23 l 1,104,-1
 658 40 l 1,60,-1
451 182 m 1,105,-1
 601 182 l 1,106,107
 566 89 566 89 494.5 38 c 128,-1,108
 423 -13 423 -13 326 -13 c 0,109,110
 203 -13 203 -13 116.5 71.5 c 128,-1,111
 30 156 30 156 30 277 c 0,112,113
 30 399 30 399 114.5 483 c 128,-1,114
 199 567 199 567 322 567 c 0,115,116
 442 567 442 567 526 489 c 0,117,118
 576 443 576 443 601 369 c 1,119,-1
 451 369 l 1,120,121
 411 445 411 445 322 445 c 0,122,123
 253 445 253 445 208.5 398 c 128,-1,124
 164 351 164 351 164 278 c 128,-1,125
 164 205 164 205 210 157 c 128,-1,126
 256 109 256 109 325 109 c 0,127,128
 404 109 404 109 451 182 c 1,105,-1
EndSplineSet
EndChar

StartChar: d
Encoding: 100 100 71
Width: 660
Flags: W
LayerCount: 2
Fore
SplineSet
613 739 m 1,0,-1
 613 0 l 1,1,-1
 491 0 l 1,2,-1
 491 72 l 1,3,4
 416 -13 416 -13 308 -13 c 0,5,6
 190 -13 190 -13 110 71 c 128,-1,7
 30 155 30 155 30 278 c 0,8,9
 30 402 30 402 110.5 488 c 128,-1,10
 191 574 191 574 307 574 c 0,11,12
 417 574 417 574 480 505 c 1,13,-1
 480 739 l 1,14,-1
 613 739 l 1,0,-1
326 452 m 0,15,16
 258 452 258 452 211 403.5 c 128,-1,17
 164 355 164 355 164 284 c 0,18,19
 164 210 164 210 211.5 159.5 c 128,-1,20
 259 109 259 109 329 109 c 0,21,22
 397 109 397 109 443.5 158.5 c 128,-1,23
 490 208 490 208 490 280 c 0,24,25
 490 353 490 353 443 402.5 c 128,-1,26
 396 452 396 452 326 452 c 0,15,16
EndSplineSet
EndChar

StartChar: e
Encoding: 101 101 72
Width: 640
Flags: W
LayerCount: 2
Fore
SplineSet
603 218 m 1,0,-1
 174 218 l 1,1,2
 186 168 186 168 227 138.5 c 128,-1,3
 268 109 268 109 327 109 c 0,4,5
 368 109 368 109 395.5 121.5 c 128,-1,6
 423 134 423 134 449 164 c 1,7,-1
 594 164 l 1,8,9
 582 127 582 127 550 87 c 0,10,11
 463 -13 463 -13 330 -13 c 0,12,13
 203 -13 203 -13 116.5 70 c 128,-1,14
 30 153 30 153 30 275 c 128,-1,15
 30 397 30 397 115 482 c 128,-1,16
 200 567 200 567 322 567 c 0,17,18
 446 567 446 567 527 482.5 c 128,-1,19
 608 398 608 398 608 269 c 0,20,21
 608 242 608 242 603 218 c 1,0,-1
170 335 m 1,22,-1
 477 335 l 1,23,24
 464 388 464 388 424.5 416.5 c 128,-1,25
 385 445 385 445 324 445 c 0,26,27
 203 445 203 445 170 335 c 1,22,-1
EndSplineSet
EndChar

StartChar: f
Encoding: 102 102 73
Width: 280
Flags: W
LayerCount: 2
Fore
SplineSet
58 0 m 1,0,-1
 58 433 l 1,1,-1
 10 433 l 1,2,-1
 10 544 l 1,3,-1
 58 544 l 1,4,5
 67 636 67 636 102 677 c 0,6,7
 153 739 153 739 241 739 c 0,8,9
 258 739 258 739 274 737 c 1,10,-1
 274 611 l 1,11,-1
 261 611 l 2,12,13
 222 611 222 611 207 596.5 c 128,-1,14
 192 582 192 582 191 544 c 1,15,-1
 266 544 l 1,16,-1
 266 433 l 1,17,-1
 191 433 l 1,18,-1
 191 0 l 1,19,-1
 58 0 l 1,0,-1
EndSplineSet
EndChar

